<?xml version="1.0" standalone="no"?>
<!DOCTYPE svg PUBLIC "-//W3C//DTD SVG 1.1//EN" "http://www.w3.org/Graphics/SVG/1.1/DTD/svg11.dtd" >
<svg xmlns="http://www.w3.org/2000/svg">
<metadata></metadata>
<defs>
<font id="astonishedregular" horiz-adv-x="665" >
<font-face units-per-em="2048" ascent="1638" descent="-410" />
<missing-glyph horiz-adv-x="511" />
<glyph horiz-adv-x="2048" />
<glyph horiz-adv-x="2048" />
<glyph unicode="&#xd;" horiz-adv-x="1024" />
<glyph unicode=" "  horiz-adv-x="511" />
<glyph unicode="&#x09;" horiz-adv-x="511" />
<glyph unicode="&#xa0;" horiz-adv-x="511" />
<glyph unicode="!" horiz-adv-x="326" d="M47 1227q10 16 29 28h10l20 -10q13 60 82 60q76 0 76 -66q0 -5 -2 -33l-49 -676q-1 -19 -6 -67.5t-29 -48.5q0 75 -14 106l-49 658q-12 -46 -17 -187q-4 -129 -22 -176zM125 51q0 23 18 40.5t41 17.5q60 0 60 -56q0 -63 -62 -63q-23 0 -40 19t-17 42z" />
<glyph unicode="&#x22;" horiz-adv-x="388" d="M68 1232v166q0 13 22.5 26t36.5 13q57 0 57 -67q0 -59 -25 -94q-46 -65 -63 -65q-28 0 -28 21zM238 1232v166q0 13 22.5 26t36.5 13q57 0 57 -67q0 -59 -25 -94q-46 -65 -63 -65q-28 0 -28 21z" />
<glyph unicode="#" horiz-adv-x="678" d="M68 424q33 20 69 47q22 17 37 129q12 91 12 158q0 33 -30.5 63.5t-30.5 32.5q0 10 43.5 37t46.5 47l39 283q5 35 29 49q8 -4 20 -29q-33 -180 -33 -283q0 -6 2 -40l31 -29h176q33 0 78 362l18 19q21 -4 21 -37q0 -48 -15.5 -142.5t-15.5 -142.5q0 -63 60 -88v-10 q-65 -26 -82 -62q-8 -17 -21 -112q-14 -103 -14 -160q0 -28 29.5 -59t29.5 -33q-6 -8 -48 -35q-35 -22 -40 -57l-41 -285q-5 -33 -41 -33q0 52 12.5 154t12.5 154q0 -13 -2 49l-10 18q-97 10 -166 10q-36 0 -43 -14q-15 -30 -23 -88q-37 -281 -61 -281q-21 0 -21 31 q0 46 15.5 137.5t15.5 137.5q0 34 -29.5 68zM213 514q0 -65 20 -65h187q18 0 29 38q30 169 30 207v74q0 61 -41 61h-155q-36 0 -56 -137q-14 -98 -14 -178z" />
<glyph unicode="$" horiz-adv-x="705" d="M47 242q0 53 62 53q35 0 57 -57l22 -88q25 -52 84 -52q4 5 11 21v4q0 23 -10.5 67.5t-10.5 67.5q0 24 30.5 71t33.5 79q10 124 34 124l11 -4q10 -30 10 -82q0 -40 -29.5 -114.5t-29.5 -114.5q8 -20 18 -49h22q45 0 115 -10q-69 -23 -69 -52l2 -8h8q36 0 67 31.5t31 67.5 v274q0 55 -53 78q-14 6 -103 20q-16 2 -30 25q-22 29 -29 33q-162 110 -180 129q-66 70 -66 209q0 223 178 317q33 10 89 45h-39q39 45 102 45q35 0 92 -31q-37 -2 -106 -20q41 -16 116 -49h5q8 0 17.5 15.5t35.5 15.5q8 0 10 -11q-4 -14 -4 -30q0 -72 49 -86v38 q35 -8 35 -63q0 -4 -5 -14.5t-5 -16.5q0 -15 9 -44t9 -44q0 -53 -57 -53q-60 0 -70 98q-21 -6 -37 -76q-12 -53 -12 -90h-33q0 14 7.5 41t7.5 41q0 11 -5.5 32t-5.5 32q17 12 49 78v6q0 14 -27.5 29.5t-43.5 15.5q-27 0 -82 -5t-82 -5q-21 0 -44.5 -33t-23.5 -56v-235 q0 -27 30 -53.5t58 -26.5q7 0 21 2h20q23 0 37 -10q17 -16 53 -49q47 -29 117 -76q21 -14 80 -70v47q47 -36 47 -161q0 -180 -31 -271q-46 -136 -178 -192q-77 -33 -98 -33q-14 0 -29 4q2 -4 2 -8q0 -14 -26 -14q-17 0 -23 20q-8 27 -12 31q-17 7 -57 28q-148 96 -148 222z M135 344h4q27 0 27 -49l-2 -10q-21 10 -29 59zM281 377q6 41 28 41q-2 -45 -22 -45h-4zM283 831h67q6 -18 29 -47l-4 -2q-4 0 -4 2q-80 33 -88 47zM330 119q14 -10 41 -10l6 4l2 6l-49 18v-18zM399 262v12h19q-4 -12 -19 -12zM399 768q0 27 29 45v76q31 0 31 -47 q0 -12 -6.5 -34t-6.5 -34q0 -6 3 -20q18 -27 49 -29h-80q-19 14 -19 43zM410 440v11h8v-11h-8zM500 1262q0 -7 6 -9q8 0 8 7v4q0 8 -8 8q-6 -4 -6 -10zM516 1253l10 -10v10h-10zM555 1350v30h20v-30h-20zM555 1409v21h6q17 0 17 -21h-23zM596 1153q0 -8 8 -8h2q6 0 6 8v4 q0 8 -8 8t-8 -8v-4z" />
<glyph unicode="%" horiz-adv-x="961" d="M47 700v475q0 61 47.5 110.5t108.5 49.5q65 0 110 -52q43 -48 45 -114l12 6q0 -13 9 -42.5t9 -44.5v-406q0 -65 -26 -88v112q-7 -65 -50 -113q-47 -53 -109 -53q-61 0 -108.5 49t-47.5 111zM121 661l3 -2l2 2l-2 3zM124 1105q7 53 27 70v-552q2 -3 8 -6h6q4 4 11 12 q4 -3 8 -13q2 -5 16 -5q3 6 6 29q-6 17 -6 21q0 15 12 15q15 0 15 -53q0 -7 2 -12q53 16 53 47v559q-2 6 -11 20h-59l36 21q-12 6 -25 6h-27q-72 0 -72 -46v-113zM182 886v25q0 11 6 29q3 1 5 1q19 0 19 -30q0 -3 -3 -9t-3 -9v-18q0 -1 3 -8t3 -9q-4 -13 -9 -13 q-21 0 -21 41zM192 823h14v-13q-14 0 -14 13zM200 769v7h6v-7h-6zM206 456q0 15 8 15q10 0 10 -15v-6q0 -15 -10 -15q-8 0 -8 21zM206 494v6q3 9 12 24l-6 5h82q-8 -18 -38 -18q-6 0 -18 3t-18 3q4 -24 4 -23q0 -12 -12 -12q-2 3 -6 12zM344 78q0 17 2 28l216 1172 q11 61 43 61q24 0 24 -30v-11l-223 -1230q-5 -29 -35 -29q-27 0 -27 39zM577 200v475q0 61 47.5 110.5t108.5 49.5q65 0 110 -52q43 -48 45 -114l12 6q0 -13 9 -42.5t9 -44.5v-406q0 -65 -26 -88v112q-7 -65 -50 -113q-47 -53 -109 -53q-61 0 -108.5 49t-47.5 111zM651 161 l3 -2l2 2l-2 3zM654 605q7 53 27 70v-552q2 -3 8 -6h6q4 4 11 12q4 -3 8 -13q2 -5 16 -5q3 6 6 29q-6 17 -6 21q0 15 12 15q15 0 15 -53q0 -7 2 -12q53 16 53 47v559q-2 6 -11 20h-59l36 21q-12 6 -25 6h-27q-72 0 -72 -46v-113zM712 386v25q0 11 6 29q3 1 5 1q19 0 19 -30 q0 -3 -3 -9t-3 -9v-18q0 -1 3 -8t3 -9q-4 -13 -9 -13q-21 0 -21 41zM722 323h14v-13q-14 0 -14 13zM730 269v7h6v-7h-6zM736 0q3 9 12 24l-6 5h82q-8 -18 -38 -18q-6 0 -18 3t-18 3q4 -24 4 -23q0 -12 -12 -12q-2 3 -6 12v6zM736 -44q0 15 8 15q10 0 10 -15v-6 q0 -15 -10 -15q-8 0 -8 21z" />
<glyph unicode="&#x26;" horiz-adv-x="758" d="M-205 668v10q10 10 21 10q18 -8 145 -119q101 -88 168 -88q31 39 88 119v117l19 10q-91 168 -91 262q0 90 67 159t157 69q84 0 152.5 -61t68.5 -144q0 -65 -94.5 -190.5t-94.5 -176.5q0 -29 7 -39q11 -31 72.5 -128t82.5 -115.5t58 -18.5q22 0 60 25.5t44 25.5q5 0 10 -2 q-69 -124 -69 -168q0 -25 30.5 -75t30.5 -74q0 -25 -20 -25q-19 0 -65.5 40t-80.5 40q-47 0 -61 -20l98 -99v-10h-39q-39 39 -82 80q-20 0 -75.5 -26.5t-84.5 -26.5q-98 0 -174 90q-73 86 -73 186q0 23 14 66.5t14 66.5q0 16 -71 37q-32 9 -66 55q-2 -2 -6 -2q-15 0 -51 35 q-40 39 -49 45q-15 2 -39 10q-4 9 -21 50zM37 297v18q0 19 4 21q4 -8 4 -25v-12q0 -16 -4 -23q-4 -2 -4 21zM109 979v14q0 17 10 27v-78q-10 19 -10 37zM166 305q0 -63 27 -121q34 -73 90 -73h159l-98 96q-2 10 -2 14q0 23 12 27q12 -18 50 -55q42 -39 57 -43q6 -9 20 -21 l39 29v10q-10 8 -20 10v117l10 10l-137 215q-26 41 -68 41q-39 0 -79 -45t-40 -84v-8l60 -59q4 -3 8 -3q8 0 16.5 6.5t14.5 6.5q20 0 20 -15q0 -7 -5 -22t-5 -23q0 -2 5 -10t5 -10q0 -10 -26 -10h-9q-13 11 -84 80h-8q-6 -5 -10 -11q-2 -63 -2 -49zM244 981q0 -217 125 -217 q67 0 104 84q29 65 29 143q0 77 -27 110q-30 38 -104 38q-81 0 -107 -41q-20 -32 -20 -117zM248 401v5q0 8 8 8h2q6 0 6 -8v-5q0 -8 -8 -8t-8 8zM618 -8h23q0 -23 -23 -23v23zM664 -41l4 4l4 -4l-4 -6q-4 1 -4 6z" />
<glyph unicode="'" horiz-adv-x="260" d="M68 1232v166q0 13 22.5 26t36.5 13q57 0 57 -67q0 -59 -25 -94q-46 -65 -63 -65q-28 0 -28 21z" />
<glyph unicode="(" horiz-adv-x="371" d="M59 608q0 154 43 279v-195q12 67 45 240q33 159 97 209q12 -13 12 -47q0 -56 -11.5 -168t-11.5 -168v-369q0 -51 10.5 -153.5t10.5 -153.5q0 -31 -10 -53q-42 31 -90 215q-37 142 -52 243v-155q-43 125 -43 276zM104 922l5 4l4 -6l-4 -5z" />
<glyph unicode=")" horiz-adv-x="358" d="M111 96q0 90 11 269.5t11 269.5q0 78 -11 233.5t-11 233.5q0 10 2 35l10 10q67 -45 131 -412v295q28 -50 35 -129q2 -23 2 -137q0 -135 -49 -375q-56 -273 -119 -350l-10 10q-2 39 -2 47zM246 1063l2 14l2 2q4 -8 4 -16q0 -6 -4 -14l-2 4z" />
<glyph unicode="*" horiz-adv-x="651" d="M59 1077v4q0 23 79 57.5t79 65.5q0 23 -10 31q-51 27 -148 86v10q14 41 29 41l10 -2q117 -78 138 -78q9 1 43 4v211h83v-211q56 0 72 11q17 26 41 55q24 -11 23 -12l2 2q61 20 49 20q12 0 29 -41v-10q-52 -27 -148 -86q-10 -8 -10 -31q0 -30 79 -64t79 -63l-19 -39l-6 -2 q-88 45 -141 80h-50v-117q50 0 50 -41q0 -53 -88 -53q-7 0 -23 2h-22v209h-54q-75 -51 -137 -78q-2 -2 -4 -2l-4 2q-6 11 -21 39zM354 918q0 -7 8 -7q9 0 9 9q0 10 -9 10q-8 0 -8 -8v-4zM362 725v49h11q6 0 49 -10v-12q0 -15 -31 -15v-24q-22 6 -29 12zM379 1442v39 q43 0 43 -41q0 -21 -21 -21q-22 0 -22 23zM399 801q4 90 27 90q19 0 40 -18t21 -37q-17 0 -45.5 -17.5t-42.5 -17.5zM451 1556v11h10v-11h-10zM489 715l7 4l4 -4l-6 -4zM489 782v21h11v-21h-11zM510 754l4 4l6 -4l-6 -4zM524 1470q25 0 25 -28v-19q0 -10 -10 -14 q-7 4 -11 10q-2 17 -4 51z" />
<glyph unicode="+" horiz-adv-x="1083" d="M80 610q0 17 16 32t33 15h215v25q-44 0 -132 5t-132 5q31 0 133 6q82 5 135 2l-4 37q0 27 21 43h4q0 -47 24 -78l4 -2q17 2 31 21v323l14 -313l35 -29v304q0 16 15.5 32.5t31.5 16.5q41 0 41 -31v-328h230l-215 -14l18 -25h324q15 0 33 -14t18 -29q0 -22 -31 -45h-334 q-24 -18 -43 -43v-323q0 -31 -41 -31q-16 0 -31.5 16.5t-15.5 32.5v314l-39 30v-225l-16 225l-14 2q-27 0 -27 -78q-29 0 -33 29q2 -12 2 51h-241q-29 0 -29 41zM330 1012q45 0 45 -97q0 -30 -27 -30q0 21 -9 63.5t-9 63.5zM342 817q0 19 31 41q2 -4 2 -10q0 -31 -33 -31z M365 1034v49h12q0 -16 -6 -45zM365 1182q0 18 4 54t4 54q12 19 55 19q45 0 45 -25l-2 -4q-20 -2 -49 -10l-4 -4q-15 -27 -15 -111q0 -12 -14 -12q-24 0 -24 39zM373 123q8 22 20 31v-31h-20zM379 199q2 14 4 43q4 6 10 10q10 -4 10 -21q0 -32 -24 -32zM381 297q0 86 12 121 q10 -72 10 -90q0 -31 -22 -31zM393 664h21l-21 18v-18zM403 535l5 4l6 -4l-6 -5zM453 664h8l2 8h-8z" />
<glyph unicode="," horiz-adv-x="260" d="M68 -18v116q0 13 22.5 26t36.5 13q57 0 57 -67q0 -40 -24 -73q-26 -36 -64 -36q-28 0 -28 21z" />
<glyph unicode="-" horiz-adv-x="617" d="M-99 516v8l11 -8h-11zM-23 1149q0 18 2 29q6 18 43 18q0 -47 -45 -47zM0 555l4 4l6 -4l-6 -4zM37 696q0 64 59 64h393q58 -23 99 -82v-6q-11 -10 -48.5 -24.5t-50.5 -14.5h-393q-59 0 -59 63zM45 510l4 6l4 -6l-4 -4zM67 535l7 4l4 -4l-7 -5zM172 504q0 53 71 53v-39 q-13 0 -36 -7t-35 -7zM563 1098l4 6l4 -6l-4 -4zM647 760v10h8v-10h-8zM743 662h25q0 -44 -15 -58q-10 31 -10 58zM782 727v31q1 8 2 12q12 10 31 10q45 0 45 -73q-78 4 -78 20zM811 631q0 35 35 35q0 -35 -35 -35z" />
<glyph unicode="." horiz-adv-x="240" d="M59 47l9 51q2 12 24 25.5t35 13.5q59 0 59 -65q0 -37 -10 -49q-18 -15 -39 -31q-8 0 -23.5 3t-23.5 3q-15 0 -24.5 17t-6.5 32z" />
<glyph unicode="/" horiz-adv-x="465" d="M104 78q0 17 2 28l216 1172q11 61 43 61q24 0 24 -30v-11l-223 -1230q-5 -29 -35 -29q-27 0 -27 39z" />
<glyph unicode="0" horiz-adv-x="671" d="M47 246v792q0 103 79 185t181 82q108 0 183 -86q71 -81 75 -191l20 10q0 -22 14.5 -71t14.5 -74v-676q0 -108 -43 -147v186q-12 -107 -83 -188q-77 -88 -181 -88q-102 0 -181 81.5t-79 184.5zM170 182l4 -4l4 4l-4 4zM174 922q12 88 45 116v-919q4 -6 14 -10h10 q6 6 19 20q6 -6 12 -23q4 -8 27 -8q6 11 10 49q-10 29 -10 35q0 25 20 25q25 0 25 -88q0 -13 4 -21q88 27 88 78v932q-4 10 -19 33h-98l60 35q-19 10 -41 10h-45q-121 0 -121 -76v-188zM272 557v41q0 18 10 49q3 2 8 2q31 0 31 -51q0 -4 -5 -14.5t-5 -14.5v-30q0 -3 5 -14 t5 -15q-6 -21 -14 -21q-35 0 -35 68zM288 451h23v-21q-23 0 -23 21zM301 362v11h10v-11h-10zM311 -86q6 14 20 39l-10 8h137q-14 -29 -63 -29q-10 0 -29.5 4.5t-30.5 4.5q7 -39 7 -37q0 -21 -21 -21q-3 5 -10 21v10zM311 -160q0 25 14 25q17 0 17 -25v-10q0 -25 -17 -25 q-14 0 -14 35z" />
<glyph unicode="1" horiz-adv-x="417" d="M17 1139l2 10q19 25 74 63.5t74 67.5q0 55 -78 55q45 60 92 60q39 0 45 -90q13 2 23 2q84 0 84 -41v-1246q0 -13 -23 -25.5t-37 -12.5q-12 0 -36 13q-27 15 -27 25v160q-6 -4 -14 -2l-25 19v944q-61 8 -53 8q-47 -23 -78 -39q-23 8 -23 29z" />
<glyph unicode="2" horiz-adv-x="631" d="M51 63q1 0 2 27l244 479q1 6 8 31q5 18 22 27q-12 6 -14 73q33 0 43 -24q88 153 88 319v92q0 34 -32 66.5t-66 32.5q-7 0 -21 -5t-22 -5q-6 0 -17 5t-18 5q-29 0 -48.5 -42t-39.5 -38q0 -127 -68 -127q-59 0 -59 49q0 182 215 275v88q4 10 20 20q13 -6 29 -20v-76l10 -2 q27 10 78 28q47 -10 68 -34h-107q110 -63 158 -153q42 -78 53 -214v254q35 -53 35 -135q0 -99 -80 -256l-264 -518v-97l29 -34h264q28 0 39 -25q-15 -25 -47 -29q18 -37 18 -49q0 -15 -12 -37t-27 -22h-440q-41 0 -41 71zM247 858q0 29 35 29l2 -19q0 -37 -20 -37q-4 0 -6 3 q-11 18 -11 24zM284 1116q0 23 33 23v-23h-33zM297 922v22q0 27 30 27q6 0 15 -2q4 -8 4 -19v-186q0 -6 -6 -8l-13 -2q-6 0 -10 2q-20 82 -20 166zM297 999v11h10v-11h-10z" />
<glyph unicode="3" horiz-adv-x="624" d="M40 242q0 63 59 63q54 0 64 -76q12 -88 55 -114q28 -17 123 -17q31 0 41 21h-10q-31 0 -78 35h129v354q-48 0 -140 -33t-141 -33q-7 0 -11 10l-3 9q0 16 10 20q47 8 137 29q45 18 138 49q-12 19 -80 49q-58 26 -58 60q0 30 45 51q5 3 72 26q6 15 31 39v344q0 60 -123 60 q-88 0 -117 -53q-6 -17 -24 -101q-11 -53 -60 -53q-59 0 -59 63q0 101 80 182t180 81q77 0 137 -54q25 -22 98 -114v88q46 -6 46 -176q0 -157 -52 -256q-6 -12 -49 -60q-28 -32 -28 -67q0 -70 59 -70q13 0 187 69.5t253 69.5q39 0 39 -20q-4 -6 -10 -10q-63 -13 -205 -74 q-129 -56 -207 -64q13 -26 13 -127q0 -171 -56 -297q-73 -165 -223 -165q-106 0 -184 78t-78 184zM157 322v18q0 12 10 14q20 -14 20 -59v-49q-30 41 -30 76zM304 1333q4 9 28.5 20t35.5 11q51 0 63 -31h-127zM525 545l4 -4l4 4l-4 6z" />
<glyph unicode="4" horiz-adv-x="712" d="M-25 393q15 56 43 137v-118q22 -31 45 -31q14 0 20 22l244 842q17 58 67 58q41 0 41 -50q0 -18 -252 -870h144l35 29v313q4 10 24 31q10 -11 25 -31v-313l39 -29v274q0 39 63 39q64 0 64 -39v-313q0 -8 47 -39t47 -53q0 -21 -8 -31q-29 -14 -72 -53q-8 -12 -16 -109 q-6 -67 -62 -67q-49 0 -61 49q-2 13 -6 88q-3 49 -31 49l-29 -31q-2 3 -30 46h-254q-45 30 -45 86q0 16 6 55q-98 20 -88 59zM20 563q0 6 4 6l4 -6l-4 -4zM30 594l4 4l4 -4l-4 -6zM38 633l4 4l4 -4l-4 -4zM48 662l4 6l5 -6l-5 -5zM59 692l4 4l4 -6l-4 -4zM69 731l4 4l4 -6 l-4 -4zM79 760l4 4l4 -4l-4 -4zM87 795q0 8 4 10q4 -6 4 -12l-4 -9q-4 2 -4 11zM97 827q0 7 5 7l4 -7l-4 -4zM112 852v20q0 7 10 29v-18q-4 -15 -10 -31zM130 922v18l119 408v-35zM200 334l18 -19h129q-20 19 -30 19h-117z" />
<glyph unicode="5" horiz-adv-x="660" d="M-155 389v6q0 47 24 47q21 0 21 -24q0 -29 -45 -29zM-92 362v70q41 21 166 64q135 47 166 47v-43q-55 -25 -166 -68q-43 -8 -121 -41q-18 -12 -37 -37zM35 793v520q0 12 22 25.5t35 13.5h295q31 0 39 -21l-20 -14h-314q-39 -27 -39 -43v-432q0 -21 35 -39v461 q0 10 26 24.5t38 14.5h373q59 0 59 -54q0 -19 -11 -37q-13 -22 -30 -22h-313q-39 -27 -39 -45v-352q0 -39 59 -39q26 0 75 20.5t75 20.5q20 0 64 -26t61 -26q20 0 106 91q2 49 14 141q7 6 15 6h12q6 -6 29 -100h4q10 0 35 49l18 176h25v-84l6 -2l8 -2l20 20q7 2 11 2 q22 0 22 -47q0 -11 -2 -31.5t-2 -31.5q-31 -40 -141.5 -105t-151.5 -120v-5q0 -17 14.5 -50t14.5 -50v-379q0 -92 -82.5 -166.5t-175.5 -74.5q-83 0 -165 70q-85 72 -85 153q0 43 53 43q37 0 58 -45l26 -58h88q-20 -10 -49 -34q16 -11 78 -11q127 0 127 70v416 q0 -117 -6 -185q-13 -147 -47 -153v319q-20 0 -61 -32.5t-62 -32.5q-10 24 -10 67q0 66 10 90h20q0 -45 29 -59q43 12 56.5 25.5t13.5 54.5q0 14 -11 18h-55q-40 0 -103 -34.5t-81 -34.5q-49 0 -60 59q-4 22 -4 98h-10q-14 -10 -25 -10h-4q-10 8 -10 19zM279 834l2 2h24 l4 -2q-8 -5 -16 -5q-6 0 -14 5zM756 813q0 14 12 21q13 -7 13 -21h-25zM795 834q0 12 12 18q12 -6 12 -18h-24z" />
<glyph unicode="6" horiz-adv-x="659" d="M-119 270q0 17 29 17q38 0 49 -21l-43 -28q-21 0 -35 32zM-72 373q0 20 37 20q41 0 63 -20l33 80v-80l16 10q9 106 9 147l264 705q26 68 78 68q41 0 41 -58l-168 -450v-15q0 -35 30 -55q145 -4 210 -78q61 -70 61 -217q0 -58 -2 -113l-4 -110q32 -12 96 -29 q24 -3 129 -16q67 -19 67 -94q-10 0 -29 6t-30 6q-29 0 -29 -35q0 -14 21 -106q-6 -11 -54 -40.5t-65 -33.5q-20 8 -20 69q0 20 34.5 37t34.5 21q0 16 -10 20h-68q-3 8 -31 38.5t-28 35.5q0 14 31 14q10 0 27 -9t26 -9q0 33 -42 52q-35 12 -71 24h-10q-76 -176 -242 -176 q-87 0 -159 64t-88 151q-3 49 -5 57q-5 34 -20 51v-254q-39 49 -43 131q2 -37 2 144h-22v-41q-21 4 -45.5 35t-24.5 53zM63 475q0 6 4 6l4 -6l-4 -4zM166 -68h145q-57 -28 -74 -28q-14 0 -71 28zM204 176q0 -78 131 -78q62 0 74 11v118q-43 11 -98 39v4q0 17 31 17 q13 0 34.5 -11.5t32.5 -11.5v217q39 -25 47 -108l13 -127v297q0 86 -134 86q-79 0 -122 -60l98 -14h-107v-229q0 -13 39 -17t39 -18q0 -17 -28 -17q-31 0 -50 11v-109zM331 549l4 4l7 -4l-7 -4zM362 530q0 11 8 11q9 0 9 -11h2q10 -10 11 -10q5 0 5 -10q10 0 10 -10 q0 -8 -8 -8t-8 8h-2q-9 10 -8 10q-9 0 -9 10q-10 0 -10 10zM458 158l11 30l-4 7l-7 2v-39z" />
<glyph unicode="7" horiz-adv-x="586" d="M34 1274v117q28 39 59 39h313q22 0 41 -15.5t19 -36.5q0 -11 -6 -32.5t-6 -32.5q98 -25 98 -49v-107l-313 -1106q-17 -59 -70 -59q-14 0 -30.5 11t-16.5 24v4l303 1056q2 7 2 27q0 39 -12 51l-19 -8q0 29 -10 29h-205q-28 0 -44 -75t-50 -75q-27 0 -43 33q0 34 -5 102.5 t-5 102.5zM52 1298q0 -6 2 -14l47 25h318q0 82 -41 82h-287q-39 0 -39 -70v-23zM124 203l252 846l-123 -445q-100 -362 -129 -401zM386 1087v21q0 6 10 29v-21q-4 -12 -10 -29z" />
<glyph unicode="8" horiz-adv-x="610" d="M-100 1079q0 15 27.5 39t44.5 29q0 -21 -7 -55l-6 -5q-12 3 -24 11v-43q-35 4 -35 24zM-90 901v31h35q0 -31 -35 -31zM-71 756h10v-11zM-63 629q0 18 22 18q6 0 11 -6v-12q0 -21 -11 -21q-22 0 -22 21zM-61 545q0 18 28 18v-37q-28 0 -28 19zM-53 494q14 0 20 -13l-8 -10 q-12 4 -12 23zM-51 578v12h18q-4 -12 -18 -12zM-26 731l4 4l4 -4l-4 -6zM-16 782q0 35 37 35q0 -35 -37 -35zM27 854v8q0 286 125 398q50 45 178 45q4 0 15 -5.5t16 -5.5q8 2 18 11h6q18 0 18 -11q-1 -5 -3 -10q34 -33 96 -104q10 -19 26 -23v88q46 -6 46 -151 q0 -168 -31 -260q-7 -22 -41 -78q-29 -48 -29 -82q0 -49 55 -105v99q46 -62 46 -191q0 -177 -31 -299q-21 -84 -91 -141t-155 -57q-164 0 -221 159q-35 97 -35 295q0 57 42 139t42 107q0 42 -33 90q-17 23 -59 84zM164 168q0 -70 127 -70q100 0 119 60h-10q-9 0 -25 -5.5 t-25 -5.5q-63 0 -67 35h135v377q0 80 -127 80q-113 0 -113 -41v-313h-14v-117zM164 840q0 -115 68 -115h121q19 0 42 24.5t23 43.5v315q0 13 -15.5 34t-27.5 25q-6 -2 -35 -20l-4 2v45q-54 -2 -83 -8q-52 -11 -68 -39v-117q15 4 64.5 46t55.5 42q27 0 27 -14q0 -39 -45 -64 l-74 -41q-12 -22 -49 -57q10 -4 10 -24q0 -23 -10 -25v-53zM170 870q0 35 58 35q0 -35 -58 -35zM223 795v28q21 -4 29 -18zM260 922h25q0 -15 -12 -19q-13 2 -13 19zM283 1358q20 24 67 35q11 -4 29 -11l14 2q0 91 25 164q2 6 10 11h15q26 0 26 -15q0 -28 -22 -110 q-25 -93 -43 -93q-25 0 -25 17h-96zM346 975q0 6 4 6l5 -6l-5 -4zM379 981q6 12 21 12v-24q-15 0 -21 12zM449 1305v18h18v-18h-18z" />
<glyph unicode="9" horiz-adv-x="644" d="M59 754v313q0 92 79 164t171 72q84 0 156 -60q66 -54 98 -137v137q43 -41 43 -176q0 -90 -22 -188q-9 -41 -45 -183l-244 -645q-22 -59 -70 -59q-37 0 -45 16q-4 8 -4 33l158 420v78l-21 20q-103 0 -172 45q-82 53 -82 150zM176 743q0 -20 25.5 -48.5t44.5 -28.5h127 q8 0 57 49l-70 2q-57 2 -65 22h145v369q0 37 -42 59q-35 19 -76 19h-31q-80 0 -80 -31v-332q-31 35 -35 78v-158zM211 807q0 6 4 6l4 -6l-4 -4zM217 793q0 10 8 10t8 -8v-4q0 -7 -8 -7t-8 9zM266 743q0 11 8 11q9 0 9 -9v-4q0 -6 -9 -6q-8 0 -8 8zM313 1350q47 30 74 30 t74 -30h-148z" />
<glyph unicode=":" horiz-adv-x="252" d="M72 92q0 64 61 64q57 0 57 -64q0 -63 -57 -63q-61 0 -61 63zM74 537q0 59 61 59q55 0 55 -59q0 -60 -55 -60q-61 0 -61 60z" />
<glyph unicode=";" horiz-adv-x="260" d="M68 -18v116q0 13 22.5 26t36.5 13q57 0 57 -67q0 -40 -24 -73q-26 -36 -64 -36q-28 0 -28 21zM68 518q0 60 61 60q55 0 55 -60q0 -59 -55 -59q-61 0 -61 59z" />
<glyph unicode="&#x3c;" horiz-adv-x="629" d="M55 460q0 57 157 149q99 72 308 218h55q0 -15 4 -50q8 -32 -16 -49l-248 -176q-107 -49 -107 -92l4 -4q101 -73 207 -168q156 -138 156 -187q-87 0 -260 131q-115 87 -207 152q-53 27 -53 76z" />
<glyph unicode="=" horiz-adv-x="905" d="M66 596q0 33 73 37q-43 -2 129 -2q6 24 25 24q22 0 18 -24h473q16 0 38 -30.5t36 -27.5l-55 -12h-510q-6 -6 -17 -18h-8q-10 8 -18 18h-160l-22 25q-2 6 -2 10zM66 895q0 37 170 37q-9 8 -9 47q0 -14 -10 104l-8 9v59l18 20l-18 11q0 37 -14 59h16q0 11 -13.5 36.5 t-13.5 41.5q18 0 43 -24t25 -42q0 -8 -5 -24.5t-5 -24.5q0 -38 12 -140q13 -105 22 -136h508q18 0 39 -27.5t35 -26.5q-24 -10 -139 -14q-61 -2 -219 0l-156 2q-18 0 -18 -53q0 -10 5 -29.5t5 -29.5q-23 -2 -53 10l18 76l-18 26h-193q-24 25 -24 33zM227 362q4 11 15 11v-19 h-2q-11 0 -13 8zM242 408v6q4 10 8 16h4q14 0 14 -16q0 -15 -12 -15h-6zM330 678h22q0 -10 -8 -25q-12 6 -14 25zM330 705q2 32 16 32h6q4 -6 6 -16l2 -2q0 -14 -26 -14h-4zM854 573z" />
<glyph unicode="&#x3e;" horiz-adv-x="629" d="M55 777q4 35 4 50h55q209 -146 309 -218q156 -92 156 -149q0 -49 -53 -76q-92 -65 -207 -152q-173 -131 -260 -131q0 49 157 187q106 95 207 168l3 4q0 43 -107 92l-248 176q-24 17 -16 49z" />
<glyph unicode="?" horiz-adv-x="692" d="M74 1049q0 179 227 256q76 26 115 26q10 0 69 -33h-79q169 -110 176 -221q2 -33 2 -92q0 -119 -37 -197l-107 -170v-137q-10 -16 -24 -30l-19 20q0 -137 -69 -137q-60 0 -60 82q0 96 74 221q102 173 115 209q8 22 8 26v226q0 88 -137 88q-24 0 -58.5 -40t-58.5 -40 l-10 10q0 -137 -66 -137q-61 0 -61 70zM268 53q0 56 60 56q59 0 59 -56q0 -61 -59 -61q-60 0 -60 61zM393 506l4 -6l6 4l-6 6zM412 115l4 4l4 -6l-4 -4zM602 911v275q31 -51 31 -129q0 -80 -31 -146z" />
<glyph unicode="@" horiz-adv-x="1501" d="M20 -225q5 10 21 10l12 -4q6 -6 6 -12v-5q-10 -10 -18 -10q-12 8 -21 21zM47 -324q0 33 23 33v-33h-23zM78 600q0 286 212 494.5t498 208.5q209 0 310 -80q37 -30 73 -49q120 -65 190.5 -188.5t70.5 -262.5q0 -74 -17 -133q-37 -129 -149 -250q-125 -135 -242 -135 q-102 0 -133 108q-5 0 -14 2h-15q-36 0 -151 -86q-29 -22 -123 -34q-6 -11 -43 -25v45q-8 -2 -19 -12q0 33 -45 33q11 -5 13 -43l-23 2q-4 6 -10 10h-10v-10q-2 -21 18 -21q3 2 31 12q20 -4 20 -39q0 -41 -20 -41q-11 0 -24 13.5t-27 13.5q-3 19 -7 33q-8 2 -20 10v29 q-6 2 -21 10l2 21q0 20 -12 40.5t-12 28.5q9 0 26.5 -6t26.5 -6q-59 104 -59 186q0 131 63 259q66 135 172 202v4q0 8 -10 16.5t-10 18.5q0 18 78 57l12 -8q-2 8 -2 -31l10 -8q64 19 107 19q50 0 69 -19l117 -119h88q10 25 31 70h49q-168 -471 -168 -584v-43q16 -10 41 -34 v-3q-1 1 -4 -8l-6 -4h39q151 0 227 170q57 128 57 301q0 72 -2 86q-26 180 -198 283q-153 92 -345 92q-272 0 -442 -168t-170 -440q0 -262 148 -393q12 12 30 12q5 0 8 -2q49 -49 52 -53q0 -5 -21 -25q154 -109 498 -109q17 0 50 10.5t50 10.5q6 0 15 -2l4 -19q83 27 127 50 q8 4 90 71q60 49 96 49h14q10 -2 15 -2q-232 -266 -564 -266q-247 0 -475 168q-4 -12 -41 -14q0 18 23 32q-217 230 -217 494zM88 -207q0 21 16 21q13 0 34.5 -17.5t21.5 -29.5q0 -31 -17 -31q-10 0 -16.5 20.5t-32.5 20.5q-6 0 -6 16zM137 -119h10v-8h-10v8zM147 -313 q5 6 11 18q6 2 12 2h14q43 0 43 -39q0 -33 -22 -33q-21 0 -19 31q-2 -6 -8 -10h-12q-19 -2 -19 27v4zM158 -158h18v-18h-18v18zM197 -254h20v-20h-20v20zM236 -186q0 20 20 20q18 0 29 -20q-15 -21 -29 -21q-20 0 -20 21zM274 -141q0 16 31 16v-35q-31 0 -31 19zM313 244v6 q0 16 33 16q0 -33 -16 -33q-8 0 -17 11zM334 338v4q4 6 10 10h8q13 -8 21 -20q-4 -10 -21 -10l-9 5q-9 5 -9 11zM360 264h23v-33q-23 0 -23 33zM481 391q27 -42 70 -57q19 -7 90 -10q14 -1 42 -16t38 -15q92 0 176 162q74 142 74 245q0 122 -53 158q-40 27 -170 27 q0 -45 -23 -45q-16 0 -18 12q-19 -31 -39 -31q-21 0 -31 21q-19 -15 -37 -35q41 0 52 -3q26 -7 26 -38q0 -53 -31 -53q-49 0 -49 92q-117 -123 -117 -213v-201zM510 616v19h20v-19h-20zM528 459q0 20 11 20q22 0 22 -20q0 -19 -22 -19q-7 0 -9 9zM547 655q0 13 12 29 q12 -4 12 -29h-24zM565 483q0 19 8 52l5 4h88q0 -56 -101 -56zM586 1079q32 0 32 -18v-4l-10 -10h-6q-16 0 -16 32zM606 557q0 21 17 21q16 0 16 -21h-33zM618 451v8h9v-8h-9zM627 1464v43l10 11h6q35 0 35 -58q0 -43 -27 -43q-24 0 -24 47zM645 649q0 37 17 37q9 -4 24 -10 q10 2 25 10q10 -2 14 -20q-4 -7 -10 -21q4 -6 10 -18q-6 -23 -39 -23q-41 0 -41 45zM676 469v20h20v-20h-20zM676 1145q0 20 20 20q41 0 41 -20q0 -21 -37 -21q-24 0 -24 21zM686 -246q0 13 29 13q30 0 30 -13q0 -20 -26 -20h-8q-25 0 -25 20zM686 1581q0 14 21 14l12 -2 q6 -6 6 -12t-6 -12l-12 -4q-21 0 -21 16zM692 1319q0 12 10.5 36.5t12.5 33.5q4 2 10 2q13 0 28 -31q13 -26 15 -43q-10 2 -33 4l-10 10q-6 -4 -33 -12zM696 1655v18h19v-18h-19zM696 1751h19v-12q-10 0 -19 12zM715 -352q8 12 22 12q0 -18 -12 -22zM715 440l10 11 q12 -9 12 -23q-14 0 -22 12zM715 557v10h20v-10h-20zM729 711q0 18 16.5 36.5t16.5 34.5h26q0 -24 -18 -47.5t-41 -23.5zM731 799q0 32 19 32h4l6 -4l4 -6v-4q0 -18 -33 -18zM735 1524v32h10l13 -2q6 -6 6 -12q0 -18 -29 -18zM754 557v10l10 11h10l10 -11v-10l-10 -10h-10z M764 1458q0 39 43 39l2 -31v-10q0 -31 -14 -37h-7q-24 0 -24 39zM772 -158h31v-22q-31 0 -31 22zM784 137v19h11v-19h-11zM803 725v8h10v-8h-10zM840 -156q16 0 22 -10l-10 -10q-12 6 -12 20zM862 1409v21h21v-21h-21zM881 -123l6 10l4 4q12 -4 14 -30q-24 0 -24 16z M907 729l4 4l4 -4l-4 -4zM942 6q0 -6 8 -6t8 8q0 10 -8 10t-8 -8v-4zM989 274l4 -4l6 4q0 5 -6 5zM1028 39l6 4l4 -4l-6 -4z" />
<glyph unicode="A" horiz-adv-x="770" d="M57 59q0 18 2 27l265 1186q9 41 55 41q39 0 53 -31q6 43 25 49q13 -6 39 -109q24 -96 24 -126h-45l123 -539q7 -1 20 -80q19 31 19 98q4 -16 25 -94q14 -53 14 -92v-8l-39 29v-39l70 -328q0 -11 -16 -23t-27 -12q-46 0 -66 60q-10 49 -20 96q-14 -8 -50.5 -64.5 t-50.5 -64.5q-26 0 -26 51q0 23 10 67t10 66q0 53 -20 74h-215q-15 0 -28 -66q-14 -71 -32 -82q-20 -137 -78 -137q-41 0 -41 51zM182 195q0 -9 4 -11l4 9q0 6 -4 12q-4 -2 -4 -10zM193 233q0 -8 4 -10l4 10l-4 11q-4 -2 -4 -11zM246 459q10 22 28 108q7 -108 50 -108h127 q10 18 30 49h4q0 -6 3.5 -17t3.5 -16q0 -8 -21 -16h14q11 0 21 4q8 15 4 35l-78 422q-11 57 -55 57q-40 0 -53 -68l-78 -401v-49zM473 573v5q0 8 8 8q6 -4 6 -11q0 -6 -6 -8q-8 0 -8 6zM508 172q14 0 61 41q0 47 -41 70q-20 -62 -20 -111zM541 221v4q0 8 8 8h2q6 0 6 -8v-4 q0 -8 -8 -8t-8 8zM596 874q0 27 22 35v76q29 0 29 -47q0 -24 -8 -51q-11 -37 -27 -37t-16 24zM598 772q0 21 14 21l6 -2q11 -9 29 -29q-4 -14 -14 -21q-35 0 -35 31zM625 1008q0 14 6 41t6 41q0 9 -5 27.5t-5 27.5q0 8 21 38l28 40h35q0 -39 -25 -108q-27 -72 -29 -107h-32z M676 1282q0 12 20.5 29t20.5 28q0 5 -2 11q-20 27 -21 32q0 17 25 17q26 0 26 -39q0 -23 -11 -59q-12 -40 -27 -50q-31 0 -31 31zM682 350q1 5 4 10q4 -4 4 -10l-4 -8q-4 1 -4 8zM692 301q1 5 4 10q4 -4 4 -10l-4 -8q-4 1 -4 8zM702 258l3 12l2 2q4 -8 4 -14t-4 -14l-2 4z M711 209l2 12l2 2q4 -8 4 -14t-4 -14l-2 4zM721 174q0 8 4 10q4 -4 4 -10l-4 -10q-4 2 -4 10zM745 1448v29h19v-29h-19zM745 1505v21h5q16 0 16 -21h-21z" />
<glyph unicode="B" horiz-adv-x="791" d="M74 39v1155q0 15 29.5 29t34.5 18q12 10 16 33q10 53 47 65q10 2 88 2q147 0 227 -28q114 -40 164 -150q29 -64 29 -78v-165q0 -29 -53.5 -102.5t-53.5 -133.5q117 -129 117 -283q0 -403 -522 -403h-43q-56 2 -41 2q-39 16 -39 39zM123 78l29 -29v10q0 95 -5.5 284 t-5.5 284q-18 -21 -18 -31v-518zM123 705q0 -9 18 -29v508q-18 -21 -18 -29v-450zM279 186l30 -30h185q108 0 108 245v127q0 60 -50 100q-46 38 -108 38q-10 -19 -8 -39q-22 10 -53 10h-76q-10 0 -18 -2l-10 -8v-441zM279 811q0 -10 14 -24.5t24 -14.5h168q41 0 79 41.5 t38 83.5v190q0 45 -41.5 90.5t-85.5 45.5h-158q35 -11 50 -25h-88v-387zM317 666q17 -4 35 -4h21q18 0 33 4q-1 2 -9 4h-51q-27 0 -29 -4zM524 176v4q0 45 4 135.5t4 135.5q21 -29 21 -107v-29q0 -90 -29 -139zM532 842v184q21 -29 21 -92q0 -64 -21 -92z" />
<glyph unicode="C" horiz-adv-x="750" d="M46 469v590q0 106 49 182v-969q-49 31 -49 197zM114 346v678q0 211 225 319h-127q35 35 78 35q17 0 44 -12q35 -16 44 -18q139 -37 209 -91q94 -72 94 -198q0 -45 -57 -45q-53 0 -64 63q-14 80 -35 94q2 -6 2 -14q0 -10 -12 -14q-20 12 -35 55q-8 23 -82 23 q-157 0 -157 -138v-829q0 -14 15 -46t26 -38h88l-41 -25l10 -10q39 -2 47 -2q104 0 143 53q10 13 35 103q15 53 60 53q49 0 49 -66q0 -101 -85.5 -180.5t-187.5 -79.5q-132 0 -212 101q-74 94 -74 229zM495 303v16q0 37 20 41v-12q0 -26 -18 -55q-2 4 -2 10z" />
<glyph unicode="D" horiz-adv-x="799" d="M-136 780q0 50 60 76q80 35 90 45q25 25 74 57v345q0 40 151 47q-10 18 -10 26q0 15 20 15t20 -20q0 -5 -1 -11q55 6 106 6q117 0 148 -39h-68q35 -22 166 -153h4q28 0 82 24.5t80 24.5l6 -2l4 -7q2 -2 2 -6q0 -24 -45 -36.5t-45 -34.5q0 -61 5 -181.5t5 -181.5v-291 q0 -123 -45 -190v852q-24 -6 -24 -41q0 -19 5 -57.5t5 -57.5v-602q0 -131 -68 -237q-77 -121 -202 -121h-258q-17 0 -43 39v800q-34 0 -110.5 -44t-113.5 -44zM209 1620q0 35 30 35h8q21 -10 21 -68q0 -7 -5 -21t-5 -20q0 -14 10 -40t10 -40q0 -34 -20 -57h-11 q-10 10 -28 31q4 6 10 18q-4 6 -10 21q4 6 10 18v4q0 20 -10 59.5t-10 59.5zM215 299q0 -129 2 -133q6 20 6 166v465q0 151 -6 161q-2 -24 -2 -139v-520zM215 1028q0 -30 4 -31q4 19 4 66v55q0 64 -4 66q-4 -4 -4 -29v-127zM221 154q0 -9 8 -9h2q6 0 6 9v4q0 8 -8 8t-8 -8 v-4zM278 195q0 -11 14.5 -25t24.5 -14h137q30 0 55 44q23 40 23 72v824h-10q-105 -43 -215 -107l10 -49l10 18l11 -18q0 -30 8 -90t8 -90q-37 0 -49 12q-6 6 -27 49v-626zM284 1194q0 -147 29 -147q24 0 105 41.5t96 60.5v6q-47 52 -84 64q-23 8 -109 8h-37v-33zM356 733 q4 6 10 10h4q25 0 25 -49v-10q-39 21 -39 49zM403 678q12 0 23 -12l-11 -11q-12 4 -12 23z" />
<glyph unicode="E" horiz-adv-x="657" d="M80 70v1230q12 17 77.5 47.5t88.5 30.5h293l20 -14h-303l-20 -21h294q17 0 38.5 -19t21.5 -36q0 -19 -11 -38q-13 -23 -30 -23h-303q-13 -8 -29 -25v-381l29 -35h243l21 -18h-166v-14q197 0 197 -64q0 -17 -12.5 -38t-28.5 -21h-254q-13 -8 -29 -25v-381q0 -30 57 -30 q23 0 31 2q4 18 14 20q13 -6 25 -27h195l30 -14l-10 -14h-215l186 -15q60 -5 60 -57q0 -65 -41 -65h-211v-162q-6 -10 -29 -13v160l-14 15h-176q-39 26 -39 45zM236 156q8 -4 28 -4h12q21 0 29 4q-3 4 -24 4h-21q-23 0 -24 -4zM236 754h69v12q-55 0 -69 -12zM311 301 q0 12 13 31l6 -2l4 -6v-9q0 -14 -23 -14zM313 -207q0 8 11 12q12 -4 12 -30q0 -27 -12 -29q-11 2 -11 12v35zM315 244v20h19v-20h-19zM315 506v33h9q8 -11 10 -21q-4 -10 -19 -12zM352 -14q2 10 21 14l2 -10v-10q-6 -7 -13 -9l-4 4zM373 205v137h20v-137h-20zM373 381v70h20 v-82q-20 4 -20 12zM373 500v8q4 6 10 10q6 -4 10 -10v-8q-4 -6 -10 -11q-6 5 -10 11zM373 582v12q0 22 16 22q14 0 14 -28q0 -31 -14 -31q-16 0 -16 25zM432 850l4 4l6 -4l-6 -4z" />
<glyph unicode="F" horiz-adv-x="702" d="M-200 946v33h22q0 -33 -22 -33zM-200 1096v28l4 2q18 0 18 -30h-22zM-180 891v29h6q17 0 17 -29h-23zM-102 850v20h29v-20h-29zM-102 1155q4 6 10 8h117q1 0 10 -4t14 -4q8 1 29 8v197q35 45 64 45h184q0 8 -5 22.5t-5 22.5q12 0 24 -2l10 -10q13 -31 31 -35h51 q50 0 62 -23l-49 -24q0 -3 2 -6q196 0 196 -62q0 -19 -12 -37q-12 -22 -29 -22h-186q-10 -47 -43 -55v45l-74 4h-2q-41 0 -41 -93q0 -8 4 -102l19 -20v-70l-19 -18v-134h166l21 -14q-13 -29 -168 -29l20 -14h254q17 0 29 -23q12 -19 12 -38t-20 -38.5t-39 -19.5h-246 l-35 -32v-521q0 -10 -26 -24.5t-37 -14.5q-12 0 -38 15t-26 24v127q-8 -8 -22 -8q-17 0 -27 19v518h-8q-29 0 -29 20q0 23 33 21v348q-7 0 -20 -3t-19 -3q-18 0 -42 18q-27 19 -36 21q10 -2 -30 -2q-29 0 -29 22zM-84 1331v10q4 5 17 11q3 -2 14 -11v-10q-4 -6 -10 -10h-10 q-7 4 -11 10zM-63 842l4 6q11 4 10 4q15 0 38.5 -27t23.5 -43h-27zM-45 1446q0 17 35 39t55 22q-2 -23 -26.5 -51.5t-46.5 -28.5q-17 0 -17 19zM131 1317l2 -6q17 16 65 27t62 22q-6 0 -22 2h-23q-84 0 -84 -45zM211 1477v10l4 6l6 4q39 -22 39 -35q0 -14 -20 -14 q-10 0 -17 6zM250 1526l4 6l6 4h11q30 -25 30 -43q-51 0 -51 33zM279 1430v18h10v-18h-10zM309 1350h19l-4 6l-6 4h-9v-10zM338 803v28h21v-28h-21zM367 1350h49q-2 12 -29 12l-20 -2v-10zM375 850q0 68 47 68q0 -16 -16.5 -33t-16.5 -35h-14zM396 1130q1 4 10 15h10 q6 -4 10 -10v-11l-4 -4q-12 -6 -10 -6q-14 0 -16 16zM434 944q13 43 37 53h4q7 -4 11 -10v-4q0 -6 -14.5 -28.5t-20.5 -26.5q-8 2 -15 10zM453 1163h33v-30q-33 0 -33 30z" />
<glyph unicode="G" horiz-adv-x="802" d="M-93 74q0 45 62 45l8 -2l-19 -19q2 -6 11 -10q6 4 18 10q4 -2 20 -20h5q10 0 16.5 41.5t17.5 46.5q19 -21 19 -88h24v119l17 8l8 -8q2 -50 20 -119h11q8 41 8 80q0 52 -34 150.5t-34 150.5v661q0 64 43 123v-186q27 116 102 195q85 89 197 89q110 0 201 -82 q94 -85 94 -194q0 -47 -59 -47q-45 0 -60 53q-24 80 -38 100q-40 54 -144 54q-53 0 -102 -27q-58 -32 -58 -82v-870q0 -31 21 -45h135q-37 -31 -88 -43q23 -23 68 -23q26 0 26 37q0 21 15 25l10 -11q6 -24 8 -49h20q5 74 21 99h8q17 -17 21 -78q2 -2 4 -2q10 0 20.5 23.5 t14.5 25.5l10 -8q18 8 18 39v184q-8 -53 -43 -96v282q-104 15 -104 60q0 36 90 59v4q0 18 -54 25.5t-55 17.5q21 12 70 12q90 0 106 -59q123 -10 123 -49v-215q45 -12 45 -25q0 -8 -10 -16h-10q-6 10 -14 12l-7 -2q-4 -156 -49 -264q3 2 6 2q45 0 45 -53q0 -12 -2 -27 q11 6 31 21h4q17 0 17 -25q0 -27 -21 -27q17 0 -41 13q-34 -9 -135 -11q-28 0 -80 -20.5t-80 -20.5q-20 0 -57.5 10.5t-56.5 10.5q-41 0 -123 -5t-123 -5q-2 -39 -25.5 -57t-23.5 -21l2 -12q2 -7 8 -7q1 0 13 5.5t18 5.5v-60h-127l-11 127q11 13 11 31q0 9 -11.5 14 t-11.5 19zM-52 -39q6 -12 23 -12q0 16 -13 22zM-23 29q18 -13 41 -13v13h-41zM63 281q0 22 16 22h6q6 -4 11 -10q-5 -12 -27 -12h-6zM184 145q0 -26 10 -67l4 -2q10 2 14 33q-14 38 -28 49v-13zM261 1380q45 29 78 29q13 0 88 -29h-166zM292 174q0 -8 8 -8h2q7 0 7 8v4 q0 8 -9 8q-8 0 -8 -8v-4zM311 166l4 -4l6 4l-6 4zM550 231l4 54l4 6l7 2q10 -12 10 -29q0 -33 -25 -33zM642 117q4 -6 15 -11q16 0 16 25v16zM751 170v6q2 6 10 10q29 0 29 -51q-39 0 -39 35zM769 508l21 20v-10l-10 -10h-11zM808 -74q0 17 33 17q0 -31 -16 -31h-7l-10 10v4 zM808 123q0 27 10 63h11q20 0 20 -10v-117l-10 -20q-31 14 -31 84zM829 205v31h10v-31h-10zM849 -186l8 10v-10h-8zM868 -205l10 -10h-10v10zM878 104q0 76 10 189q2 2 4 2q15 -6 15 -21v-208q-29 0 -29 38z" />
<glyph unicode="H" horiz-adv-x="771" d="M-465 1327q0 14 28 14q39 0 50 -20q-7 -2 -24 -15.5t-19 -13.5q-9 0 -22 12.5t-13 22.5zM-426 205v20h28v-20h-28zM-418 1427q0 23 37 23q29 0 86 -21q65 -24 65 -45q0 -14 -18 -14h-29q-12 0 -36 4t-36 4v-37q-21 5 -45 34.5t-24 51.5zM-361 78h23v-23q-23 0 -23 23z M-191 1360v6q0 14 25 14q24 0 57 -8q45 -11 45 -26q0 -17 -31 -17q-18 0 -48 14q-33 15 -48 17zM-35 1325q0 16 31 16q14 0 42.5 -15t38.5 -15h7q39 30 57 30q22 0 50.5 -34.5t43.5 -34.5v88l25 20l24 -20v-98q30 -27 131 -29q21 0 57 -16q46 -20 56 -23v106q0 11 25.5 26 t37.5 15q22 0 43 -19t21 -40v-461l31 21v518l24 20q19 -8 19 -39v-1118q0 -39 -29 -39q-12 13 -14 21v528q0 10 -31 31v-676q0 -23 -19 -42t-42 -19q-66 0 -66 41v528q-14 39 -43 39h-201v-430q-10 -19 -24 -29q-15 10 -25 29v422q-31 -21 -31 -31v-528q0 -39 -63 -39 q-64 0 -64 39v1214q-18 3 -65 12t-47 31zM211 782l18 -18v448l-18 -8v-422zM288 842l29 -31h207v305q-19 21 -39 21q-31 0 -31 -41q0 -18 10.5 -51.5t10.5 -51.5q-21 -28 -117 -73q-20 6 -20 69q0 21 33.5 36.5t33.5 21.5q0 12 -8 20h-70q-12 33 -39 39v-264zM288 1165 q37 -28 72 -32q0 55 -72 55v-23zM299 754h194l21 18h-187q-8 0 -28 -18z" />
<glyph unicode="I" horiz-adv-x="352" d="M-151 825q0 17 28 17v-35q-28 0 -28 18zM-123 360v21h7q16 0 16 -21h-23zM-102 729v23q0 6 10 10l19 -21l-19 -18q-6 2 -10 6zM-63 305v6q14 11 28 11q11 0 21 -11v-6q0 -14 -25 -14q-24 0 -24 14zM-43 250v22h10q15 0 19 -10q-6 -10 -29 -12zM21 676q24 0 24 -17 q0 -8 -10 -16q-14 6 -14 33zM53 596q3 4 11 4t10 -4l-10 -4zM84 885q0 85 2 159q3 111 6 158q-1 13 -1 33q0 19 1 45q9 57 60 57q14 0 36.5 -13t22.5 -26v-1241q0 -13 -23 -26t-36 -13q-52 0 -60 60q-2 15 -2 233q0 96 -3 287t-3 287zM230 195v1124q0 31 20 39l25 -21v-360 q43 -4 47 -8q16 -8 16 -41t-14 -41q-4 -4 -45 -8v-68h41q0 78 76 78q-2 3 -18 29q-11 19 -11 28q0 23 26 23q25 0 52 -41l-19 -21q19 -12 19 -35v-4q8 -8 28 -10l11 -6q2 -8 2 -16q0 -27 -31 -35h8q23 0 23 -21q0 -6 -70 -67h-25v67q-27 -70 -78 -70q-5 0 -10 1l-16 2 q-10 4 -12 10v-549l-25 -18q-20 8 -20 39zM287 1110v8q0 25 37 25q14 0 14 -27q0 -33 -35 -33q-16 0 -16 27zM377 993v33h10q10 -12 11 -16q0 -13 -21 -17zM393 1122h25q0 -12 -12 -18q-13 6 -13 18zM412 993q0 27 8 68l6 4q19 -8 19 -49q0 -23 -33 -23zM416 829l10 -10v10 h-10z" />
<glyph unicode="J" horiz-adv-x="544" d="M20 98q0 39 82 39q-10 0 3 -1t36 -1h39q103 0 125 45v4l-80 45h109l14 25v1049q0 11 27 25q24 13 37 13q16 0 37.5 -12t21.5 -26v-1004q0 -109 -93.5 -196t-203.5 -87q-45 0 -94 19q-60 23 -60 63zM520 360v1041l21 18l18 -18v-924q0 -94 -39 -117z" />
<glyph unicode="K" horiz-adv-x="818" d="M54 313v1153l20 21q23 -29 23 -39v-528l41 -31v411q0 11 25.5 25t37.5 14q22 0 43 -18t21 -39v-352l43 67q28 -84 33 -127h-72v-116q8 -17 29 -31h6q35 0 53 39l246 520q5 11 28.5 31t32.5 20q27 0 27 -51q-207 -414 -207 -469v-20l266 -725q0 -39 -35 -39q-47 0 -65 49 l-185 500q-18 49 -63 49q-40 0 -84 -74q-8 -15 -53 -113v-352q0 -21 -20 -41t-42 -20q-65 0 -65 41v686q-41 -56 -41 -70v-352q0 -12 -10.5 -25.5t-22.5 -13.5q-10 8 -10 20z" />
<glyph unicode="L" horiz-adv-x="631" d="M68 88v1196q0 56 67 56q10 0 21 -1q0 103 29 119l24 -20v-1116l35 -33h303q-6 0 35 -19l4 -6l-18 -20h-363q-10 -72 -10 -56q0 -20 28 -36h306q20 0 38.5 -21.5t18.5 -42.5q0 -15 -12.5 -37t-26.5 -22h-440q-15 0 -27 22t-12 37z" />
<glyph unicode="M" horiz-adv-x="1002" d="M-257 281v6q0 47 24 47q21 0 21 -27q0 -26 -45 -26zM-194 254v68q86 36 258 98v880q0 11 27 26q24 13 37 13q55 0 112 -155v166l25 20q16 -10 26 -27q19 -31 70 -185t51 -183q-30 0 -69 108q-28 79 -48 140v-25q0 -140 23 -237q12 -50 74 -230q17 -48 41 -96q37 18 96 88 q4 88 16 143q4 6 13 6q24 0 30 -51l158 451q24 67 78 67q67 0 67 -82v-14q8 21 29.5 74t40.5 53q6 -6 19 -20v-1155q0 -9 -19 -29q-14 14 -24 29v714q-25 54 -25 166l-25 -39v-968q0 -39 -63 -39q-64 0 -64 39v714l-14 29q-39 -11 -77 -49q-42 -41 -42 -78q1 -7 2 -25h43 l-61 -180l-23 60h-10q-78 -236 -102 -236q-36 0 -64 92q-36 121 -39 123q-8 -32 -37 -41q-40 -12 -47 -18v-244q0 -9 -10 -25t-18 -16q-11 0 -21 21v225q-16 -12 -49 -29v-303q0 -23 -19 -42t-42 -19q-66 0 -66 41v278q-64 0 -136 -27q-81 -30 -114 -75zM197 555 q0 -53 29 -66l10 9v346l-10 -2q-10 -11 -29 -31v-256zM295 524l5 2q18 13 53 41v19l-58 176v-238zM472 616h8q41 0 59 68zM654 705q0 14 12 18q12 -4 12 -18h-24zM693 723q0 12 12 20q12 -6 12 -20h-24z" />
<glyph unicode="N" horiz-adv-x="823" d="M86 68v1235q0 12 24 26q21 12 35 12q64 0 78 -59q4 49 29 49l6 -4q22 -57 141 -387l-4 -2q-4 0 -6 2q-24 40 -52 121q-30 88 -47 123h-18v-29l197 -549q21 -59 51 -59q16 0 38.5 9t22.5 22v725q0 11 26 24.5t38 13.5t37.5 -14t25.5 -24v-1010h19v1028l14 10l10 -10 l-10 -1155q-12 12 -33 39v-137q0 -39 -63 -39q-55 0 -80 67l-244 658q-19 53 -63 53v-621l-15 -20l-16 20v607l-18 -11v-714q0 -39 -64 -39q-59 0 -59 39z" />
<glyph unicode="O" horiz-adv-x="743" d="M6 430v653q0 62 39 129v-911q-39 68 -39 129zM84 311v733q0 177 235 299h-137q47 35 88 35q25 -6 111 -28q151 -40 252 -158q12 -14 49 -14q0 -9 -10 -20t-11 -15v-4q0 -11 5.5 -32t5.5 -32v-792q0 -107 -97 -189q-92 -78 -200 -78q-113 0 -202 91t-89 204zM211 244 q0 -14 14 -42t25 -32h88l-29 -25l10 -10l47 -2l62 2q35 1 76 33t41 65v773l-21 -9v-88l10 -10v-10l-14 -10v-480q0 -39 -45 -106q0 108 -5 322.5t-5 322.5q-13 -10 -68 -39q-12 -7 -26 -28q-14 -24 -23 -31q-10 4 -10 28q61 78 127 138v206q-13 11 -56 11h-38 q-61 0 -107 -28q-53 -34 -53 -91v-10q18 2 31 10q2 10 8 29h4q-8 0 22 -9q2 -10 4 -30q-4 -7 -10 -11q-10 2 -20 11q2 -7 2 -13q0 -39 -41 -39v-798zM221 897v31h35q0 -31 -35 -31zM242 752h8v-11zM250 541q0 18 30 18v-35q-30 0 -30 17zM250 625q0 20 20 20q10 0 10 -20 v-11q-4 -8 -10 -8q-20 0 -20 19zM258 489q14 0 22 -12l-10 -8q-12 4 -12 20zM260 573v13h20q-6 -13 -20 -13zM285 727l4 6l4 -6l-4 -4zM297 778q0 35 35 35q0 -35 -35 -35zM405 1133q0 14 13 20v-20h-13zM432 1059q0 6 4 6l4 -6l-4 -4zM446 1016v10h11v-10h-11zM487 1190 q0 -8 8 -8h3q6 0 6 8v4q0 8 -9 8q-8 0 -8 -8v-4zM504 1178q20 -62 20 -134h10l11 11v37q0 63 -39 90zM670 1214q0 27 20 27h10v-4q0 -23 -30 -23zM680 1290l10 10h10l11 -10q-5 -6 -11 -10h-10q-6 4 -10 10zM690 977q6 12 21 12v-24q-15 0 -21 12zM694 1335q0 56 17 105 q4 35 18 104q2 6 10 10h15q24 0 24 -20t-16.5 -69.5t-16.5 -75.5q0 -54 -51 -54zM729 977l10 10h10l11 -10l-11 -10h-10zM760 1300v19h18v-19h-18z" />
<glyph unicode="P" horiz-adv-x="672" d="M67 68v1235q0 27 58 36q34 5 79 13q13 14 39 39q17 12 138 12q98 0 127 -37h-205l-21 -14q25 -21 80 -21q133 0 209 -127q66 -110 66 -250q0 -370 -379 -397v-352q-17 -23 -25 -29q-5 4 -24 29v334l-19 -21v-450q0 -39 -63 -39q-60 0 -60 39zM194 725l10 -20v499l-10 -18 v-461zM264 782q0 -11 14.5 -25t24.5 -14h196q11 29 19 60v305q0 38 -34.5 77.5t-72.5 39.5h-147v-443zM282 686q8 -2 29 -2h45q68 0 102 21q-17 0 -51 2t-51 2q-51 0 -74 -23zM675 911v283q21 -49 21 -139v-78q0 -39 -21 -66z" />
<glyph unicode="Q" horiz-adv-x="740" d="M6 250v608q0 84 39 152v-912q-39 68 -39 152zM65 340v684q0 123 83 219q87 100 208 100q196 0 277 -190q24 -56 24 -66v-370h8q48 0 48 -41q0 -25 -15 -31q-6 -4 -37 -4v-141q19 -8 60 -19v-10q0 -16 -8 -16h-21v-33l-20 10h-11q-1 -23 -12 -126q-8 -73 -8 -126 q0 -24 20.5 -58.5t20.5 -47.5q0 -15 -25 -15q-15 0 -44 10.5t-44 10.5q-76 0 -76 -57q0 -11 2 -23h-18q-89 0 -207 -68h-4q-53 0 -84 35h148q16 0 39 43q-129 17 -215 108q-89 94 -89 222zM192 246q0 -49 51 -81q45 -28 97 -28q88 0 88 56q0 10 -5 29.5t-5 29.5q0 29 53 33 v735l10 -4q7 -9 23 -47t16 -47l4 204q1 20 -8 31q-51 70 -164 70q-131 0 -131 -62q23 11 39 11q35 0 88 -33h-156v-897zM678 1159v39q45 0 45 -41q0 -20 -23 -20q-22 0 -22 22zM698 518q4 90 27 90q20 0 40.5 -18t20.5 -37q-18 0 -46 -17.5t-42 -17.5zM708 344l3 18h4 q47 0 47 -49q-54 0 -54 31zM721 844q4 10 20 10q15 0 19 -10q-4 -10 -19 -10q-16 0 -20 10zM749 1274v10h11v-10h-11zM770 1049v28h10v-28h-10zM786 1038h13v-18q-13 8 -13 18zM790 422v10h9v-10h-9zM790 500v20h9v-20h-9zM809 471l4 4q6 0 6 -4l-6 -4zM825 1188 q25 0 25 -31q0 -27 -12 -31q-13 9 -13 62z" />
<glyph unicode="R" horiz-adv-x="810" d="M-118 815q0 14 29 14q39 0 49 -18q-12 -8 -39 -31h-2q-22 -2 -37 35zM-71 918q0 20 37 20q18 0 53.5 -7t53.5 -7v268q0 15 37 30q45 18 49.5 23.5t15.5 57.5q8 36 49 36h101q211 0 312 -73q118 -86 118 -289q0 -113 -31 -176q-6 -6 -22.5 -35t-16.5 -35q0 -8 41 -8 q164 0 164 -111q-10 0 -30 6.5t-30 6.5q-28 0 -28 -35q0 -19 10 -55t10 -54q-6 -11 -54.5 -39t-64.5 -32q-20 8 -20 69q0 20 35 37t35 21q0 14 -11 18h-67q-25 25 -60 74q0 16 31 16q10 0 26.5 -9t26.5 -9q0 47 -51 47q-53 0 -53 -78q0 -25 2 -31q48 -138 88 -254 q70 -205 70 -239q0 -45 -35 -45q-52 0 -74 69l-147 459q-10 30 -27 38q-11 5 -47 5v-90q-20 50 -49 61q-16 6 -88 6v-507q0 -41 -64 -41q-63 0 -63 41v507l-39 -28v-510q-10 -14 -25 -29q-14 15 -24 29v813q-31 18 -64 18l-10 -2v-37q-24 5 -47 35t-23 54zM126 651 q0 -28 31 -28v561q-31 0 -31 -29v-504zM294 762q0 -11 14 -25t25 -14h166q-25 18 -78 49q-10 2 -64 12q-45 8 -45 31q0 16 31 16q15 0 82 -34q33 -17 107 -17h16v285q39 -66 39 -158q0 -22 -10.5 -63.5t-10.5 -63.5q0 -20 21 -28q51 36 51 149q0 139 -10 193 q-24 127 -109 127h-168q31 -4 49 -25h-106v-434zM544 100l4 6l4 -6l-4 -4zM554 72l4 4l4 -4l-4 -4z" />
<glyph unicode="S" horiz-adv-x="732" d="M68 289q0 43 59 43q57 0 68 -99q16 5 36 5q23 0 23 -23q0 -12 -15.5 -19.5t-15.5 -15.5q0 -45 144 -45h63q-49 17 -88 45h166q29 15 29 53v207h-7q-14 0 -14 19q0 12 23 53q0 60 -121 117q-174 82 -221 119q-121 97 -121 253q0 132 80 232q86 108 215 108q107 0 199 -79 q96 -82 96 -187q0 -59 -62 -59q-37 0 -55 53q-27 79 -43 100q-42 54 -135 54q-58 0 -84 -9q-36 -12 -68 -51v-194l-14 8v-43q0 -105 125 -162q68 -31 207 -88q15 -10 50 -52q31 -37 54 -46v49q6 -14 25 -29q129 78 135 78l6 -4l4 -6v-10q-45 -37 -127 -117q4 -35 4 -72 q0 -177 -70 -303q-86 -154 -251 -154q-77 0 -222 99h-10q-14 -13 -29 -21h-10q-20 0 -20 27q0 5 2 12q10 8 28 31v8q0 13 -19 54t-19 61zM184 354v17q21 -13 21 -47v-21q-21 27 -21 51zM283 268q0 32 62 80.5t95 48.5v-26l-129 -127q-4 -2 -8 -2q-20 0 -20 26zM352 1360 q45 29 78 29q12 0 88 -29h-166zM449 145l4 -4l6 4l-4 5zM479 408v22h21q0 -22 -21 -22zM645 1210v23q31 -19 31 -72q-31 0 -31 49z" />
<glyph unicode="T" horiz-adv-x="691" d="M-26 1409q8 18 39 18h383q31 0 39 -18l-21 -14h-147q-19 -15 -29 -35q0 -8 4 -14h330q18 0 38.5 -20.5t20.5 -37.5q0 -19 -11 -38q-13 -23 -30 -23h-147l-33 -33v-1116q0 -21 -20.5 -40.5t-42.5 -19.5q-12 0 -38 14.5t-26 24.5v1127q0 18 -49 39v-979q0 6 -18 -35l-7 -4 l-24 18v1000q-133 0 -133 65q0 62 127 62q-19 45 -39 45h-146z" />
<glyph unicode="U" horiz-adv-x="765" d="M40 139q4 6 10 19q-10 47 -10 39q0 75 4 153q5 103 6 152l10 686l15 18v176l24 31v4q0 8 -10 12.5t-10 16.5q0 27 14 27q13 0 24 -18t11 -32q0 -20 -10 -30v-166q10 -10 10 -39v-21q-10 -26 -10 -20q0 -10 6 -10q-8 0 18 4v164q0 10 26 24t38 14q30 0 59 -38 q17 -99 39 -295q4 2 10 2q49 0 49 -41q-53 -54 -57 -60q-18 0 -31 11v-314q78 -73 78 -88q0 -51 -78 -51v-236q0 -96 168 -96q43 0 62 10v1041l24 18q21 -8 21 -39v-848q0 -100 -31 -161h6q24 0 47 43q21 38 21 65v1039q0 10 25.5 24t37.5 14q23 0 41.5 -18t18.5 -41v-924 q0 -119 -63 -216q-69 -105 -181 -124q-26 -2 -90 -10q-12 -2 -39.5 -15t-42.5 -13q-59 0 -64 34h138q-105 52 -148 103q-28 -10 -28 -72q0 -27 -17 -27q-24 0 -24 60q0 6 5 17.5t5 17.5q0 9 -5 26.5t-5 26.5q0 8 5 24.5t5 24.5l-2 10l-8 9q-16 -26 -25 -50q-29 -77 -63 -77 q-29 0 -29 30zM105 90q0 12 13 29q12 -4 14 -29h-27zM134 299l4 -4l4 4l-4 6q-4 -1 -4 -6zM134 375q0 -23 4 -21q4 6 4 25v10q0 17 -4 25q-4 -2 -4 -21v-18zM134 510q0 -28 4 -29q4 11 4 31v16q0 23 -4 31q-4 -4 -4 -29v-20zM134 618q0 -8 4 -10l4 10l-4 11q-4 -2 -4 -11z M134 791q0 -14 4 -15q4 10 4 21v6q0 16 -4 22q-4 -2 -4 -18v-16zM134 862q0 -16 4 -18q4 6 4 20v8q0 15 -4 21l-2 -4l-2 -17v-10zM134 936l4 -4l4 4l-4 6q-4 -1 -4 -6zM134 991q0 -8 4 -10l4 10l-4 10q-4 -2 -4 -10zM140 244q0 -8 8 -8q7 4 7 10t-7 10q-8 0 -8 -8v-4z M140 283q0 -7 8 -7q7 3 7 9t-7 10q-8 0 -8 -8v-4zM282 623q0 6 4 6l4 -6l-4 -5zM296 498q0 -6 8 -6t8 8q0 10 -8 10t-8 -8v-4zM333 903q0 23 24 23q0 -22 -2 -25q-1 -14 -12 -18q-10 4 -10 20z" />
<glyph unicode="V" d="M-154 909q0 31 22 31h11q4 -4 135 -207q12 -61 49 -137q29 -29 70 -96q8 -39 39 -119v-8q0 -41 -50 -51q2 8 2 16q0 104 -208 465q-23 24 -62 80q-8 14 -8 26zM14 1292v6q0 43 49 43q60 0 70 -59l67 -412q21 -20 21 -49l-11 -8q0 -37 63.5 -96.5t63.5 -95.5 q0 -62 -75 -62q0 -117 26 -158q4 13 21 29q18 -2 39 -10h6q33 0 33 125q0 7 -5.5 21.5t-5.5 21.5q52 51 52 192q0 25 -21 33q12 9 22 9q4 0 7 -1l43 244q26 150 26 208q0 15 -2 23q-4 -4 -21 66q12 -13 32 -31h12q10 2 57 10q13 -4 39 -10l19 31h10l-107 -531 q-14 -39 -24 -88q-15 -71 -17 -94q0 -3 6.5 -10t6.5 -12q0 -21 -21 -31q-16 -58 -51 -227q-39 -187 -37 -213q8 8 29 10q14 -6 39 -21v-4q0 -37 -29 -47q-10 -2 -59 -6q-25 -59 -64 -59q-47 0 -65 24l-37 64q-13 6 -39 28l37 31q12 10 12 45q0 53 -21 53l-20 -10v-10 q10 -14 10 -25q0 -39 -51 -39q0 9 6 27t6 27l-20 20v10q10 9 40 29q6 -2 29 -6v16q0 31 -28 146q-21 0 -21 20q0 3 5.5 13t5.5 16l-23 108q-10 13 -27 39q11 29 11 35q0 15 -119 602zM53 725l10 8v-8h-10zM90 1397q0 33 26 33q37 0 37 -15q0 -20 -41 -20zM133 1362h8 q16 -16 59 -266q10 2 19 2q24 0 24 -31h-33v-29h21q-12 -8 -12 -16q0 -6 11 -10t11 -13q0 -13 -33 -24l2 -6h-10l8 6zM182 1319v22h8q6 -4 10 -10q-6 -12 -18 -12zM221 920v38l10 -18v-10zM227 700l4 -6q2 3 6 4l-6 7zM227 891q0 8 4 10l4 -10l-4 -10q-4 2 -4 10zM235 836 q0 6 4 6l4 -6l-4 -5zM237 690q0 -67 12 -94h7q45 0 45 55q0 39 -64 39zM239 1184l10 10v-18zM260 1231v33h10q20 0 20 -15q0 -18 -30 -18zM266 801q0 13 23 28t38 15q0 -43 -61 -43zM290 389q0 -8 9 -8h2q6 0 6 8v4q0 8 -8 8q-9 0 -9 -8v-4zM317 504v8q0 27 14 27h4 q13 0 13 -13v-47q-11 -4 -17 -4q-14 0 -14 29zM321 381q0 -6 6 -10q8 0 8 8v4q0 8 -8 8q-6 -4 -6 -10zM337 1264v4q0 18 33 18q0 -33 -18 -33h-4q-6 4 -11 11zM348 803v10h10v-10h-10zM368 637v18h4q13 0 17 -18h-21zM368 1212v21l4 2q8 -2 15 -10q-7 -13 -19 -13zM376 684 q7 12 21 12v-22q-14 0 -21 10zM426 1057l4 4q5 0 6 -4l-6 -4zM456 1352l4 4l4 -4l-4 -4zM475 176v19q12 -7 12 -19h-12zM475 1370v10q0 1 1 1q2 0 6 -19q-4 4 -7 8zM495 94v12h19q-9 -12 -19 -12zM495 469v10h8v-10h-8zM509 260q0 43 29 43q17 0 17 -20q0 -23 -39 -23h-7z M530 168q25 0 25 -16q0 -15 -11 -15q-12 4 -14 31zM534 225v8h10v-8h-10z" />
<glyph unicode="W" horiz-adv-x="1017" d="M19 1251q0 52 51 52q60 0 67 -58l89 -745q2 -18 15 -41q15 -27 30 -27q34 0 34 29v108l23 -49l133 733q7 41 45 41q37 0 43 -30l29 -138l39 207l10 8l59 -317h-88l99 -543q9 -51 49 -51q41 0 47 51l88 783q1 13 23 26t36 13q24 0 43.5 -17.5t16.5 -40.5l-109 -735h14 q23 0 35 10v-20q0 -61 -20 -181q-24 -142 -47 -161l-31 30q-12 -113 -14 -120q-19 -76 -74 -76t-68 78l-127 735q-10 59 -49 59q-94 0 -94 -354h41l-55 -322q-3 -6 -19 -20h-10q-4 2 -20 20l-29 -157q-8 -41 -64 -41t-63 51l-176 1184q-2 13 -2 26zM180 1362h17l20 -39 l68 -598v-68zM291 606v12l2 15l2 4q4 -10 4 -23v-6q0 -14 -4 -20q-4 2 -4 18zM965 696l2 17l2 4q4 -10 4 -21q0 -10 -4 -20l-2 6zM979 745v60l60 536l18 21q6 -4 10 -10v-11z" />
<glyph unicode="X" horiz-adv-x="721" d="M-172 1059v10q13 8 18 8q25 0 86 -59q21 -21 82 -78q16 -11 142 -70q3 -2 10 -7l14 -11q-2 -10 -28 -10q-107 0 -158 80q-2 -2 -6 -2q-16 0 -51 34q-40 38 -50 45q-14 2 -39 11q-4 8 -20 49zM72 41l184 489h-49q0 29 21.5 84t21.5 84q0 27 -40 55t-40 60q4 8 10 10 q15 0 38.5 -13t29.5 -26q2 4 2 11q0 21 -21.5 65t-21.5 64q0 8 2 16l-117 313v11q0 30 43 30q58 0 86 -98q13 -52 51 -186q30 -99 97 -99q40 0 78 96q9 23 45 126q10 33 33 99q24 62 69 62q47 0 47 -41q-21 -54 -92 -233l-72 -170q-43 -109 -43 -174q0 -64 21 -107 q5 -10 24.5 -19t23.5 -21q13 -40 40 -37l88 -89v-10h-39l-88 88h-15l170 -454q0 -35 -43 -35q-56 0 -94 114q-12 35 -32.5 106.5t-32.5 106.5q-38 115 -88 115q-66 0 -103 -115q-17 -59 -63 -213q-35 -114 -90 -114q-41 0 -41 49zM475 487q0 -6 8 -6q9 0 9 8q0 11 -9 11 q-8 0 -8 -8v-5zM649 360v23h23q0 -23 -23 -23zM694 348l4 6l4 -6l-4 -4z" />
<glyph unicode="Y" horiz-adv-x="698" d="M59 1260q0 36 45 36q44 0 54 -32l137 -451q3 -3 22 -31q12 -18 31 -18q41 0 53 41l129 430q18 59 68 59h29q12 -12 12 -41q0 -12 -2 -18l-145 -432q-35 -78 -74 -215q-5 -19 -5 -53q0 -17 1 -37q4 -60 4 -92v-365q0 -21 -21.5 -40t-42.5 -19q-12 0 -38.5 14t-26.5 24v549 l-15 -401q-1 -32 -18 -39l-25 18v549q-36 74 -36 117q0 12 2 21q-138 411 -138 426zM467 1278q0 6 4 6l4 -6l-4 -4z" />
<glyph unicode="Z" horiz-adv-x="672" d="M72 76q0 27 2 33l362 1024q0 17 -11 36q-13 23 -28 23h-264q-17 0 -30 23q-11 19 -11 38q0 21 19 36.5t41 15.5h401q-8 45 -39 45h-264l-19 14q9 20 39 20h293q33 0 49 -30q-16 -37 -26 -76q-2 -29 -13 -80l-323 -893q-2 -6 -2 -37q0 -94 41 -94h295l10 -16l-10 -8h-371 q0 -17 10 -35q11 -21 27 -21h295q30 0 30 -53q0 -49 -30 -49h-432q-41 0 -41 84z" />
<glyph unicode="[" horiz-adv-x="420" d="M94 -100v1388q0 107 35 117v-59h131q31 0 31 -25q0 -8 -45 -25.5t-45 -38.5v-1337q0 -32 45 -45t45 -16q0 -25 -51 -25q-24 0 -54 4q-44 6 -53 6q-39 23 -39 56z" />
<glyph unicode="\" horiz-adv-x="471" d="M100 1257v68q0 10 21 10q32 0 39 -39l213 -1179v-68q0 -6 -6 -8l-13 -2q-32 0 -39 39z" />
<glyph unicode="]" horiz-adv-x="485" d="M213 -141q0 3 44 16t44 45v1340q0 18 -44 35.5t-44 25.5q0 35 102 35v49q56 -47 93 -117v-1388q0 -33 -39 -56q-11 0 -60 -6q-33 -4 -59 -4q-37 0 -37 25z" />
<glyph unicode="^" horiz-adv-x="639" d="M172 1157q0 16 64 103l79 108q9 18 23 18q15 0 87 -103q27 -41 83 -122v-4q-17 0 -19 -2l-90 127q-27 64 -63 64q-5 -1 -14 -7q-119 -182 -150 -182z" />
<glyph unicode="_" horiz-adv-x="883" d="M20 -376l11 -8h-11v8zM96 249q0 18 2 29q6 18 43 18q0 -47 -45 -47zM119 -345l4 4l6 -4l-6 -4zM156 -204q0 64 59 64h393q58 -23 99 -82v-6q-11 -10 -48 -24.5t-51 -14.5h-393q-59 0 -59 63zM164 -390l4 6l4 -6l-4 -4zM186 -365l7 4l4 -4l-7 -5zM291 -396q0 53 71 53v-39 q-12 0 -35.5 -7t-35.5 -7zM682 198l4 6l4 -6l-4 -4zM766 -130h8v-10h-8v10z" />
<glyph unicode="`" horiz-adv-x="528" d="M170 1354h129l143 -224h-67z" />
<glyph unicode="a" d="M60 244q0 229 166 274q41 6 88 19q40 12 137 129q2 59 2 43q0 114 -133 114q-57 0 -120 -45t-77 -45q-35 0 -35 39q0 68 88 121q78 47 152 47q82 0 141 -45q36 -28 72 -88q29 -49 43 -53v116q16 -18 41 -61q12 -37 12 -193h21v-20h-25v-391q-2 -8 -14 -21h-10 q-17 11 -25 21v-137q0 -41 -66 -41q-34 0 -57 42q-20 35 -20 72l2 4q0 7 4 20t4 19v236l-29 29h-137q-10 -39 -31 -39q-18 0 -18 20l-10 -10l-2 -60q-1 -25 11.5 -77.5t12.5 -77.5h-43q0 14 12 18q-19 7 -28 53l-13 66v-137q0 -27 58 -27q0 -37 -27 -33q7 -6 72 -28 q55 -19 55 -33q0 -31 -40 -51q-33 -17 -68 -17q-84 0 -129 75q-37 63 -37 153zM156 705q6 19 30.5 41t43.5 26q-2 -57 -13 -57q-10 0 -24 8v-41h-10q-19 0 -25 12zM168 526v31h35q0 -31 -35 -31zM232 356l4 4l4 -4l-4 -4zM256 195h9l6 -5l4 -6h-10q-7 4 -9 11zM285 176l4 4 l6 -4l-6 -4zM305 166q2 4 9 4q5 -1 10 -4q-4 -4 -10 -4zM334 969q49 30 78 30t78 -30h-156zM351 762q0 12 12 20v-20h-12zM379 688q0 6 4 6l4 -6l-4 -4zM383 537h11q18 0 38.5 16t20.5 33q0 6 -2 20zM394 645v10h8v-10h-8zM615 846q0 24 22 24h11q0 -24 -33 -24zM627 920 l10 10h11l10 -10l-10 -11h-11zM641 965q0 57 17 106q4 35 18 103q2 6 12 12h13q24 0 24 -21q0 -19 -16 -69t-16 -76q0 -55 -52 -55zM676 606l10 10h11l10 -10l-10 -10h-11zM707 930v18h18v-18h-18z" />
<glyph unicode="b" horiz-adv-x="684" d="M-315 430h381v870q0 10 25.5 24.5t37.5 14.5q21 0 42.5 -19t21.5 -40v-391l14 450l10 11l15 -29v-393q14 -6 14 -19q0 -6 -4 -17.5t-4 -17.5q0 -3 2 -8q33 -6 26 -6q-2 0 57 40t97 40q65 0 116 -62q48 -59 48 -126v-353l14 471q25 -34 25 -77v-394h231l19 -18l4 -10h-248 q-14 -49 -35 -109v47q-12 -291 -174 -291q-36 0 -94.5 44t-79.5 44q-47 -32 -96 -77q-24 -2 -21 -2q-63 0 -63 41v313l-367 18q-12 1 -14 31zM193 264l2 -31v-18l2 -2v2q4 16 4 66v67q-2 19 -4 35q-2 -2 -2 -4v-17l-2 -32v-66zM193 539q0 14 1 -4t1 -50v-55q0 -13 2 -14v4 q4 22 4 115v94q0 90 -4 114q0 3 -2 5v-17q0 -9 -1 -27.5t-1 -27.5v-137zM199 193q0 -9 8 -9h2q6 0 6 9v4q0 8 -8 8t-8 -8v-4zM217 174q13 -14 39 -39h119q21 0 49.5 28.5t28.5 49.5v532q0 86 -178 86h-9q-20 -14 -28 -30v-387q10 -4 47 -23q14 0 35 10q10 -2 24 -20h-110 v-27q0 -71 4 -100q0 -5 4 -15t4 -16q-10 -12 -29 -39v-10z" />
<glyph unicode="c" horiz-adv-x="631" d="M12 455v194q0 125 41 193v-568q-41 66 -41 181zM72 481q0 209 20 271q38 116 186 192h-116q41 35 71 35q16 0 48 -14.5t42 -14.5q6 0 24.5 23.5t37.5 23.5v-57q64 -20 121 -72q65 -59 65 -118q0 -37 -49 -37q-25 0 -72 55t-75 55q-6 0 -33 -6v-43h-35v45q-40 0 -71 -21 q-35 -24 -35 -63v-430q4 90 28 90l10 -2q11 -33 11 -84q0 -21 -15.5 -62t-15.5 -57q0 -6 4 -18h84l-29 -25q9 -12 29 -12q68 0 134.5 46t82.5 46q39 0 39 -41q0 -64 -86 -118q-77 -48 -145 -48q-52 0 -121 29q-21 -55 -21 -88q2 -1 2 -16q14 0 43 20.5t45 20.5 q0 -16 -53 -92q-48 -69 -69 -91q-27 0 -27 52q0 22 10 65.5t10 65.5q0 35 -55 194q-24 69 -24 301zM276 643q0 25 23 33v76q29 0 29 -47q0 -18 -10 -51q-12 -38 -25 -38q-17 0 -17 27zM278 305v8h11v-8h-11zM278 539q0 20 15 20h6q10 -10 29 -31q0 -8 -11 -18h-6 q-33 0 -33 29zM356 1049q0 11 20.5 28t20.5 29q0 5 -2 10q-19 28 -20 33q0 16 24 16q27 0 27 -39q0 -22 -12 -61q-14 -47 -29 -47q-29 0 -29 31zM426 1214v29h18v-29h-18zM426 1272v20h4q16 0 16 -20h-20z" />
<glyph unicode="d" horiz-adv-x="671" d="M-93 979v10q14 8 18 8q15 0 64 -44q57 -51 69 -56q15 0 56.5 51t66.5 51q19 0 49 -20q-114 -14 -114 -127h6q48 50 63 61q37 27 82 27q36 0 74 -31q47 -38 65 -49q-8 0 37 10q0 10 -4 30t-4 30q0 18 14 39v401l25 21q31 -15 31 -70q30 20 49 20q12 0 37.5 -14t25.5 -24 v-883q97 -96 97 -115q-30 0 -55 19q-33 25 -42 28v-284q0 -41 -63 -41q-23 0 -61.5 35.5t-57.5 35.5q-26 0 -84 -40t-86 -40q-108 0 -145 117l-62 197v499q0 23 -55 56q-40 24 -76 43q-4 8 -20 49zM230 213q0 -86 152 -86q15 0 50.5 18.5t35.5 30.5q-6 13 -41 68 q18 37 18 49v518q-24 20 -59 20q-68 0 -96 -14q-12 -6 -27.5 -31.5t-32.5 -31.5v-541zM249 729v4q2 6 10 10q55 0 98 -69h11q6 0 14 6t14 6q21 0 21 -16q0 -7 -5.5 -21.5t-5.5 -21.5q0 -2 5.5 -10.5t5.5 -10.5q0 -10 -13 -10h-26l-80 78q-4 -2 -10 -2q-16 0 -27.5 20 t-11.5 37zM359 713q0 10 9 10q8 0 8 -8v-4q0 -6 -8 -6q-9 0 -9 8z" />
<glyph unicode="e" horiz-adv-x="683" d="M32 702q0 5 20.5 31t22.5 33q25 54 31 63v-184q18 113 53 166q31 47 127 121h-77q6 35 77 35q32 0 154 -47q190 -73 190 -338q0 -138 -41 -138h-313q-39 -26 -39 -45v-186q12 -25 31 -53h88l-31 -25h49q48 0 106 45t75 45q45 0 45 -37q0 -43 -61 -99q-57 -52 -103 -64 q-35 -9 -74 -9q-116 0 -184 93q-57 78 -68 202q0 -47 -10 -67q0 -11 -8 -11q-21 0 -21 19q0 5 5.5 15t5.5 16q0 40 -13 116q-13 81 -16 117q-6 4 -10 12l-2 13l2 16q4 6 10 8l8 109q-29 12 -29 28zM71 170q0 18 29 18v-36q-29 0 -29 18zM79 119q15 0 21 -13l-8 -10 q-13 4 -13 23zM82 203v10h18q-4 -10 -18 -10zM237 586q22 11 103 84q71 64 112 82q1 5 2 12v12q0 45 -57 45h-29q-131 0 -131 -78v-157zM254 688l4 4l4 -4l-4 -4zM258 537l18 -11q14 31 31 31q6 -16 8 -31h72q0 13 53 47q16 10 16 89v26h-2l-4 -2l-14 -6q-14 -6 -70 -41 q-66 -42 -108 -102zM268 645v8h8v-8h-8zM413 526h27q63 0 63 60l-2 18q-4 -20 -46 -45t-42 -33zM497 713l2 -15l2 -6q4 10 4 21q0 10 -4 20l-2 -4zM501 918q4 6 11 10h10l6 -4l2 -6q-2 -7 -8 -11h-10zM516 963q0 57 16 106q5 38 19 102q2 7 12 13h12q25 0 25 -21 q0 -19 -16.5 -69t-16.5 -76q0 -55 -51 -55zM579 928v20h21v-20h-21z" />
<glyph unicode="f" horiz-adv-x="439" d="M19 987l39 39q2 37 8 133q6 75 46 121v-254l16 -10q15 315 217 315q57 0 57 -45q0 -34 -69.5 -59t-69.5 -56v-194q0 -22 64.5 -38t64.5 -44q0 -26 -66.5 -42t-66.5 -42v-754q0 -10 -25.5 -24.5t-37.5 -14.5t-38 14.5t-26 24.5v754l-20 18v-645l-25 -18l-25 18v676 q-14 8 -14 33q0 7 5 20t5 19q0 24 -39 55zM196 1358q10 4 28 10h10q-12 -10 -26 -10h-12z" />
<glyph unicode="g" horiz-adv-x="712" d="M-187 446q0 15 29 15q39 0 49 -21q-20 -14 -43 -28q-8 0 -21.5 13t-13.5 21zM-140 549q0 20 37 20q27 0 86 -21q66 -23 66 -44q0 -15 -19 -15h-28q-12 0 -35.5 4.5t-36.5 4.5v-37q-23 4 -46.5 34t-23.5 54zM67 360v406q0 68 31 133q39 80 96 80q27 0 39 -21 q-117 -16 -117 -88v-360h11q0 185 17 262q37 168 159 168q26 0 77 -33t68 -33l2 3q-9 32 -10 38v5q10 18 39 49h4q29 0 35 -78q37 49 78 49q21 0 42 -19.5t21 -39.5v-519l109 -32q53 -25 53 -86q-10 0 -29.5 6t-30.5 6q-28 0 -28 -35q0 -18 10 -54t10 -54v-4 q-30 -17 -88 -60l-20 -225q-7 -84 -88 -147q-77 -60 -164 -60q-71 0 -141 49q-78 55 -78 121q0 39 35 39q14 0 61 -26q45 -25 84 -25h6q-14 -8 -39 -29q19 -10 82 -10q47 0 83 20q42 25 42 68v235l-10 21l-17 -103q-9 -56 -36 -94v209q-23 0 -78 -37t-90 -37q-78 0 -158 134 q-72 122 -72 208zM116 264q4 -12 11 -28v235h-11v-207zM129 223q0 -8 8 -8q6 4 6 10t-6 11q-8 0 -8 -9v-4zM264 215q0 -88 155 -88q41 0 41 39q0 11 -6 32.5t-6 32.5q0 12 6 36t6 36v16q-1 10 -2 15q-110 88 -194 88v-207zM264 471q25 -6 94 -35q58 -24 100 -24v411 q-10 8 -28 8q-166 0 -166 -88v-272zM518 207q14 14 14 53q0 11 -4 64l-10 10v-127zM518 383h10v342q-4 12 -10 29v-371zM665 156q15 2 19 10q-4 20 -15 22l-4 -2v-30z" />
<glyph unicode="h" horiz-adv-x="697" d="M-234 760l2 14q41 0 117 10q5 1 27 13q16 8 26 8q9 0 26 -6t25 -6q9 4 15 10v98q-8 -4 -15 -4q-16 8 -16 47q0 10 -14.5 17.5t-14.5 27.5q43 4 70 31q4 -4 10 -16q-6 -5 -20 -15v-4q0 8 6 -24h22l29 -60l-29 -29q27 -11 27 -36v-52q0 -36 27 -36v555q0 10 27 25 q24 13 36 13q49 0 60 -49q0 68 28 80q8 -6 25 -39v-401q8 -6 16 -21q-10 -55 -10 -49v-10q22 2 77.5 46t86.5 44q62 0 111 -55q42 -48 57 -113q0 6 2 25v24q0 109 -119 138q4 4 39 18q3 2 4 2q51 0 119 -119v74q6 0 14 -4l29 -31h10q6 -4 10 -10v-47q0 -47 -4 -58 q-8 -22 -45 -30v-17h148l18 -24l-18 -25h-152v-493q-12 -17 -25 -29l-20 18q0 -78 -4 -98q-11 -59 -64 -59q-63 0 -63 41v616q-10 0 -72 6q-41 4 -72 4h-36q-21 0 -33.5 -1t-3.5 -1v-477q0 -41 -33 -41q-6 4 -10 10q0 -157 -68 -157q-53 0 -59 41q-14 111 -14 345 q0 128 4 292q-65 10 -131 10q-33 0 -66 -2l-8 20l-60 10q-8 -12 -20 -20h-4q-27 0 -27 35zM-95 1143v33l15 2q24 0 24 -17q0 -18 -39 -18zM-84 922v18h12q0 -10 -12 -18zM-76 45q0 10 4 21q12 4 27 4q45 0 59 -21q-21 -8 -59 -29h-5q-26 0 -26 25zM-66 756h88v12 q-65 0 -88 -12zM-56 1329v23h11q6 -4 10 -11q-8 -12 -21 -12zM-45 1245v19h28v-19h-28zM-35 1196v18h8v-18h-8zM-29 862q0 12 12 21v-21h-12zM-27 311v13q8 6 20 20q-10 47 -20 68v6q0 6 10 23.5t10 25.5q-2 7 -20 22v15q0 17 16.5 48t16.5 50q25 0 26 -24q2 -31 21 -39 q-6 -7 -21 -19h-4l-2 2q-2 -4 -4 -12q14 -20 22 -100q6 -76 17 -86v-117q-6 -10 -8 -21q10 -32 10 -24q0 -8 -16 -21q-11 -18 -33 -43q4 2 10 2q25 0 37 -20h-68v166q-20 26 -20 65zM-17 -137q0 36 18 67q21 37 54 37q0 -69 -41 -84q8 2 22 2q17 0 17 -16q0 -45 -35 -45 t-35 39zM-11 0q0 31 19 31q18 0 18 -31h-37zM-9 1126h56q0 -20 -35 -20q-21 0 -21 20zM-4 420q0 -8 8 -8h2q6 0 6 8v4q0 8 -8 8t-8 -8v-4zM2 -297q0 45 16 45q8 -4 25 -20v-7q0 -18 -35 -18h-6zM10 664q0 32 22 32q21 0 21 -14t-43 -18zM14 618v19h4q12 0 16 -19h-20z M14 1055v22h41q0 -22 -41 -22zM14 1323v18h8v-18h-8zM32 246l4 -4l7 4q-1 4 -7 4zM268 745h205q0 89 -162 89h-4q-17 -5 -39 -21v-68zM534 1780q0 65 51 65q0 -44 -4 -51q-7 -14 -47 -14zM561 1450l10 10h6q6 0 12.5 -13.5t10.5 -16.5q6 10 12 16h6l4 6q13 35 17 37 q59 0 59 -92q0 -15 -12 -30t-27 -15q-27 0 -39 20q8 10 29 19q-6 6 -51 24q-37 15 -37 35zM610 1284l6 10q16 2 43 19h-39v20l74 10h14q0 -41 -28 -41q-4 0 -9 1q11 -11 27 -39v-11q-4 -6 -10 -18q10 -28 10 -25v-6q-35 -12 -74 -12q0 25 -14 92zM620 1020q12 18 25 29v116 l6 6q14 7 51 9q0 -25 -14 -66q-16 -45 -19 -65q11 -9 21 -25q-17 -33 -31 -74h-4q-29 0 -35 70zM659 813h35q0 14 -35 21v-21zM669 1704l4 6l7 4h8l6 -4l4 -6q-4 -6 -10 -10h-8q-7 4 -11 10zM688 969v10q6 -2 12 -6v-12l-2 -11q-10 4 -10 19zM727 1421v27q0 8 10 12 q10 -4 10 -12v-29q0 -6 -10 -8q-10 2 -10 10zM727 1503q0 15 10 15l6 -2l4 -7v-10q-4 -6 -10 -10q-10 8 -10 14zM776 1532q0 37 20 37l11 -2q10 -45 10 -58v-10l-10 -10h-7q-24 0 -24 43zM796 1430q29 10 45 10q39 0 39 -41q-84 2 -84 31zM813 1341h20q0 -7 6 -21t6 -20v-8 q-14 -8 -20 -8q-10 0 -12 57zM825 1538q4 6 10 10h10q7 -4 11 -10q-2 -18 -11 -39q-16 6 -20 39z" />
<glyph unicode="i" horiz-adv-x="245" d="M65 1286q0 23 19.5 40t42.5 17t41 -17t18 -40q0 -61 -59 -61q-62 0 -62 61zM67 57v844q0 14 24 27q21 12 36 12t36 -13t21 -26v-844q0 -12 -21.5 -25.5t-35.5 -13.5q-13 0 -36.5 13.5t-23.5 25.5zM204 205v766l21 18l18 -18v-766l-18 -21zM221 1386l4 7l4 -7l-4 -4z" />
<glyph unicode="j" horiz-adv-x="293" d="M-39 -319q0 26 56.5 71.5t56.5 71.5v1055q0 21 21 39t42 18q29 0 57 -29q5 97 31 107l19 -19v-977q0 -31 -16 -54q-19 -28 -23 -44q-31 -129 -58 -178q-52 -94 -149 -94q-37 0 -37 33zM78 1278q0 23 18 41t41 18q24 0 41.5 -17t17.5 -40q0 -61 -61 -61q-23 0 -40 18 t-17 41z" />
<glyph unicode="k" horiz-adv-x="664" d="M86 68v1232q0 21 30 32q26 10 48 7q0 78 29 88q8 -6 24 -38v-734l25 -20h108q23 44 86 158q78 137 109 137q30 0 30 -25q0 -26 -78.5 -151.5t-78.5 -182.5q0 -42 10 -63l195 -410q10 -21 10 -41q0 -28 -39 -28q-48 0 -123 188q-79 197 -98 209q-15 6 -37 6q-42 0 -66 -61 q-18 -45 -18 -97q0 -5 5 -20t5 -23q0 -15 -4 -46t-4 -46q12 0 42.5 20.5t45.5 20.5q0 -17 -52.5 -91.5t-72.5 -90.5q-33 0 -33 41q-10 -10 -39 -10q-59 0 -59 39zM209 180l4 -4l4 4l-4 6zM242 528h20l10 39q-8 -4 -30 -39zM291 596q8 -4 20 -29l29 49h-12q-23 0 -37 -20z M330 319v13h20q-8 -13 -20 -13zM340 733q0 21 14 21l6 -2q11 -9 29 -29q-4 -14 -14 -21q-35 0 -35 31zM340 836q0 26 20 34v76q29 0 29 -47q0 -24 -8 -51q-11 -37 -27 -37q-14 0 -14 25zM367 967q0 14 7 42t7 42q0 9 -6 27t-6 28q0 14 49 76h35q0 -39 -25 -108 q-27 -72 -29 -107h-32zM418 1241q0 12 20.5 30t20.5 29q-3 3 -21 29q-2 8 -2 14q0 17 25 17q21 0 25 -11q1 -4 1 -30q0 -23 -11 -58q-12 -39 -27 -49q-31 0 -31 29zM487 1407v29h19v-29h-19zM487 1466v19l5 2q12 0 16 -21h-21z" />
<glyph unicode="l" horiz-adv-x="292" d="M73 252v1051q0 13 22.5 25.5t36.5 12.5q7 0 64 -28v88l24 18l19 -18v-1108q-31 57 -39 127v-225q0 -17 45 -58t45 -63q0 -45 -51 -45q-72 0 -122 78q-44 69 -44 145z" />
<glyph unicode="m" horiz-adv-x="1104" d="M86 176v715q0 31 20 39l39 -39q11 49 58 49q49 0 80 -70q3 11 26 32t23 38h33q12 0 34.5 -5t34.5 -5q29 0 64 28q15 -24 65 -56t76 -32q10 0 20 16q14 22 15 23q11 11 55 21q41 10 62 10q18 -8 30 -10q10 2 29 10h31q59 0 116.5 -53.5t57.5 -112.5v-706q0 -41 -60 -41 q-23 0 -43 19t-20 42l-4 342q-5 -273 -19 -293q-3 0 -6 -2q-8 0 -18.5 16t-10.5 25v645h-133q-47 0 -63 -76q-3 -13 -6 -159q-8 -359 -8 -518q-15 -39 -60 -39q-63 0 -63 39v665l-15 -577q0 -9 -18 -29l-6 4l-19 25v549q-16 -7 -28 -27q-16 -27 -27 -33q-10 4 -10 25l2 4 q61 49 61 104q0 19 -4 33q-22 20 -108 20q-36 0 -69.5 -36t-33.5 -72v-655q0 -41 -65 -41q-21 0 -41.5 20t-20.5 41v723l-14 -655q0 -15 -14 -21q-25 0 -25 41zM285 860q0 -6 6 -8q8 0 8 6v4q0 8 -8 8q-6 -4 -6 -10zM301 702v31h35q0 -31 -35 -31zM322 557h10v-10zM330 346 q0 19 30 19v-35q-30 0 -30 16zM330 430q0 21 20 21q10 0 10 -21q0 -20 -10 -20q-20 0 -20 20zM332 860q18 0 67 49l-14 2q-6 0 -35 -20h-8q-6 0 -10 8v-39zM338 295q18 0 22 -12l-10 -9q-12 7 -12 21zM340 379v12h20q-6 -12 -20 -12zM367 532l4 7l4 -7l-4 -4zM377 584 q0 34 35 34q0 -34 -35 -34zM692 860l4 -4l6 4l-4 4zM721 881l2 -11q16 7 57 39h-49q-10 -6 -10 -28zM723 948q8 43 41 43q0 -43 -41 -43zM737 778l4 4l4 -6l-4 -4zM750 1022q0 25 22 25h8v-5q2 -20 -30 -20zM762 1096q4 6 10 10h8q6 -4 11 -10q-5 -6 -11 -11h-8q-6 5 -10 11 zM772 782q0 13 19 13v-25q-19 0 -19 12zM776 1141q0 48 12 104q7 29 23 105q2 10 10 10h15q24 0 24 -19q-35 -86 -35 -149q0 -51 -49 -51zM811 782q4 6 10 11h8q7 -5 11 -11q-4 -6 -11 -10h-8q-6 4 -10 10zM840 1106v18h20v-18h-20z" />
<glyph unicode="n" horiz-adv-x="690" d="M-192 188q4 0 13 -6.5t13 -7.5q15 8 25 10l6 -2l4 -6q-12 -10 -31 -20h-8q-22 14 -22 32zM-190 350v21h22q0 -21 -22 -21zM-182 283l2 10q57 4 104 39q33 25 91 69q10 5 30 9q11 6 15 10v528q6 8 24 21h10l29 -39l4 -2h2q19 10 43 10q22 0 63.5 -35t67.5 -35q7 1 25 2 l78 60q-10 14 -68 28q10 21 37 21l2 -2q61 -23 111 -43q59 -23 98 -68q27 -31 39 -102q9 -55 29 -55q0 10 2 20q10 4 24 4q49 0 49 -117q13 -8 21 -20v-10l-21 -19q-2 -4 -14 -98q-10 -80 -25 -80l-10 2q-8 4 -10 10v43q0 18 11 52.5t11 52.5q0 13 -15.5 49.5t-24.5 46.5 q-13 -59 -13 -178q0 -11 1 -59t1 -82v-142q21 -8 21 -39q-6 -2 -21 -8q-15 -67 -16 -70q-15 -40 -49 -40q-66 0 -66 41v137q-24 -31 -31 -31q-12 6 -18 21v391q-37 10 -37 30q0 23 31 19v166q-12 30 -113 30q-33 0 -62.5 -25t-29.5 -58q0 -37 51 -37v16q2 6 17 6 q10 -8 30 -20q5 4 19 20h10q39 0 39 -35q0 -6 -6 -12l-12 -2q-6 0 -16 5t-15 5q-20 0 -73.5 -40.5t-53.5 -57.5v-176h26q0 -33 -30 -29v-323q0 -39 -64 -39q-52 0 -65 57q-4 17 -4 98l-21 -20q0 -6 -8 -8l-10 -11q0 36 -5.5 107.5t-5.5 107.5h-28q-20 -23 -83 -60 q-66 -38 -91 -38q-33 0 -33 21zM-151 401v39h28q2 -4 2 -8q0 -31 -30 -31zM-100 195q14 69 41 88q16 0 16 -21q0 -6 -13 -28.5t-13 -38.5h-31zM-53 532q0 19 29 19v-37q-29 0 -29 18zM-8 602q0 47 47 47q0 -47 -47 -47zM66 164q0 -8 8 -8l8 8v4q0 8 -8 8h-2q-6 0 -6 -8v-4z M256 590q33 0 33 -19v-4l-4 -6l-6 -4h-4q-19 0 -19 33zM273 625h39q-3 -29 -13 -29q-26 0 -26 29zM277 440q4 19 16 19q14 0 19 -19h-35zM328 459v20h20v-20h-20zM344 625h27q0 -13 -12 -29q-13 4 -15 29zM652 311q0 31 14 31q18 0 18 -25v-28q-32 0 -32 22zM701 166v29h18 v-29h-18zM735 145q0 31 19 31q18 0 18 -31h-37zM740 694q6 13 18 13v-25q-12 0 -18 12zM750 733v10h8v-10h-8z" />
<glyph unicode="o" horiz-adv-x="658" d="M54 383v338q0 80 43 123v-148q47 168 182 240h-88q31 35 88 35q27 -10 43 -10h7q6 4 18 10l21 -21q3 -1 38 -10q80 -21 139 -81q66 -65 66 -142v-471q0 -144 -219 -234v-137q-4 -6 -14 -10h-10q-11 4 -15 10v137q-100 13 -168.5 83t-81.5 171l-20 -10v8q0 21 -14.5 59.5 t-14.5 59.5zM230 217q0 -10 10 -29.5t19 -19.5h94v78q4 6 15 10h10q6 -4 8 -10v-78q-37 -10 -68 -29q60 -2 43 -2q123 0 123 70v137q-6 -30 -12 -51q-10 -33 -31 -37v557q0 10 -49 10h-14q0 -9 -6 -53q-4 -29 -4 -53q0 -8 2 -23.5t2 -23.5q0 -47 -19 -54q-14 2 -20 13v196 q-37 0 -68 -20q-35 -22 -35 -57v-531zM314 1255v15q35 0 35 -47q0 -35 -20 -58q-15 23 -15 90zM316 1331q0 15 13 21q12 -9 12 -21h-25zM318 1059v8h21v-8h-21zM318 1126l11 11q12 -7 12 -23q-16 0 -23 12zM318 1292l11 11q12 -7 12 -23q-16 0 -23 12zM339 469v119q2 6 8 10 h10q6 -4 11 -10v-107q0 -10 -29 -12zM357 295l11 10h10q6 -4 8 -10q-2 -6 -8 -10h-10zM476 752q0 -7 8 -7t8 9q0 10 -8 10t-8 -8v-4z" />
<glyph unicode="p" horiz-adv-x="676" d="M-105 678q0 29 33 29q34 0 34 -39l-4 -6l-4 -5h-10q8 0 -20 11q-7 -4 -19 -11q-10 0 -10 21zM20 627h24q0 -13 -12 -19q-12 6 -12 19zM71 -332v1233q0 14 23 27q20 12 36 12q41 0 58 -29q0 88 39 88q41 -47 41 -59q0 -10 -9.5 -30t-9.5 -31q37 -6 37 -7q4 0 52.5 35 t78.5 35q158 0 172 -295q0 -10 1 6.5t1 48.5v54q0 109 -12 147q-23 72 -107 86q15 21 39 21q25 0 47 -23q84 -88 84 -248v-63q0 -38 -1 -61t-1 -7q0 -29 2 -88t2 -88q0 -96 -28 -147q-7 -13 -27 -49q-40 -127 -49 -144q-41 -72 -123 -72q-51 0 -149 78h-25v-272l-25 -31 l-24 21v-148q0 -39 -64 -39q-59 0 -59 39zM247 147l4 -4l6 -4h127q25 0 51.5 35t26.5 62v473q0 125 -172 125h-4q-14 -7 -39 -21v-518q14 -23 21 -49q-9 -13 -21 -39v-60zM272 510q0 20 39 20q16 0 16 -20h-55zM296 559l4 4l6 -4l-6 -4zM325 471l10 10v-10h-10zM337 371v4 q0 8 8 8h2q7 0 7 -8v-4q0 -9 -9 -9q-8 0 -8 9zM372 492q0 12 12 28q13 -4 13 -28h-25zM413 393q8 13 20 13v-25q-14 0 -20 12zM585 322q0 -7 4 -7l4 9q0 6 -4 10q-4 -1 -4 -8v-4zM706 303q8 80 37 80q14 0 14 -39q0 -41 -51 -41zM796 1020l4 4l4 -4l-4 -4zM853 324v10h21 v-10h-21z" />
<glyph unicode="q" horiz-adv-x="677" d="M-232 637v10l10 -10h-10zM71 340v504q0 48 34 103q38 63 83 63q24 0 39 -21q-109 -16 -109 -123v-43l2 -49q6 65 50 114q48 52 112 52q28 0 86 -38t82 -38q0 13 -8.5 38t-8.5 38q7 18 39 59h4q35 0 35 -88q23 29 60 29q13 0 35 -13.5t22 -25.5v-1233q0 -39 -57 -39 q-64 0 -64 39v148l-24 -21q-19 12 -25 31v268q-26 0 -86 -37t-88 -37q-83 0 -123 72q-8 13 -51 144q-2 5 -25 51q-14 28 -14 53zM247 205q0 -68 125 -68h70q12 0 12 41q0 6 -21 68q7 26 19 49v518q-10 18 -43 18q-162 0 -162 -75v-551z" />
<glyph unicode="r" horiz-adv-x="492" d="M73 57v842q0 13 23 26t37 13q23 0 51 -36q30 -39 41 -42v96l14 11q10 -6 49 -68l-18 -49h4q18 0 71 35t74 35q35 0 35 -41q0 -35 -100 -68t-100 -49v-547l-15 -10l-14 10v498q-29 -29 -29 -49v-607q0 -10 -25.5 -24.5t-37.5 -14.5q-15 0 -36 12q-24 13 -24 27z" />
<glyph unicode="s" horiz-adv-x="604" d="M26 596v27q0 24 10 43v-88q-10 10 -10 18zM55 702q0 152 215 248q2 13 2 49q0 14 -6 42t-6 42q0 15 26 15q29 0 29 -11v-137q201 -78 201 -176q0 -31 -39 -31q-21 0 -61 45.5t-58 45.5q-12 0 -36 -2.5t-36 -2.5v-172q-16 -16 -16 -63v-35q85 -40 213 -127q63 -65 63 -158 q0 -102 -74.5 -179t-176.5 -77q-70 0 -143 49q-79 54 -79 121q0 39 31 39q20 0 69.5 -50t80.5 -50h63q74 0 84 27q2 5 2 102l25 -39h10v117q0 46 -98 92q-159 74 -187 94q-98 71 -98 182zM161 702q0 -77 62 -124v10q0 6 -5 17.5t-5 17.5q0 30 41 71l-2 13q-23 26 -23 73 q0 6 -4 13q-12 2 -25 2q-39 0 -39 -60v-33zM163 2h107q-4 -2 -47 -20h-6q-21 0 -54 20zM182 637v20h10v-20h-10zM223 950v21h18v-21h-18zM231 823l21 -10v23q-15 0 -21 -13zM274 1159q31 0 40 -7.5t9 -37.5q-49 0 -49 45zM290 1198q0 66 25 66q14 0 14 -19v-31 q0 -40 -18 -40q-21 0 -21 24zM295 1300q0 41 20 41q14 0 14 -28v-10q0 -23 -32 -23z" />
<glyph unicode="t" horiz-adv-x="399" d="M40 893q0 18 41 45t41 39v213q0 18 24 30q19 11 39 11q64 0 64 -41v-213q0 -14 52 -36t52 -48q0 -21 -49 -41t-49 -41v-616q0 -21 54 -54t54 -57q0 -55 -55 -55t-137 69v-69q-16 28 -49 88v606q-10 14 -43 47q39 41 41 47q0 3 -40 31.5t-40 44.5zM226 -29l4 4l4 -4l-4 -4 zM245 -39l4 4q6 0 6 -4l-6 -4z" />
<glyph unicode="u" horiz-adv-x="632" d="M53 219v680q0 13 24 27q21 12 35 12q13 0 38.5 -14.5t25.5 -24.5v-676q0 -51 59 -76q47 -20 103 -20q40 0 75 33.5t35 72.5v666q0 10 26 24.5t38 14.5q23 0 44 -18t21 -41v-596l19 28v666l24 20q21 -7 21 -39l14 -481l25 21v12q0 116 55 360q67 293 119 293q20 0 20 -18 q0 -53 -37 -144q-41 -104 -51 -141l-59 -244q-35 -145 -39 -245l-19 -21v-78q-32 -22 -32 -71q-33 0 -56 43q0 -217 -67 -217q-25 0 -63 39.5t-60 39.5q-17 0 -77.5 -44t-96.5 -44q-66 0 -117 69q-47 63 -47 132zM200 379v598l19 20l24 -20v-674q0 -39 44 -68q36 -24 79 -30 q-16 -21 -35 -21q-52 0 -94 72q-37 65 -37 123zM610 145v11q18 22 35 22q0 -18 -35 -33zM688 223v21h20v-21h-20z" />
<glyph unicode="v" horiz-adv-x="597" d="M-135 125q0 46 148.5 131.5t148.5 97.5q0 84 -64.5 263.5t-64.5 269.5q0 53 39 53q58 0 70 -59l106 -508q2 14 2 57q0 72 -10 88v176q-10 19 -10 27q0 16 24 16q0 -17 11 -45q12 -31 14 -45q8 -70 8 -198q0 -58 31 -58q6 8 49 39l98 461q9 41 57 41q52 0 52 -41 q0 -37 -56 -223q-46 -152 -46 -188q0 -4 1 -7q55 0 157 47t157 47l6 -2l4 -6q2 -3 2 -6q0 -25 -127 -66q-45 -14 -160 -53q-56 -20 -67 -61q-70 -249 -70 -271q0 -10 10.5 -33t10.5 -34v-6q-15 8 -39 30q-25 -30 -54 -30q-30 0 -73 49l-11 -10h-4q-17 0 -63 153l-10 33 q-203 -129 -277 -129zM-6 848v4q31 -21 31 -94v-23q-31 74 -31 113zM29 709l2 14l2 2q4 -8 4 -16q0 -7 -4 -15l-2 4zM39 666q0 8 4 10l4 -10l-4 -11q-4 2 -4 11zM49 623l4 4l5 -6l-5 -5zM60 582q0 6 4 6q6 -2 6 -6l-6 -4zM170 264h10v10zM209 965q0 34 31 34h8 q21 -10 21 -67q0 -7 -5.5 -21t-5.5 -20q0 -14 10.5 -40t10.5 -40q0 -35 -21 -57h-10q-10 10 -29 30q4 7 11 19q-4 6 -11 20q4 6 11 19v4q0 20 -10.5 59.5t-10.5 59.5zM307 334q5 -2 11 -2q16 0 28 30q-14 -8 -39 -28zM363 592l4 6l4 -6l-4 -4zM373 637q0 8 4 10q4 -6 4 -12 l-4 -8q-4 2 -4 10zM385 666v14q0 145 49 182v-10zM404 23q12 0 22 -13l-10 -10q-12 4 -12 23z" />
<glyph unicode="w" horiz-adv-x="931" d="M-9 862v39l11 -10l47 -234v-39zM38 897q0 43 52 43q14 0 34 -13t23 -26l98 -479q14 -70 60 -70q49 0 73 138q7 57 23 172h-59v8q0 78 41 221h10l28 -127l29 137q6 31 45 31q41 0 55 -68q4 -26 15 -90l47 -272q27 -160 59 -160q47 34 59 53q15 24 15 78q0 18 -24.5 25.5 t-24.5 19.5q0 17 5 51.5t5 51.5q0 13 -10 33t-10 32q0 21 20 21q14 0 19 -11l38 187q3 14 21 28v-20l-49 -215q20 -31 20 -49q0 -13 -6 -38t-6 -38q0 -10 10 -21q9 9 80 361q8 41 57 41q52 0 52 -45q0 -17 -2 -25l-187 -782q-12 -49 -63 -49q-58 0 -72 116q-12 -14 -35 -30 q-16 5 -35 98q-18 85 -18 115h45q2 10 2 16q0 33 -16 109.5t-29 109.5q-10 25 -43 25q-26 0 -41 -33q-19 -39 -51 -227l-43 -250q-9 -49 -66 -49q-38 0 -56 49q-20 55 -26 57q-6 -6 -20 -18h-8q-60 74 -60 219v16q11 -8 21 -10q8 2 18 2v27l-65 272q-54 226 -54 252zM55 592 l2 14l2 2q4 -8 4 -16q0 -6 -4 -14l-2 4zM65 543q0 12 4 16q4 -8 4 -14t-4 -15q-4 2 -4 13zM75 496l4 4l5 -4l-5 -7zM579 1237q23 0 50.5 -30t27.5 -54q0 -11 -6 -33t-6 -33q0 -33 14 -93q14 -63 16 -93q4 -93 4 -131v-65q-33 0 -45 30q-6 16 -16 195l-10 10v78q14 12 18 31 l-18 10q-2 28 -21 78h25q0 13 -16.5 46t-16.5 54zM626 -8q8 12 21 12v-24q-15 0 -21 12z" />
<glyph unicode="x" horiz-adv-x="565" d="M47 63q0 35 117 269q0 3 1 14.5t1 20.5v34q0 21 -6 61.5t-6 59.5h57q2 4 2 17q0 18 -79 176.5t-79 179.5q0 37 31 37q37 0 99.5 -129t109.5 -129q41 0 93 128t97 128q41 0 41 -31q0 -11 -155 -332q-11 -23 -11 -73q0 -51 11 -74l88 -180q69 -141 69 -172q0 -39 -30 -39 q-33 0 -99.5 137t-105.5 137q-51 0 -51 -24q6 -11 10 -39h-39l-78 -172q-18 -39 -53 -39t-35 34z" />
<glyph unicode="y" horiz-adv-x="620" d="M-209 154v6q0 47 24 47q21 0 21 -27q0 -26 -45 -26zM-146 127v68q33 20 167 65t165 45v-41q-55 -24 -166 -69q-43 -9 -123 -41q-16 -13 -35 -37zM49 897q0 51 39 51q16 0 36 -12.5t23 -26.5l117 -508q7 -30 24 -30q33 0 60.5 24t34.5 56l96 440q11 49 63 49q47 0 47 -34 q0 -7 -2 -15q-82 -347 -77 -363q8 7 34 37q23 27 35 27q-2 59 -2 43q0 48 24.5 151t45.5 144v-15q0 -26 -15.5 -76.5t-15.5 -76.5q21 -82 31 -117h4q9 0 21 19.5t14 29.5l18 176h25v-84l6 -2l8 -2l21 21h10q22 0 22 -47q0 -10 -2 -31t-2 -31q-30 -39 -116 -88 q-99 -55 -128 -82q-65 -60 -88 -162l11 -2q26 0 47 31v-10l-78 -313q-4 108 -18 127q-15 -47 -72 -275q-68 -272 -219 -272q-43 0 -43 39q0 37 47 59q64 30 71 39q70 85 70 252q0 34 -2 41zM221 913l2 15l2 2q4 -8 4 -17q0 -6 -4 -14l-2 4zM231 881q0 8 4 10l4 -10l-4 -11 q-4 2 -4 11zM241 842q0 8 4 10q4 -6 4 -12l-4 -9q-4 3 -4 11zM702 578q0 14 12 18q13 -4 13 -18h-25zM741 596q0 14 12 20q13 -6 13 -20h-25z" />
<glyph unicode="z" horiz-adv-x="545" d="M32 90q0 16 11.5 45.5t11.5 44.5v4q-8 11 -21 31q9 43 64 127v-70l240 480q2 32 2 26q0 66 -41 66h-205q-31 0 -31 53q0 55 49 55h211q0 49 -35 49h-204l-11 15q15 6 29 10h246q39 0 49 -31q-2 -26 -10 -39q108 -14 108 -71q0 -33 -20 -74l-291 -592h182l21 -14 q-13 -29 -187 -29v-10q4 -8 29 -25h225q18 0 29.5 -20.5t11.5 -38.5q0 -21 -17.5 -37t-39.5 -16h-346q-60 0 -60 61z" />
<glyph unicode="{" horiz-adv-x="485" d="M74 608q102 88 102 166v410q0 51 58 104t110 53q23 0 23 -14l-43.5 -48.5t-44.5 -84.5l-11 -401q11 -5 11 -17q0 -6 -51.5 -70.5t-65.5 -78.5h4q6 0 16 6t21 6q28 0 28 -31q0 -41 -30 -41q-19 0 -39 21v-10q0 -27 22 -46.5t49 -19.5q0 5 -2 10v10q0 7 15 7q17 0 38 -18.5 t21 -35.5q-47 0 -55 -24q29 -66 31 -234q-2 142 -2 -245q0 -32 28 -67.5t60 -49.5q-2 -12 -15 -12q-58 0 -115 45q-61 48 -61 104v410q0 36 -51 101t-51 95zM152 -18v342q6 -15 10 -29v-342q-4 14 -10 29zM152 743v344q4 13 10 29v-332zM289 979v29h10v-29h-10zM305 969h12 v-19q-12 8 -12 19zM309 352v10h8v-10h-8zM309 432v19h8v-19h-8zM328 401l4 5q6 0 6 -5l-6 -4zM344 1118q25 0 25 -31q0 -26 -13 -30l-4 4q-6 12 -8 57z" />
<glyph unicode="|" horiz-adv-x="160" d="M51 18l12 1367q2 10 23 6q31 -5 31 -45l-4 -1367q0 -5 -7 -6h-13q-19 3 -42 45z" />
<glyph unicode="}" horiz-adv-x="422" d="M106 -135q80 51 80 106l-2 21l-18 -60q0 41 -3 122t-3 122q0 109 30 158v-29q9 103 39 150q26 31 52 67q34 47 34 70q0 20 -4 35q-61 65 -86 115q-26 54 -35 139v-138q-26 27 -26 261q0 -16 1 5.5t1 59.5v66q12 -23 18 -48v146q0 22 -39 52t-39 42q0 14 25 14 q57 0 111.5 -54t54.5 -111v-412q0 -33 51 -97.5t51 -68.5q0 -6 -67 -78q-6 -7 -20.5 -47.5t-14.5 -50.5v-402q0 -68 -54 -117.5t-122 -49.5q-12 0 -15 12z" />
<glyph unicode="~" horiz-adv-x="748" d="M225 1171q0 26 24 53t50 27q32 0 105.5 -48t105.5 -48q12 0 36.5 10.5t37.5 10.5v-19l-31 -47q-14 -14 -43 -14q-30 0 -103.5 47t-103.5 47q-13 0 -39 -9.5t-39 -9.5z" />
<glyph unicode="&#xa1;" horiz-adv-x="326" d="M47 56q0 5 2 33l49 676q1 19 6 67.5t29 48.5q0 -75 14 -106l49 -658q12 46 17 187q4 129 22 176l29 -412q-10 -16 -29 -28h-10l-20 10q-13 -60 -82 -60q-76 0 -76 66zM67 1242q0 63 62 63q23 0 40 -19t17 -42t-18 -40.5t-41 -17.5q-60 0 -60 56z" />
<glyph unicode="&#xa2;" horiz-adv-x="737" d="M92 455v194q0 125 41 193v-568q-41 66 -41 181zM152 481q0 209 20 271q38 116 186 192h-116q41 35 71 35q16 0 48 -14q11 -6 20 -9v142l12 67q2 10 23 6q31 -5 31 -45v-134q9 5 18 5v-57q64 -20 121 -72q65 -59 65 -118q0 -37 -49 -37q-26 0 -72.5 55t-74.5 55 q-3 0 -8 -1l-1 -679q40 11 75 38q59 46 83 46q39 0 39 -41q0 -64 -86 -118q-58 -36 -111 -45l-3 -264q0 -5 -7 -6h-13q-19 3 -42 45v224q-40 6 -90 27q-21 -55 -21 -88q1 -1 2 -16q13 0 42.5 20.5t45.5 20.5q0 -16 -53 -92q-48 -69 -69 -91q-27 0 -27 52q0 22 10 65.5 t10 65.5q0 35 -55 194q-24 69 -24 301zM281 305q4 90 28 90l10 -2q11 -33 11 -84q0 -21 -15.5 -62t-15.5 -57q0 -6 4 -18h78v647q-39 -2 -68 -23q-32 -24 -32 -61v-430zM358 147q8 -10 23 -12v32z" />
<glyph unicode="&#xa3;" horiz-adv-x="946" d="M-54 507v8l11 -8h-11zM45 546l4 4l6 -4l-6 -4zM82 687q0 64 59 64h60v193q0 15 5 26v54q0 211 225 319h-127q35 35 78 35q17 0 44 -12q35 -16 44 -18q139 -37 209 -91q94 -72 94 -198q0 -45 -57 -45q-53 0 -64 63q-14 80 -35 94q2 -6 2 -14q0 -10 -12 -14q-20 12 -35 55 q-8 23 -82 23q-144 0 -156 -116l8 -7v-347h192q58 -23 99 -82v-6q-11 -10 -48 -24.5t-51 -14.5h-192v-302l35 -33h113q-6 0 35 -19l4 -6l-18 -20h-173q-9 -65 -10 -58q2 -19 28 -34h236q10 0 20 -6q91 4 127 53q10 13 35 103q15 53 60 53q49 0 49 -66q0 -101 -85.5 -180.5 t-187.5 -79.5h-370q-14 0 -26.5 22t-12.5 37v536h-60q-59 0 -59 63zM90 501l4 6l4 -6l-4 -4zM112 526l7 4l4 -4l-7 -5zM667 369v16q0 37 20 41v-12q0 -26 -18 -55q-2 4 -2 10zM692 751v10h8v-10h-8z" />
<glyph unicode="&#xa4;" horiz-adv-x="935" d="M66 606q0 31 65 36q-9 -1 105 -1v120h-76l-22 25q-2 6 -2 10q0 31 65 36q-5 0 35 -1v228q0 106 49 182v-410h19v193q0 211 225 319h-127q35 35 78 35q17 0 44 -12q35 -16 44 -18q139 -37 209 -91q94 -72 94 -198q0 -45 -57 -45q-53 0 -64 63q-14 80 -35 94q2 -6 2 -14 q0 -10 -12 -14q-19 12 -35 55q-8 23 -82 23q-157 0 -157 -138v-252h123q16 0 38 -30.5t36 -27.5l-55 -12h-142v-120h53q16 0 38 -30.5t36 -27.5l-55 -12h-72v-317q0 -14 15 -46t26 -38h88l-41 -25l10 -10q39 -2 47 -2q104 0 143 53q10 13 35 103q15 53 60 53q49 0 49 -66 q0 -101 -85.5 -180.5t-187.5 -79.5q-132 0 -212 101q-74 94 -74 229v225h-11l-8 -8v-291q-49 31 -49 197v102h-146l-22 25q-2 6 -2 10zM285 664q4 1 8 1q7 0 11 -2v98h-19v-97zM685 303v16q0 37 20 41v-12q0 -26 -18 -55q-2 4 -2 10z" />
<glyph unicode="&#xa5;" horiz-adv-x="698" d="M59 1260q0 36 45 36q44 0 54 -32l137 -451q3 -3 22 -31q12 -18 31 -18q41 0 53 41l129 430q18 59 68 59h29q12 -12 12 -41q0 -12 -2 -18l-145 -432q-21 -47 -45 -120h87q60 -16 102 -56v-4q-45 -27 -102 -27h-114l-2 -8q-8 -28 -4 -90v-5h120q60 -16 102 -56v-4 q-45 -27 -102 -27h-116v-365q0 -21 -21.5 -40t-42.5 -19q-12 0 -38.5 14t-26.5 24v386h-6l-9 -238q-1 -32 -18 -39l-25 18v259h-99q-60 0 -60 43q0 44 60 44h99v103h-99q-60 0 -60 43q0 44 60 44h99v13q-36 74 -36 117q0 12 2 21q-138 411 -138 426zM286 493h3v76zM467 1278 q0 6 4 6l4 -6l-4 -4z" />
<glyph unicode="&#xa6;" horiz-adv-x="160" d="M49 506l12 67q2 10 23 6q19 -3 31 -45l-2 -555q0 -5 -7 -6h-13q-41 7 -42 45zM49 1306l12 67q2 10 23 6q19 -3 31 -45l-2 -555q0 -5 -7 -6h-13q-41 7 -42 45z" />
<glyph unicode="&#xa7;" horiz-adv-x="744" d="M66 1101q0 132 80 232q86 108 215 108q107 0 199 -79q96 -82 96 -187q0 -59 -62 -59q-37 0 -55 53q-27 79 -43 100q-42 54 -135 54q-58 0 -84 -9q-36 -12 -68 -51v-194l-14 8v-43q0 -30 10 -55v90l6 -103q28 -57 109 -94q68 -31 207 -88q16 -11 50 -52q9 -20 34 -46v49 q15 -39 43 -88q4 -114 10 -252q4 -84 4 -72q0 -213 -50 -303q-86 -154 -251 -154q-77 0 -222 99h-10q-14 -13 -29 -21h-10q-20 0 -20 27q0 5 2 12q10 8 28 31v8q0 12 -19 53.5t-19 61.5q0 43 59 43q57 0 68 -99q16 5 36 5q23 0 23 -23q0 -12 -15.5 -20t-15.5 -15 q0 -45 144 -45h63q-49 17 -88 45h166q29 15 29 53v207h-7q-14 0 -14 19q0 12 23 53q0 60 -121 117q-174 81 -221 119q-111 88 -120 416q-11 42 -11 89zM205 782q0 -87 165 -162q35 -24 167 -88l-6.5 21.5t-6.5 35.5t5 23q0 60 -121 117q-130 61 -190 97l-13 18l7 -13l-7 4 v-53zM211 966q1 -22 4 -84zM212 831l6 -5l1 -9zM635 1310v23q31 -19 31 -72q-31 0 -31 49z" />
<glyph unicode="&#xa8;" horiz-adv-x="842" d="M205 1348q0 28 20.5 48.5t48.5 20.5q72 0 72 -69q0 -68 -72 -68q-69 0 -69 68zM444 1352q0 71 72 71t72 -71q0 -30 -21 -51t-51 -21q-72 0 -72 72z" />
<glyph unicode="&#xa9;" horiz-adv-x="1501" d="M20 1175q5 10 21 10l12 -4q6 -6 6 -12v-5q-10 -10 -18 -10q-12 8 -21 21zM47 1076q0 33 23 33v-33h-23zM78 600q0 286 212 494.5t498 208.5q243 0 434 -153q3 6 17 -2q19 -9 12 -23q247 -218 247 -525q0 -264 -217 -494q23 -14 23 -32q-37 2 -41 14q-180 -133 -373 -161 q13 -2 24 -14q22 -25 5 -40q-16 -14 -35 11q3 -6 1 -13l-9 -8q-5 -5 -11 -5q-10 0 -21 13l-3 3q0 8 -3 21q3 6 7 10l11 9q9 8 18 11q-32 -4 -63 -5q0 -7 -5 -11q-10 -9 -26 4q-17 13 -38 -5q-8 -8 -20 15q-212 20 -409 165q-4 -12 -41 -14q0 18 23 32q-217 230 -217 494z M88 1193q0 21 16 21q13 0 34.5 -17.5t21.5 -29.5q0 -31 -17 -31q-10 0 -16.5 20.5t-32.5 20.5q-6 0 -6 16zM137 1273v8h10v-8h-10zM147 1083v4q5 6 11 18q6 2 12 2h14q43 0 43 -39q0 -33 -22 -33q-21 0 -19 31q-2 -6 -8 -10h-12q-19 -2 -19 27zM158 1224v18h18v-18h-18z M176 588q0 -261 148 -393q185 -165 388 -176l2 2l1 -2q30 -1 73 -1q143 0 226 27q112 37 238 150q148 132 148 393q0 271 -170 440q-49 48 -107 82l-4 -8q-13 -26 -34 -26q-9 0 -20 5q-30 15 -20 35q6 10 16 10q8 0 21 -7q-5 4 -6 11l3 5q-127 61 -291 61q-272 0 -442 -168 t-170 -440zM197 1126v20h20v-20h-20zM236 1214q0 20 20 20q18 0 29 -20q-15 -21 -29 -21q-20 0 -20 21zM274 1259q0 16 31 16v-35q-31 0 -31 19zM519 435v472q0 84 40 145v-775q-40 25 -40 158zM574 336v543q0 168 180 255h-102q16 16 34 23q3 10 29 10q30 0 30 -13l5 -2 l35 -14q243 -65 243 -231q0 -36 -46 -36q-42 0 -51 50q-11 64 -28 75q1 -5 1 -11q0 -8 -9 -11q-16 10 -28 44q-7 18 -66 18q-126 0 -126 -110v-663q0 -12 12.5 -37.5t20.5 -30.5h71l-33 -20l8 -8q31 -1 38 -1q82 0 114 42q8 11 28 83q12 42 48 42q39 0 39 -53 q0 -81 -68.5 -144.5t-149.5 -63.5q-106 0 -170 81q-59 75 -59 183zM688 -142q-3 10 9 21l11 5q9 -1 13 -5l3 -4q-1 -14 -7 -20q-14 -1 -29 3zM761 -175q0 9 8 16l21 -25l-17 -15q-12 13 -12 24zM812 651l13 5q4 -7 4 -14q0 -6 -3 -11q-16 8 -14 20zM825 29q-14 16 1.5 27.5 t35.5 4.5q2 -26 -8 -35q-15 -13 -29 3zM879 302v13q0 29 16 32v-9q0 -21 -15 -44q-1 3 -1 8zM900 613l4 7q8 16 19 16q5 0 10 -3q11 -5 0 -30q-11 -23 -22 -23q-28 0 -11 33zM920 454q6 4 13 4q5 0 10 -3q-7 -14 -19 -15zM929 390q8 16 18 16q4 -1 7 -2l6 -10l2 -6 q-4 -4 -12 -4t-21 6zM939 499q10 20 23 20q5 0 10 -2l-14 -28zM1121 1064l9 18l18 -9l-9 -18zM1143 1218l11 20q21 -11 21 -25q0 -5 -2 -10zM1163 999q6 11 16 11q5 0 12 -3q18 -9 9 -27q-9 -16 -31 -17q-12 23 -6 36zM1183 934q14 27 31 19q7 -4 7 -13q0 -8 -7 -22z M1204 279q-9 10 13.5 29t30.5 9q6 -6 6 -12q0 -10 -12 -20l-6 -5q-19 -17 -32 -1zM1211 401l23 21l15 -17q-13 -11 -23 -11q-8 0 -15 7zM1224 1200q0 5 2 8q12 7 28 9q3 -4 3 -10t-3 -13l-10 -9q-3 -1 -7 -1t-6 1l-4 2q-3 8 -3 13zM1261 448q12 10 23 6l-1 -14q-13 -3 -22 8 zM1268 511l1 5q3 1 5 1q10 0 25 -14q-10 -9 -18 -9q-6 0 -11 5z" />
<glyph unicode="&#xaa;" horiz-adv-x="601" d="M86 576q0 64 59 64h273q58 -23 99 -82v-6q-11 -10 -48 -24.5t-51 -14.5h-273q-59 0 -59 63zM117 887q0 137 100 164q24 4 52 12q25 7 83 77q1 35 1 26q0 68 -80 68q-34 0 -72 -27t-46 -27q-21 0 -21 24q0 41 53 73q46 27 91 27q49 0 84 -27q22 -16 44 -52q17 -30 25 -32 v69q10 -10 25 -36q7 -22 7 -116h13v-12h-15v-235q-1 -4 -9 -12h-6q-10 6 -15 12v-82q0 -24 -39 -24q-20 0 -34 25q-12 21 -12 43l1 2q0 4 2.5 12t2.5 12v141l-18 18h-82q-6 -24 -19 -24q-10 0 -10 12l-6 -6l-2 -36q0 -15 7.5 -46.5t7.5 -46.5h-26q0 9 7 11q-11 5 -17 32 l-7 40v-83q0 -16 34 -16q0 -22 -16 -20q4 -3 43 -16q33 -12 33 -20q0 -41 -64 -41q-100 0 -100 137zM175 1163q11 34 44 41q-1 -35 -8 -35q-6 0 -14 5v-24h-6q-12 0 -15 7zM182 1056v19h21q0 -19 -21 -19zM220 954l3 2l2 -2l-2 -2zM235 857h5l4 -3l2 -3h-6q-4 2 -5 6z M252 846l2 2l4 -2l-4 -2zM264 840q2 2 5 2q4 0 6 -2q-2 -2 -6 -2zM281 1322q30 18 47 18q18 0 47 -18h-94zM292 1198q0 7 7 12v-12h-7zM308 1153q1 4 3 4l2 -4l-2 -2zM311 1063h6q36 0 36 29q0 5 -1 12zM317 1127v6h5v-6h-5zM450 1248q0 14 13 14h7q0 -14 -20 -14zM457 1292 l6 6h7l6 -6l-6 -6h-7zM466 1319q0 35 10 64q2 21 11 62q1 3 7 7h8q14 0 14 -13q0 -11 -9.5 -41t-9.5 -46q0 -33 -31 -33zM487 1104l6 6h6l6 -6l-6 -6h-6zM505 1298v11h11v-11h-11z" />
<glyph unicode="&#xab;" horiz-adv-x="586" d="M63 462q0 29 80 76q51 37 158 112h28q0 -8 2 -26q4 -16 -8 -25l-127 -90q-55 -25 -55 -47l2 -2q52 -38 106 -86q80 -71 80 -96q-44 0 -133 67q-59 45 -106 78q-27 14 -27 39zM263 462q0 29 80 76q51 37 158 112h28q0 -8 2 -26q4 -16 -8 -25l-127 -90q-55 -25 -55 -47 l2 -2q52 -38 106 -86q80 -71 80 -96q-44 0 -133 67q-59 45 -106 78q-27 14 -27 39z" />
<glyph unicode="&#xac;" horiz-adv-x="1164" d="M69 587q12 23 95 23q-7 70 44 70h837q12 0 29.5 -9.5t17.5 -21.5v-352q0 -11 -17.5 -21t-29.5 -10q-17 0 -34.5 14.5t-17.5 31.5v244q-12 23 -28 23q12 0 -45 -8v-291l-16 -14l-5 3q-15 33 -15 28v243l-27 28h-772z" />
<glyph unicode="&#xad;" horiz-adv-x="617" d="M-99 516v8l11 -8h-11zM-23 1149q0 18 2 29q6 18 43 18q0 -47 -45 -47zM0 555l4 4l6 -4l-6 -4zM37 696q0 64 59 64h393q58 -23 99 -82v-6q-11 -10 -48.5 -24.5t-50.5 -14.5h-393q-59 0 -59 63zM45 510l4 6l4 -6l-4 -4zM67 535l7 4l4 -4l-7 -5zM172 504q0 53 71 53v-39 q-13 0 -36 -7t-35 -7zM563 1098l4 6l4 -6l-4 -4zM647 760v10h8v-10h-8zM743 662h25q0 -44 -15 -58q-10 31 -10 58zM782 727v31q1 8 2 12q12 10 31 10q45 0 45 -73q-78 4 -78 20zM811 631q0 35 35 35q0 -35 -35 -35z" />
<glyph unicode="&#xae;" horiz-adv-x="1501" d="M20 1175q5 10 21 10l12 -4q6 -6 6 -12v-5q-10 -10 -18 -10q-12 8 -21 21zM47 1076q0 33 23 33v-33h-23zM78 600q0 286 212 494.5t498 208.5q243 0 434 -153q3 6 17 -2q19 -9 12 -23q247 -218 247 -525q0 -264 -217 -494q23 -14 23 -32q-37 2 -41 14q-180 -133 -373 -161 q13 -2 24 -14q22 -25 5 -40q-16 -14 -35 11q3 -6 1 -13l-9 -8q-5 -5 -11 -5q-10 0 -21 13l-3 3q0 8 -3 21q3 6 7 10l11 9q9 8 18 11q-32 -4 -63 -5q0 -7 -5 -11q-10 -9 -26 4q-17 13 -38 -5q-8 -8 -20 15q-212 20 -409 165q-4 -12 -41 -14q0 18 23 32q-217 230 -217 494z M88 1193q0 21 16 21q13 0 34.5 -17.5t21.5 -29.5q0 -31 -17 -31q-10 0 -16.5 20.5t-32.5 20.5q-6 0 -6 16zM137 1273v8h10v-8h-10zM147 1083v4q5 6 11 18q6 2 12 2h14q43 0 43 -39q0 -33 -22 -33q-21 0 -19 31q-2 -6 -8 -10h-12q-19 -2 -19 27zM158 1224v18h18v-18h-18z M176 588q0 -261 148 -393q185 -165 388 -176l2 2l1 -2q30 -1 73 -1q143 0 226 27q112 37 238 150q148 132 148 393q0 271 -170 440q-49 48 -107 82l-4 -8q-13 -26 -34 -26q-9 0 -20 5q-30 15 -20 35q6 10 16 10q8 0 21 -7q-5 4 -6 11l3 5q-127 61 -291 61q-272 0 -442 -168 t-170 -440zM197 1126v20h20v-20h-20zM236 1214q0 20 20 20q18 0 29 -20q-15 -21 -29 -21q-20 0 -20 21zM274 1259q0 16 31 16v-35q-31 0 -31 19zM363 707q0 11 23 11q31 0 39 -14q-9 -7 -31 -25h-2q-17 -2 -29 28zM400 789q0 16 30 16q14 0 42.5 -5.5t43.5 -5.5v214 q0 13 29 24q36 14 39.5 19t12.5 46q6 29 39 29h81q169 0 250 -59q94 -68 94 -231q0 -90 -25 -140q-31 -32 -31 -57q0 -6 33 -6q131 0 131 -89q-8 0 -23.5 5.5t-24.5 5.5q-22 0 -22 -28q0 -15 8 -44t8 -44q-5 -8 -44 -30.5t-51 -25.5q-16 6 -16 55q0 16 28 29.5t28 16.5 q0 11 -9 15h-54q-20 20 -48 59q0 13 25 13q8 0 21.5 -7.5t20.5 -7.5q0 38 -40 38q-43 0 -43 -63q0 -20 2 -24q38 -111 70 -204q56 -164 56 -191q0 -36 -28 -36q-41 0 -59 55l-118 368q-7 24 -21 30q-9 4 -38 4v-72q-16 40 -39 49q-13 5 -70 5v-406q0 -33 -52 -33 q-50 0 -50 33v406l-31 -23v-408q-8 -11 -20 -23q-11 12 -19 23v651q-25 14 -52 14l-8 -1v-30q-18 4 -37 28t-19 43zM558 575q0 -22 25 -22v449q-25 0 -25 -23v-404zM686 1154q0 13 29 13q30 0 30 -13q0 -20 -26 -20h-8q-25 0 -25 20zM688 -142q-3 10 9 21l11 5q9 -1 13 -5 l3 -4q-1 -14 -7 -20q-14 -1 -29 3zM692 664q0 -9 11.5 -20t20.5 -11h98q-12 8 -10 18l11 4q-13 8 -29 17q-8 2 -51 10q-36 6 -36 25q0 13 25 13q12 0 65 -28q30 -15 99 -13v228q31 -53 31 -127q0 -17 -8.5 -50.5t-8.5 -50.5q0 -16 17 -23q41 29 41 120q0 111 -8 154 q-19 102 -88 102h-134q25 -4 39 -20h-85v-348zM761 -175q0 9 8 16l21 -25l-17 -15q-12 13 -12 24zM821 96q0 10 16 24l23 -26q-14 -12 -24 -12q-15 0 -15 14zM825 29q-13 15 2 28q8 7 19 7q7 0 16 -3q4 -41 -22 -41q-8 0 -15 9zM827 633h29q-11 8 -29 19q2 -5 2 -10 q0 -4 -2 -9zM892 135l4 4l3 -4l-3 -4zM900 112l4 3l3 -3l-3 -3zM939 499q10 20 23 20q5 0 10 -2l-14 -28zM1121 1064l9 18l18 -9l-9 -18zM1143 1218l11 20q21 -11 21 -25q0 -5 -2 -10zM1163 999q9 18 28 8q18 -9 9 -27q-9 -16 -31 -17q-12 23 -6 36zM1183 934q14 27 31 19 q7 -4 7 -13q0 -8 -7 -22zM1204 279q-9 10 13.5 29t30.5 9q14 -15 -6 -32l-6 -5q-19 -17 -32 -1zM1211 401l23 21l15 -17q-13 -11 -23 -11q-8 0 -15 7zM1224 1200q0 5 2 8q12 7 28 9q3 -4 3 -10t-3 -13l-10 -9q-3 -1 -7 -1t-6 1l-4 2q-3 8 -3 13zM1261 448q12 10 23 6l-1 -14 q-13 -3 -22 8zM1268 511l1 5q3 1 5 1q10 0 25 -14q-10 -9 -18 -9q-6 0 -11 5z" />
<glyph unicode="&#xaf;" horiz-adv-x="456" d="M32 1278q0 45 55 45h251q53 -16 90 -57v-4q-39 -28 -90 -28h-251q-55 0 -55 44z" />
<glyph unicode="&#xb0;" horiz-adv-x="374" d="M96 1367v22q0 31 16 47v-57q18 65 70 93h-34q12 13 34 13q10 -4 16 -4h3q3 2 7 4l8 -8q1 0 15 -4q78 -21 78 -85v-74q0 -55 -84 -90v-29q-2 -3 -5 -4h-4q-4 1 -6 4v29q-84 11 -96 98l-7 -4v3q0 8 -5.5 23t-5.5 23zM163 1303q0 -19 11 -19h36v30q3 3 6 4h4q2 -2 3 -4v-30 q-14 -4 -26 -11q23 -1 16 -1q48 0 48 27v53q-3 -16 -17 -34v106q-3 4 -19 4h-5q0 -6 -2 -20q-1 -4 -4.5 -11t-3.5 -10q-5 1 -7 5v37q-40 0 -40 -30v-96zM258 1401q0 -3 3 -3q3 1 3 4q-1 3 -3 4q-3 -1 -3 -3v-2z" />
<glyph unicode="&#xb1;" horiz-adv-x="1026" d="M80 610q0 17 16 32t33 15h215v25q-44 0 -132 5t-132 5q31 0 133 6q82 5 135 2l-4 37q0 27 21 43h4q0 -47 24 -78l4 -2q17 2 31 21v323l14 -313l35 -29v304q0 16 15.5 32.5t31.5 16.5q41 0 41 -31v-328h230l-215 -14l18 -25h324q15 0 33 -14t18 -29q0 -22 -31 -45h-334 q-24 -18 -43 -43v-323q0 -31 -41 -31q-16 0 -31.5 16.5t-15.5 32.5v314l-39 30v-225l-16 225l-14 2q-27 0 -27 -78q-29 0 -33 29q2 -12 2 51h-241q-29 0 -29 41zM104 -40q0 46 57 46h707q56 -17 95 -59v-4q-42 -27 -95 -27h-707q-57 0 -57 44zM330 1012q45 0 45 -97 q0 -30 -27 -30q0 21 -9 63.5t-9 63.5zM342 817q0 19 31 41q2 -4 2 -10q0 -31 -33 -31zM365 1034v49h12q0 -16 -6 -45zM365 1182q0 18 4 54t4 54q12 19 55 19q45 0 45 -25l-2 -4q-20 -2 -49 -10l-4 -4q-15 -27 -15 -111q0 -12 -14 -12q-24 0 -24 39zM373 123q8 22 20 31v-31 h-20zM379 199q2 14 4 43q4 6 10 10q10 -4 10 -21q0 -32 -24 -32zM381 297q0 86 12 121q10 -72 10 -90q0 -31 -22 -31zM393 664h21l-21 18v-18zM403 535l5 4l6 -4l-6 -5zM453 664h8l2 8h-8z" />
<glyph unicode="&#xb2;" horiz-adv-x="426" d="M47 638l1 16l146 287q5 28 18 35q-7 4 -8 44q20 0 26 -14q53 91 53 191v55q0 21 -19.5 40.5t-39.5 19.5q-5 0 -13.5 -3t-12.5 -3t-10.5 3t-10.5 3q-18 0 -29.5 -25.5t-23.5 -22.5q0 -77 -41 -77q-35 0 -35 30q0 109 129 165v53q2 6 12 12q8 -4 17 -12v-46l6 -1 q17 6 47 17q28 -6 41 -21h-64q113 -65 126 -220v152q21 -31 21 -81q0 -59 -48 -153l-158 -311v-58l17 -21h159q17 0 23 -15q-9 -15 -28 -17q11 -22 11 -29q0 -36 -24 -36h-264q-24 0 -24 43zM164 1115q0 17 21 17l2 -11q0 -22 -12 -22q-3 0 -4 1q-6 11 -7 15zM187 1270 q0 13 19 13v-13h-19zM194 1153v13q0 17 18 17q5 -1 9 -2q3 -4 3 -11v-112q-1 -3 -4 -4l-8 -2l-6 2q-12 49 -12 99zM194 1199v7h6v-7h-6z" />
<glyph unicode="&#xb3;" horiz-adv-x="414" d="M48 745q0 38 35 38q32 0 39 -46q7 -52 33 -68q16 -10 74 -10q18 0 24 12h-6q-18 0 -47 21h78v213q-29 0 -84.5 -20t-84.5 -20q-4 0 -6 6l-2 6q0 9 6 12q28 4 82 17q27 11 83 29q-8 12 -48 30q-35 15 -35 36q0 18 27 30q3 2 43 16q4 9 19 23v207q0 36 -74 36 q-53 0 -70 -32q-4 -10 -15 -61q-7 -31 -36 -31q-35 0 -35 37q0 61 48 109.5t108 48.5q46 0 82 -32q15 -13 59 -69v53q28 -3 28 -105q0 -94 -32 -154q-3 -7 -29 -36q-17 -19 -17 -40q0 -42 36 -42q7 0 111.5 41.5t152.5 41.5q23 0 23 -12q-2 -3 -6 -6q-38 -7 -123 -44 q-78 -34 -124 -39q8 -15 8 -76q0 -102 -34 -178q-44 -99 -134 -99q-64 0 -110.5 46.5t-46.5 110.5zM118 793v11q0 7 6 8q12 -8 12 -35v-29q-18 24 -18 45zM206 1400q9 18 39 18t38 -18h-77zM339 927l2 -2l3 2l-3 4z" />
<glyph unicode="&#xb4;" horiz-adv-x="623" d="M205 1151l143 223h129l-205 -223h-67z" />
<glyph unicode="&#xb6;" horiz-adv-x="752" d="M-6 977v78q0 90 21 139v-283q-21 27 -21 66zM53 954q0 140 66 250q76 127 209 127q55 0 80 21l-21 14h-205q29 37 127 37q121 0 138 -12q26 -25 39 -39q56 0 129 -3q58 -9 58 -36v-1235q0 -39 -60 -39q-63 0 -63 39v450l-49 11v-334q-3 -5 -34 -29q-12 7 -35 29v352 q-379 27 -379 397zM172 803q8 -31 19 -60h196q11 0 25 14t14 25v443h-147q-38 0 -72.5 -39.5t-34.5 -77.5v-305zM232 705q34 -21 102 -21h45q21 0 29 2q-23 23 -74 23q-17 0 -51 -2t-51 -2zM506 705l40 30v461l-40 8v-499z" />
<glyph unicode="&#xb7;" horiz-adv-x="374" d="M96 667v22q0 31 16 47v-57q18 65 70 93h-34q12 13 34 13q10 -4 16 -4h3q3 2 7 4l8 -8q1 0 15 -4q78 -21 78 -85v-74q0 -55 -84 -90v-29q-2 -3 -5 -4h-4q-4 1 -6 4v29q-84 11 -96 98l-7 -4v3q0 8 -5.5 23t-5.5 23zM258 701q0 -3 3 -3q3 1 3 4q-1 3 -3 4q-3 -1 -3 -3v-2z " />
<glyph unicode="&#xb8;" horiz-adv-x="764" d="M238 -342l10 31h186q15 0 49 39v43q0 76 -49 94q-22 8 -117 8q-2 4 -2 16q4 11 91 121l57 21q-78 -57 -78 -82q0 -19 10 -35h23q182 0 182 -127q0 -75 -68 -119q-59 -39 -137 -39t-157 29z" />
<glyph unicode="&#xb9;" horiz-adv-x="274" d="M34 1283l1 6q34 23 89 79q0 33 -47 33q27 36 56 36q23 0 27 -54q7 1 13 1q51 0 51 -24v-748q0 -23 -36 -23q-7 0 -22.5 8.5t-15.5 14.5v96q-4 -2 -8 -1l-15 11v567q-37 4 -32 4q-28 -13 -47 -23q-14 5 -14 17z" />
<glyph unicode="&#xba;" horiz-adv-x="540" d="M86 576q0 64 59 64h273q58 -23 99 -82v-6q-11 -10 -48 -24.5t-51 -14.5h-273q-59 0 -59 63zM105 973v203q0 48 26 74v-89q28 101 109 144h-52q18 21 52 21q17 -6 26 -6h4q4 2 11 6l13 -13q2 0 23 -6q47 -12 83 -48q40 -39 40 -85v-283q0 -86 -132 -140v-83q-2 -3 -8 -6 h-6q-7 3 -9 6v83q-133 17 -150 152l-12 -6v5q0 12 -9 35.5t-9 35.5zM211 874q0 -30 17 -30h57v47q2 4 9 6h6q3 -2 5 -6v-47q-23 -6 -41 -17q36 -1 26 -1q73 0 73 42v82q-4 -23 -7 -31q-7 -20 -18 -22v334q0 6 -30 6h-8q0 -10 -3 -31.5t-3 -31.5q0 -5 1 -14.5t1 -14.5 q0 -28 -11 -32q-9 1 -12 8v117q-62 0 -62 -46v-318zM261 1496v9q21 0 21 -28q0 -21 -12 -35q-9 14 -9 54zM263 1542q0 9 7 13q8 -6 8 -13h-15zM264 1379v5h12v-5h-12zM264 1419l6 7q8 -5 8 -14q-10 0 -14 7zM264 1519l6 6q8 -4 8 -14q-10 0 -14 8zM276 1025v71q2 4 5 6h6 q4 -2 7 -6v-64q0 -6 -18 -7zM287 920l7 6h6q3 -2 5 -6q-2 -3 -5 -6h-6zM359 1195q0 -5 4 -5q5 0 5 6t-5 6q-4 0 -4 -5v-2z" />
<glyph unicode="&#xbb;" horiz-adv-x="580" d="M63 624q2 18 2 26h28q107 -75 158 -112q80 -47 80 -76q0 -25 -27 -39q-47 -33 -106 -78q-88 -67 -133 -67q0 25 80 96q54 48 106 86l2 2q0 22 -55 47l-127 90q-12 9 -8 25zM263 624q2 18 2 26h28q107 -75 158 -112q80 -47 80 -76q0 -25 -27 -39q-47 -33 -106 -78 q-88 -67 -133 -67q0 25 80 96q54 48 106 86l2 2q0 22 -55 47l-127 90q-12 9 -8 25z" />
<glyph unicode="&#xbc;" horiz-adv-x="783" d="M34 1283l1 6q34 23 89 79q0 33 -47 33q27 36 56 36q23 0 27 -54q7 1 13 1q51 0 51 -24v-748q0 -23 -36 -23q-7 0 -22.5 8.5t-15.5 14.5v96q-4 -2 -8 -1l-15 11v567q-37 4 -32 4q-28 -13 -47 -23q-14 5 -14 17zM190 27v67l215 1180q7 39 39 39h12q6 -4 6 -10v-68 l-213 -1180q-7 -39 -39 -39q-20 0 -20 11zM321 236q9 34 26 82v-71q13 -18 27 -18q8 0 12 13l146 505q10 35 40 35q25 0 25 -30q0 -11 -151 -522h86l21 17v188q2 6 14 19q6 -7 15 -19v-188l24 -17v164q0 24 38 24t38 -24v-188q0 -4 28 -22.5t28 -32.5q0 -12 -4 -18 q-18 -9 -44 -32q-4 -7 -9 -66q-4 -40 -37 -40q-30 0 -37 30q-1 7 -4 52q-1 30 -18 30l-18 -19q-3 6 -18 28h-152q-27 18 -27 51q0 10 4 33q-59 12 -53 36zM348 338q0 3 2 3l3 -3l-3 -3zM354 356l2 3l3 -3l-3 -3zM359 380l2 2l2 -2l-2 -3zM365 397l2 4l3 -4l-3 -3zM371 415 l3 3l2 -4l-2 -2zM377 439l3 2l2 -4l-2 -2zM383 456l3 2l2 -2l-2 -2zM388 477q0 5 2 6q3 -3 3 -7l-3 -6q-2 2 -2 7zM394 496q0 4 3 4l2 -4l-2 -2zM403 511v12q0 4 6 18v-11q-2 -9 -6 -19zM414 553v11l71 245v-21zM456 200l11 -11h77q-12 11 -18 11h-70z" />
<glyph unicode="&#xbd;" horiz-adv-x="807" d="M34 1283l1 6q34 23 89 79q0 33 -47 33q27 36 56 36q23 0 27 -54q7 1 13 1q51 0 51 -24v-748q0 -23 -36 -23q-7 0 -22.5 8.5t-15.5 14.5v96q-4 -2 -8 -1l-15 11v567q-37 4 -32 4q-28 -13 -47 -23q-14 5 -14 17zM190 27v67l215 1180q7 39 39 39h12q6 -4 6 -10v-68 l-213 -1180q-7 -39 -39 -39q-20 0 -20 11zM417 38l1 16l146 287q5 28 18 35q-7 4 -8 44q20 0 26 -14q53 91 53 191v55q0 21 -19.5 40.5t-39.5 19.5q-5 0 -13.5 -3t-12.5 -3t-10.5 3t-10.5 3q-18 0 -29.5 -25.5t-23.5 -22.5q0 -77 -41 -77q-35 0 -35 30q0 109 129 165v53 q2 6 12 12q8 -4 17 -12v-46l6 -1q17 6 47 17q28 -6 41 -21h-64q113 -65 126 -220v152q21 -31 21 -81q0 -59 -48 -153l-158 -311v-58l17 -21h159q17 0 23 -15q-9 -15 -28 -17q11 -22 11 -29q0 -36 -24 -36h-264q-24 0 -24 43zM534 515q0 17 21 17l2 -11q0 -22 -12 -22 q-3 0 -4 1q-6 11 -7 15zM557 670q0 13 19 13v-13h-19zM564 553v13q0 17 18 17q5 -1 9 -2q3 -4 3 -11v-112q-1 -3 -4 -4l-8 -2l-6 2q-12 49 -12 99zM564 599v7h6v-7h-6z" />
<glyph unicode="&#xbe;" horiz-adv-x="901" d="M58 745q0 38 35 38q32 0 39 -46q7 -52 33 -68q16 -10 74 -10q18 0 24 12h-6q-18 0 -47 21h78v213q-29 0 -84.5 -20t-84.5 -20q-4 0 -6 6l-2 6q0 9 6 12q28 4 82 17q27 11 83 29q-8 12 -48 30q-35 15 -35 36q0 18 27 30q3 2 43 16q4 9 19 23v207q0 36 -74 36 q-53 0 -70 -32q-4 -10 -15 -61q-7 -31 -36 -31q-35 0 -35 37q0 61 48 109.5t108 48.5q46 0 82 -32q15 -13 59 -69v53q28 -3 28 -105q0 -94 -32 -154q-3 -7 -29 -36q-17 -19 -17 -40q0 -42 36 -42q7 0 111.5 41.5t152.5 41.5q23 0 23 -12q-2 -3 -6 -6q-38 -7 -123 -44 q-78 -34 -124 -39q8 -15 8 -76q0 -102 -34 -178q-44 -99 -134 -99q-64 0 -110.5 46.5t-46.5 110.5zM128 793v11q0 7 6 8q12 -8 12 -35v-29q-18 24 -18 45zM216 1400q9 18 39 18t38 -18h-77zM300 27v67l215 1180q7 39 39 39h12q6 -4 6 -10v-68l-213 -1180q-7 -39 -39 -39 q-20 0 -20 11zM349 927l2 -2l3 2l-3 4zM431 236q9 34 26 82v-71q13 -18 27 -18q8 0 12 13l146 505q10 35 40 35q25 0 25 -30q0 -11 -151 -522h86l21 17v188q2 6 14 19q6 -7 15 -19v-188l24 -17v164q0 24 38 24t38 -24v-188q0 -4 28 -22.5t28 -32.5q0 -12 -4 -18 q-18 -9 -44 -32q-4 -7 -9 -66q-4 -40 -37 -40q-30 0 -37 30q-1 7 -4 52q-1 30 -18 30l-18 -19q-3 6 -18 28h-152q-27 18 -27 51q0 10 4 33q-59 12 -53 36zM458 338q0 3 2 3l3 -3l-3 -3zM464 356l2 3l3 -3l-3 -3zM469 380l2 2l2 -2l-2 -3zM475 397l2 4l3 -4l-3 -3zM481 415 l3 3l2 -4l-2 -2zM487 439l3 2l2 -4l-2 -2zM493 456l3 2l2 -2l-2 -2zM498 477q0 5 2 6q3 -3 3 -7l-3 -6q-2 2 -2 7zM504 496q0 4 3 4l2 -4l-2 -2zM513 511v12q0 4 6 18v-11q-2 -9 -6 -19zM524 553v11l71 245v-21zM566 200l11 -11h77q-12 11 -18 11h-70z" />
<glyph unicode="&#xbf;" horiz-adv-x="692" d="M74 266q0 80 31 146v-275q-31 51 -31 129zM123 338q0 119 37 197l107 170v137q10 16 24 30l19 -20q0 137 69 137q60 0 60 -82q0 -96 -74 -221q-102 -173 -115 -209q-8 -22 -8 -26v-226q0 -88 137 -88q24 0 58.5 40t58.5 40l10 -10q0 137 66 137q61 0 61 -70 q0 -179 -227 -256q-76 -26 -115 -26q-10 0 -69 33h79q-169 110 -176 221q-2 33 -2 92zM287 1210l4 4l4 -6l-4 -4zM304 819l6 -6l4 4l-4 6zM320 1270q0 61 59 61q60 0 60 -61q0 -56 -60 -56q-59 0 -59 56z" />
<glyph unicode="&#xc0;" horiz-adv-x="770" d="M57 59q0 18 2 27l265 1186q9 41 55 41q39 0 53 -31q6 43 25 49q13 -6 39 -109q24 -96 24 -126h-45l123 -539q7 -1 20 -80q19 31 19 98q4 -16 25 -94q14 -53 14 -92v-8l-39 29v-39l70 -328q0 -11 -16 -23t-27 -12q-46 0 -66 60q-10 49 -20 96q-14 -8 -50.5 -64.5 t-50.5 -64.5q-26 0 -26 51q0 23 10 67t10 66q0 53 -20 74h-215q-15 0 -28 -66q-14 -71 -32 -82q-20 -137 -78 -137q-41 0 -41 51zM129 1633h129l143 -224h-67zM182 195q0 -9 4 -11l4 9q0 6 -4 12q-4 -2 -4 -10zM193 233q0 -8 4 -10l4 10l-4 11q-4 -2 -4 -11zM246 459 q10 22 28 108q7 -108 50 -108h127q10 18 30 49h4q0 -6 3.5 -17t3.5 -16q0 -8 -21 -16h14q11 0 21 4q8 15 4 35l-78 422q-11 57 -55 57q-40 0 -53 -68l-78 -401v-49zM473 573v5q0 8 8 8q6 -4 6 -11q0 -6 -6 -8q-8 0 -8 6zM508 172q14 0 61 41q0 47 -41 70q-20 -62 -20 -111z M541 221v4q0 8 8 8h2q6 0 6 -8v-4q0 -8 -8 -8t-8 8zM596 874q0 27 22 35v76q29 0 29 -47q0 -24 -8 -51q-11 -37 -27 -37t-16 24zM598 772q0 21 14 21l6 -2q11 -9 29 -29q-4 -14 -14 -21q-35 0 -35 31zM625 1008q0 14 6 41t6 41q0 9 -5 27.5t-5 27.5q0 8 21 38l28 40h35 q0 -39 -25 -108q-27 -72 -29 -107h-32zM676 1282q0 12 20.5 29t20.5 28q0 5 -2 11q-20 27 -21 32q0 17 25 17q26 0 26 -39q0 -23 -11 -59q-12 -40 -27 -50q-31 0 -31 31zM682 350q1 5 4 10q4 -4 4 -10l-4 -8q-4 1 -4 8zM692 301q1 5 4 10q4 -4 4 -10l-4 -8q-4 1 -4 8z M702 258l3 12l2 2q4 -8 4 -14t-4 -14l-2 4zM711 209l2 12l2 2q4 -8 4 -14t-4 -14l-2 4zM721 174q0 8 4 10q4 -4 4 -10l-4 -10q-4 2 -4 10zM745 1448v29h19v-29h-19zM745 1505v21h5q16 0 16 -21h-21z" />
<glyph unicode="&#xc1;" horiz-adv-x="770" d="M57 59q0 18 2 27l265 1186q9 41 55 41q39 0 53 -31q6 43 25 49q13 -6 39 -109q24 -96 24 -126h-45l123 -539q7 -1 20 -80q19 31 19 98q4 -16 25 -94q14 -53 14 -92v-8l-39 29v-39l70 -328q0 -11 -16 -23t-27 -12q-46 0 -66 60q-10 49 -20 96q-14 -8 -50.5 -64.5 t-50.5 -64.5q-26 0 -26 51q0 23 10 67t10 66q0 53 -20 74h-215q-15 0 -28 -66q-14 -71 -32 -82q-20 -137 -78 -137q-41 0 -41 51zM182 195q0 -9 4 -11l4 9q0 6 -4 12q-4 -2 -4 -10zM193 233q0 -8 4 -10l4 10l-4 11q-4 -2 -4 -11zM246 459q10 22 28 108q7 -108 50 -108h127 q10 18 30 49h4q0 -6 3.5 -17t3.5 -16q0 -8 -21 -16h14q11 0 21 4q8 15 4 35l-78 422q-11 57 -55 57q-40 0 -53 -68l-78 -401v-49zM391 1430l143 223h129l-205 -223h-67zM473 573v5q0 8 8 8q6 -4 6 -11q0 -6 -6 -8q-8 0 -8 6zM508 172q14 0 61 41q0 47 -41 70 q-20 -62 -20 -111zM541 221v4q0 8 8 8h2q6 0 6 -8v-4q0 -8 -8 -8t-8 8zM596 874q0 27 22 35v76q29 0 29 -47q0 -24 -8 -51q-11 -37 -27 -37t-16 24zM598 772q0 21 14 21l6 -2q11 -9 29 -29q-4 -14 -14 -21q-35 0 -35 31zM625 1008q0 14 6 41t6 41q0 9 -5 27.5t-5 27.5 q0 8 21 38l28 40h35q0 -39 -25 -108q-27 -72 -29 -107h-32zM676 1282q0 12 20.5 29t20.5 28q0 5 -2 11q-20 27 -21 32q0 17 25 17q26 0 26 -39q0 -23 -11 -59q-12 -40 -27 -50q-31 0 -31 31zM682 350q1 5 4 10q4 -4 4 -10l-4 -8q-4 1 -4 8zM692 301q1 5 4 10q4 -4 4 -10 l-4 -8q-4 1 -4 8zM702 258l3 12l2 2q4 -8 4 -14t-4 -14l-2 4zM711 209l2 12l2 2q4 -8 4 -14t-4 -14l-2 4zM721 174q0 8 4 10q4 -4 4 -10l-4 -10q-4 2 -4 10zM745 1448v29h19v-29h-19zM745 1505v21h5q16 0 16 -21h-21z" />
<glyph unicode="&#xc2;" horiz-adv-x="770" d="M57 59q0 18 2 27l265 1186q9 41 55 41q39 0 53 -31q6 43 25 49q13 -6 39 -109q24 -96 24 -126h-45l123 -539q7 -1 20 -80q19 31 19 98q4 -16 25 -94q14 -53 14 -92v-8l-39 29v-39l70 -328q0 -11 -16 -23t-27 -12q-46 0 -66 60q-10 49 -20 96q-14 -8 -50.5 -64.5 t-50.5 -64.5q-26 0 -26 51q0 23 10 67t10 66q0 53 -20 74h-215q-15 0 -28 -66q-14 -71 -32 -82q-20 -137 -78 -137q-41 0 -41 51zM182 195q0 -9 4 -11l4 9q0 6 -4 12q-4 -2 -4 -10zM193 233q0 -8 4 -10l4 10l-4 11q-4 -2 -4 -11zM220 1344q0 45 67 133q45 59 78 106 q14 27 39 27q29 0 76 -80q37 -51 112 -158v-28q-8 0 -26 -2q-16 -4 -25 8l-90 127q-25 55 -47 55l-2 -2q-38 -52 -86 -106q-71 -80 -96 -80zM246 459q10 22 28 108q7 -108 50 -108h127q10 18 30 49h4q0 -6 3.5 -17t3.5 -16q0 -8 -21 -16h14q11 0 21 4q8 15 4 35l-78 422 q-11 57 -55 57q-40 0 -53 -68l-78 -401v-49zM473 573v5q0 8 8 8q6 -4 6 -11q0 -6 -6 -8q-8 0 -8 6zM508 172q14 0 61 41q0 47 -41 70q-20 -62 -20 -111zM541 221v4q0 8 8 8h2q6 0 6 -8v-4q0 -8 -8 -8t-8 8zM596 874q0 27 22 35v76q29 0 29 -47q0 -24 -8 -51q-11 -37 -27 -37 t-16 24zM598 772q0 21 14 21l6 -2q11 -9 29 -29q-4 -14 -14 -21q-35 0 -35 31zM625 1008q0 14 6 41t6 41q0 9 -5 27.5t-5 27.5q0 8 21 38l28 40h35q0 -39 -25 -108q-27 -72 -29 -107h-32zM676 1282q0 12 20.5 29t20.5 28q0 5 -2 11q-20 27 -21 32q0 17 25 17q26 0 26 -39 q0 -23 -11 -59q-12 -40 -27 -50q-31 0 -31 31zM682 350q1 5 4 10q4 -4 4 -10l-4 -8q-4 1 -4 8zM692 301q1 5 4 10q4 -4 4 -10l-4 -8q-4 1 -4 8zM702 258l3 12l2 2q4 -8 4 -14t-4 -14l-2 4zM711 209l2 12l2 2q4 -8 4 -14t-4 -14l-2 4zM721 174q0 8 4 10q4 -4 4 -10l-4 -10 q-4 2 -4 10zM745 1448v29h19v-29h-19zM745 1505v21h5q16 0 16 -21h-21z" />
<glyph unicode="&#xc3;" horiz-adv-x="770" d="M57 59q0 18 2 27l265 1186q9 41 55 41q39 0 53 -31q6 43 25 49q13 -6 39 -109q24 -96 24 -126h-45l123 -539q7 -1 20 -80q19 31 19 98q4 -16 25 -94q14 -53 14 -92v-8l-39 29v-39l70 -328q0 -11 -16 -23t-27 -12q-46 0 -66 60q-10 49 -20 96q-14 -8 -50.5 -64.5 t-50.5 -64.5q-26 0 -26 51q0 23 10 67t10 66q0 53 -20 74h-215q-15 0 -28 -66q-14 -71 -32 -82q-20 -137 -78 -137q-41 0 -41 51zM182 195q0 -9 4 -11l4 9q0 6 -4 12q-4 -2 -4 -10zM193 233q0 -8 4 -10l4 10l-4 11q-4 -2 -4 -11zM238 1444q0 26 24.5 53t49.5 27 q31 0 105 -48t105 -48q13 0 37.5 10t36.5 10v-18q-27 -43 -31 -48q-14 -14 -43 -14q-30 0 -103 47t-103 47q-13 0 -39.5 -9t-38.5 -9zM246 459q10 22 28 108q7 -108 50 -108h127q10 18 30 49h4q0 -6 3.5 -17t3.5 -16q0 -8 -21 -16h14q11 0 21 4q8 15 4 35l-78 422 q-11 57 -55 57q-40 0 -53 -68l-78 -401v-49zM473 573v5q0 8 8 8q6 -4 6 -11q0 -6 -6 -8q-8 0 -8 6zM508 172q14 0 61 41q0 47 -41 70q-20 -62 -20 -111zM541 221v4q0 8 8 8h2q6 0 6 -8v-4q0 -8 -8 -8t-8 8zM596 874q0 27 22 35v76q29 0 29 -47q0 -24 -8 -51q-11 -37 -27 -37 t-16 24zM598 772q0 21 14 21l6 -2q11 -9 29 -29q-4 -14 -14 -21q-35 0 -35 31zM625 1008q0 14 6 41t6 41q0 9 -5 27.5t-5 27.5q0 8 21 38l28 40h35q0 -39 -25 -108q-27 -72 -29 -107h-32zM676 1282q0 12 20.5 29t20.5 28q0 5 -2 11q-20 27 -21 32q0 17 25 17q26 0 26 -39 q0 -23 -11 -59q-12 -40 -27 -50q-31 0 -31 31zM682 350q1 5 4 10q4 -4 4 -10l-4 -8q-4 1 -4 8zM692 301q1 5 4 10q4 -4 4 -10l-4 -8q-4 1 -4 8zM702 258l3 12l2 2q4 -8 4 -14t-4 -14l-2 4zM711 209l2 12l2 2q4 -8 4 -14t-4 -14l-2 4zM721 174q0 8 4 10q4 -4 4 -10l-4 -10 q-4 2 -4 10zM745 1448v29h19v-29h-19zM745 1505v21h5q16 0 16 -21h-21z" />
<glyph unicode="&#xc4;" horiz-adv-x="770" d="M57 59q0 18 2 27l265 1186q9 41 55 41q39 0 53 -31q6 43 25 49q13 -6 39 -109q24 -96 24 -126h-45l123 -539q7 -1 20 -80q19 31 19 98q4 -16 25 -94q14 -53 14 -92v-8l-39 29v-39l70 -328q0 -11 -16 -23t-27 -12q-46 0 -66 60q-10 49 -20 96q-14 -8 -50.5 -64.5 t-50.5 -64.5q-26 0 -26 51q0 23 10 67t10 66q0 53 -20 74h-215q-15 0 -28 -66q-14 -71 -32 -82q-20 -137 -78 -137q-41 0 -41 51zM182 195q0 -9 4 -11l4 9q0 6 -4 12q-4 -2 -4 -10zM193 233q0 -8 4 -10l4 10l-4 11q-4 -2 -4 -11zM205 1428q0 28 20.5 48.5t48.5 20.5 q72 0 72 -69q0 -68 -72 -68q-69 0 -69 68zM246 459q10 22 28 108q7 -108 50 -108h127q10 18 30 49h4q0 -6 3.5 -17t3.5 -16q0 -8 -21 -16h14q11 0 21 4q8 15 4 35l-78 422q-11 57 -55 57q-40 0 -53 -68l-78 -401v-49zM444 1432q0 71 72 71t72 -71q0 -30 -21 -51t-51 -21 q-72 0 -72 72zM473 573v5q0 8 8 8q6 -4 6 -11q0 -6 -6 -8q-8 0 -8 6zM508 172q14 0 61 41q0 47 -41 70q-20 -62 -20 -111zM541 221v4q0 8 8 8h2q6 0 6 -8v-4q0 -8 -8 -8t-8 8zM596 874q0 27 22 35v76q29 0 29 -47q0 -24 -8 -51q-11 -37 -27 -37t-16 24zM598 772q0 21 14 21 l6 -2q11 -9 29 -29q-4 -14 -14 -21q-35 0 -35 31zM625 1008q0 14 6 41t6 41q0 9 -5 27.5t-5 27.5q0 8 21 38l28 40h35q0 -39 -25 -108q-27 -72 -29 -107h-32zM676 1282q0 12 20.5 29t20.5 28q0 5 -2 11q-20 27 -21 32q0 17 25 17q26 0 26 -39q0 -23 -11 -59q-12 -40 -27 -50 q-31 0 -31 31zM682 350q1 5 4 10q4 -4 4 -10l-4 -8q-4 1 -4 8zM692 301q1 5 4 10q4 -4 4 -10l-4 -8q-4 1 -4 8zM702 258l3 12l2 2q4 -8 4 -14t-4 -14l-2 4zM711 209l2 12l2 2q4 -8 4 -14t-4 -14l-2 4zM721 174q0 8 4 10q4 -4 4 -10l-4 -10q-4 2 -4 10zM745 1448v29h19v-29 h-19zM745 1505v21h5q16 0 16 -21h-21z" />
<glyph unicode="&#xc5;" horiz-adv-x="770" d="M57 59q0 18 2 27l265 1186q9 41 55 41q39 0 53 -31q6 43 25 49q13 -6 39 -109q24 -96 24 -126h-45l123 -539q7 -1 20 -80q19 31 19 98q4 -16 25 -94q14 -53 14 -92v-8l-39 29v-39l70 -328q0 -11 -16 -23t-27 -12q-46 0 -66 60q-10 49 -20 96q-14 -8 -50.5 -64.5 t-50.5 -64.5q-26 0 -26 51q0 23 10 67t10 66q0 53 -20 74h-215q-15 0 -28 -66q-14 -71 -32 -82q-20 -137 -78 -137q-41 0 -41 51zM182 195q0 -9 4 -11l4 9q0 6 -4 12q-4 -2 -4 -10zM193 233q0 -8 4 -10l4 10l-4 11q-4 -2 -4 -11zM246 459q10 22 28 108q7 -108 50 -108h127 q10 18 30 49h4q0 -6 3.5 -17t3.5 -16q0 -8 -21 -16h14q11 0 21 4q8 15 4 35l-78 422q-11 57 -55 57q-40 0 -53 -68l-78 -401v-49zM263 1580v22q0 31 16 47v-57q18 65 70 93h-34q12 13 34 13q10 -4 16 -4h3q3 2 7 4l8 -8q1 0 15 -4q78 -21 78 -85v-74q0 -55 -84 -90v-29 q-2 -3 -5 -4h-4q-4 1 -6 4v29q-84 11 -96 98l-7 -4v3q0 8 -5.5 23t-5.5 23zM330 1516q0 -19 11 -19h36v30q3 3 6 4h4q2 -2 3 -4v-30q-14 -4 -26 -11q23 -1 16 -1q48 0 48 27v53q-3 -16 -17 -34v106q-3 4 -19 4h-5q0 -6 -2 -20q-1 -4 -4.5 -11t-3.5 -10q-5 1 -7 5v37 q-40 0 -40 -30v-96zM425 1614q0 -3 3 -3q3 1 3 4q-1 3 -3 4q-3 -1 -3 -3v-2zM473 573v5q0 8 8 8q6 -4 6 -11q0 -6 -6 -8q-8 0 -8 6zM508 172q14 0 61 41q0 47 -41 70q-20 -62 -20 -111zM541 221v4q0 8 8 8h2q6 0 6 -8v-4q0 -8 -8 -8t-8 8zM596 874q0 27 22 35v76 q29 0 29 -47q0 -24 -8 -51q-11 -37 -27 -37t-16 24zM598 772q0 21 14 21l6 -2q11 -9 29 -29q-4 -14 -14 -21q-35 0 -35 31zM625 1008q0 14 6 41t6 41q0 9 -5 27.5t-5 27.5q0 8 21 38l28 40h35q0 -39 -25 -108q-27 -72 -29 -107h-32zM676 1282q0 12 20.5 29t20.5 28 q0 5 -2 11q-20 27 -21 32q0 17 25 17q26 0 26 -39q0 -23 -11 -59q-12 -40 -27 -50q-31 0 -31 31zM682 350q1 5 4 10q4 -4 4 -10l-4 -8q-4 1 -4 8zM692 301q1 5 4 10q4 -4 4 -10l-4 -8q-4 1 -4 8zM702 258l3 12l2 2q4 -8 4 -14t-4 -14l-2 4zM711 209l2 12l2 2q4 -8 4 -14 t-4 -14l-2 4zM721 174q0 8 4 10q4 -4 4 -10l-4 -10q-4 2 -4 10zM745 1448v29h19v-29h-19zM745 1505v21h5q16 0 16 -21h-21z" />
<glyph unicode="&#xc6;" horiz-adv-x="1133" d="M56 56q2 18 5 26l456 1201q15 40 61 31l6 -1q20 14 64 35q66 30 88 30h293l20 -14h-303l-20 -21h294q17 0 38.5 -19t21.5 -36q0 -19 -11 -38q-13 -23 -30 -23h-303q-13 -8 -29 -25v-381l29 -35h243l21 -18h-166v-14q197 0 197 -64q0 -17 -12.5 -38t-28.5 -21h-254 q-13 -8 -29 -25v-102l5 -59q5 -54 -2 -93l-2 -8l-1 2v-121q0 -30 57 -30q23 0 31 2q4 18 14 20q13 -6 25 -27h195l30 -14l-10 -14h-215l186 -15q60 -5 60 -57q0 -65 -41 -65h-211v-162q-6 -10 -29 -13v160l-14 15h-105v-19q-2 -11 -19.5 -20t-28.5 -7q-45 8 -55 71v2 q-7 10 -7 18v76q-17 -10 -57 -53q-45 -49 -61 -55q-25 5 -16 55q4 22 21.5 63.5t20.5 63.5q10 53 -6 77l-194 3q-15 1 -36 -62q-32 -100 -58 -112q-36 -133 -94 -126q-41 5 -34 56zM298 162q-1 8 3 10q4 -6 5 -12l-4 -9q-4 2 -4 11zM307 201q-1 9 3 11l5 -11l-4 -10 q-4 2 -4 10zM318 464q13 20 41 104q-3 -55 6.5 -85t30.5 -29l104 6q13 16 39 43h3q2 -12 2 -34q-2 -8 -24 -12l14 -3q11 -2 21 1q11 13 10 33v81q-2 2 -2 4v5q0 4 2 5l-3 335q-1 57 -44 65q-27 5 -57 -82l-137 -389zM726 156q8 -4 28 -4h12q21 0 29 4q-3 4 -24 4h-21 q-23 0 -24 -4zM726 754h69v12q-55 0 -69 -12zM801 301q0 12 13 31l6 -2l4 -6v-9q0 -14 -23 -14zM803 -207q0 8 11 12q12 -4 12 -30q0 -27 -12 -29q-11 2 -11 12v35zM805 244v20h19v-20h-19zM805 506v33h9q8 -11 10 -21q-4 -10 -19 -12zM842 -14q2 10 21 14l2 -10v-10 q-6 -7 -13 -9l-4 4zM863 205v137h20v-137h-20zM863 381v70h20v-82q-20 4 -20 12zM863 500v8q4 6 10 10q6 -4 10 -10v-8q-4 -6 -10 -11q-6 5 -10 11zM863 582v12q0 22 16 22q14 0 14 -28q0 -31 -14 -31q-16 0 -16 25zM922 850l4 4l6 -4l-6 -4z" />
<glyph unicode="&#xc7;" horiz-adv-x="750" d="M46 469v590q0 106 49 182v-969q-49 31 -49 197zM114 346v678q0 211 225 319h-127q35 35 78 35q17 0 44 -12q35 -16 44 -18q139 -37 209 -91q94 -72 94 -198q0 -45 -57 -45q-53 0 -64 63q-14 80 -35 94q2 -6 2 -14q0 -10 -12 -14q-20 12 -35 55q-8 23 -82 23 q-157 0 -157 -138v-829q0 -14 15 -46t26 -38h88l-41 -25l10 -10q39 -2 47 -2q104 0 143 53q10 13 35 103q15 53 60 53q49 0 49 -66q0 -100 -86 -180q-65 -60 -138 -75q-64 -49 -64 -72q0 -19 10 -35h23q182 0 182 -127q0 -75 -68 -119q-59 -39 -137 -39t-157 29l10 31h186 q15 0 49 39v43q0 76 -49 94q-22 8 -117 8q-2 4 -2 16q4 11 91 121l20 7q-13 -1 -26 -1q-132 0 -212 101q-74 94 -74 229zM495 303v16q0 37 20 41v-12q0 -26 -18 -55q-2 4 -2 10z" />
<glyph unicode="&#xc8;" horiz-adv-x="657" d="M80 70v1230q12 17 77.5 47.5t88.5 30.5h293l20 -14h-303l-20 -21h294q17 0 38.5 -19t21.5 -36q0 -19 -11 -38q-13 -23 -30 -23h-303q-13 -8 -29 -25v-381l29 -35h243l21 -18h-166v-14q197 0 197 -64q0 -17 -12.5 -38t-28.5 -21h-254q-13 -8 -29 -25v-381q0 -30 57 -30 q23 0 31 2q4 18 14 20q13 -6 25 -27h195l30 -14l-10 -14h-215l186 -15q60 -5 60 -57q0 -65 -41 -65h-211v-162q-6 -10 -29 -13v160l-14 15h-176q-39 26 -39 45zM117 1680h129l143 -224h-67zM236 156q8 -4 28 -4h12q21 0 29 4q-3 4 -24 4h-21q-23 0 -24 -4zM236 754h69v12 q-55 0 -69 -12zM311 301q0 12 13 31l6 -2l4 -6v-9q0 -14 -23 -14zM313 -207q0 8 11 12q12 -4 12 -30q0 -27 -12 -29q-11 2 -11 12v35zM315 244v20h19v-20h-19zM315 506v33h9q8 -11 10 -21q-4 -10 -19 -12zM352 -14q2 10 21 14l2 -10v-10q-6 -7 -13 -9l-4 4zM373 205v137h20 v-137h-20zM373 381v70h20v-82q-20 4 -20 12zM373 500v8q4 6 10 10q6 -4 10 -10v-8q-4 -6 -10 -11q-6 5 -10 11zM373 582v12q0 22 16 22q14 0 14 -28q0 -31 -14 -31q-16 0 -16 25zM432 850l4 4l6 -4l-6 -4z" />
<glyph unicode="&#xc9;" horiz-adv-x="657" d="M80 70v1230q12 17 77.5 47.5t88.5 30.5h293l20 -14h-303l-20 -21h294q17 0 38.5 -19t21.5 -36q0 -19 -11 -38q-13 -23 -30 -23h-303q-13 -8 -29 -25v-381l29 -35h243l21 -18h-166v-14q197 0 197 -64q0 -17 -12.5 -38t-28.5 -21h-254q-13 -8 -29 -25v-381q0 -30 57 -30 q23 0 31 2q4 18 14 20q13 -6 25 -27h195l30 -14l-10 -14h-215l186 -15q60 -5 60 -57q0 -65 -41 -65h-211v-162q-6 -10 -29 -13v160l-14 15h-176q-39 26 -39 45zM236 156q8 -4 28 -4h12q21 0 29 4q-3 4 -24 4h-21q-23 0 -24 -4zM236 754h69v12q-55 0 -69 -12zM311 301 q0 12 13 31l6 -2l4 -6v-9q0 -14 -23 -14zM311 1477l143 223h129l-205 -223h-67zM313 -207q0 8 11 12q12 -4 12 -30q0 -27 -12 -29q-11 2 -11 12v35zM315 244v20h19v-20h-19zM315 506v33h9q8 -11 10 -21q-4 -10 -19 -12zM352 -14q2 10 21 14l2 -10v-10q-6 -7 -13 -9l-4 4z M373 205v137h20v-137h-20zM373 381v70h20v-82q-20 4 -20 12zM373 500v8q4 6 10 10q6 -4 10 -10v-8q-4 -6 -10 -11q-6 5 -10 11zM373 582v12q0 22 16 22q14 0 14 -28q0 -31 -14 -31q-16 0 -16 25zM432 850l4 4l6 -4l-6 -4z" />
<glyph unicode="&#xca;" horiz-adv-x="657" d="M80 70v1230q12 17 77.5 47.5t88.5 30.5h293l20 -14h-303l-20 -21h294q17 0 38.5 -19t21.5 -36q0 -19 -11 -38q-13 -23 -30 -23h-303q-13 -8 -29 -25v-381l29 -35h243l21 -18h-166v-14q197 0 197 -64q0 -17 -12.5 -38t-28.5 -21h-254q-13 -8 -29 -25v-381q0 -30 57 -30 q23 0 31 2q4 18 14 20q13 -6 25 -27h195l30 -14l-10 -14h-215l186 -15q60 -5 60 -57q0 -65 -41 -65h-211v-162q-6 -10 -29 -13v160l-14 15h-176q-39 26 -39 45zM146 1428q0 45 67 133q45 59 78 106q14 27 39 27q29 0 76 -80q37 -51 112 -158v-28q-8 0 -26 -2q-16 -4 -25 8 l-90 127q-25 55 -47 55l-2 -2q-38 -52 -86 -106q-71 -80 -96 -80zM236 156q8 -4 28 -4h12q21 0 29 4q-3 4 -24 4h-21q-23 0 -24 -4zM236 754h69v12q-55 0 -69 -12zM311 301q0 12 13 31l6 -2l4 -6v-9q0 -14 -23 -14zM313 -207q0 8 11 12q12 -4 12 -30q0 -27 -12 -29 q-11 2 -11 12v35zM315 244v20h19v-20h-19zM315 506v33h9q8 -11 10 -21q-4 -10 -19 -12zM352 -14q2 10 21 14l2 -10v-10q-6 -7 -13 -9l-4 4zM373 205v137h20v-137h-20zM373 381v70h20v-82q-20 4 -20 12zM373 500v8q4 6 10 10q6 -4 10 -10v-8q-4 -6 -10 -11q-6 5 -10 11z M373 582v12q0 22 16 22q14 0 14 -28q0 -31 -14 -31q-16 0 -16 25zM432 850l4 4l6 -4l-6 -4z" />
<glyph unicode="&#xcb;" horiz-adv-x="657" d="M80 70v1230q12 17 77.5 47.5t88.5 30.5h293l20 -14h-303l-20 -21h294q17 0 38.5 -19t21.5 -36q0 -19 -11 -38q-13 -23 -30 -23h-303q-13 -8 -29 -25v-381l29 -35h243l21 -18h-166v-14q197 0 197 -64q0 -17 -12.5 -38t-28.5 -21h-254q-13 -8 -29 -25v-381q0 -30 57 -30 q23 0 31 2q4 18 14 20q13 -6 25 -27h195l30 -14l-10 -14h-215l186 -15q60 -5 60 -57q0 -65 -41 -65h-211v-162q-6 -10 -29 -13v160l-14 15h-176q-39 26 -39 45zM152 1514q0 28 20.5 48.5t48.5 20.5q72 0 72 -69q0 -68 -72 -68q-69 0 -69 68zM236 156q8 -4 28 -4h12 q21 0 29 4q-3 4 -24 4h-21q-23 0 -24 -4zM236 754h69v12q-55 0 -69 -12zM311 301q0 12 13 31l6 -2l4 -6v-9q0 -14 -23 -14zM313 -207q0 8 11 12q12 -4 12 -30q0 -27 -12 -29q-11 2 -11 12v35zM315 244v20h19v-20h-19zM315 506v33h9q8 -11 10 -21q-4 -10 -19 -12zM352 -14 q2 10 21 14l2 -10v-10q-6 -7 -13 -9l-4 4zM373 205v137h20v-137h-20zM373 381v70h20v-82q-20 4 -20 12zM373 500v8q4 6 10 10q6 -4 10 -10v-8q-4 -6 -10 -11q-6 5 -10 11zM373 582v12q0 22 16 22q14 0 14 -28q0 -31 -14 -31q-16 0 -16 25zM391 1518q0 71 72 71t72 -71 q0 -30 -21 -51t-51 -21q-72 0 -72 72zM432 850l4 4l6 -4l-6 -4z" />
<glyph unicode="&#xcc;" horiz-adv-x="352" d="M-151 825q0 17 28 17v-35q-28 0 -28 18zM-123 360v21h7q16 0 16 -21h-23zM-102 729v23q0 6 10 10l19 -21l-19 -18q-6 2 -10 6zM-73 1663h129l143 -224h-67zM-63 305v6q14 11 28 11q11 0 21 -11v-6q0 -14 -25 -14q-24 0 -24 14zM-43 250v22h10q15 0 19 -10q-6 -10 -29 -12 zM21 676q24 0 24 -17q0 -8 -10 -16q-14 6 -14 33zM53 596q3 4 11 4t10 -4l-10 -4zM84 885q0 85 2 159q3 111 6 158q-1 13 -1 33q0 19 1 45q9 57 60 57q14 0 36.5 -13t22.5 -26v-1241q0 -13 -23 -26t-36 -13q-52 0 -60 60q-2 15 -2 233q0 96 -3 287t-3 287zM230 195v1124 q0 31 20 39l25 -21v-360q43 -4 47 -8q16 -8 16 -41t-14 -41q-4 -4 -45 -8v-68h41q0 78 76 78q-2 3 -18 29q-11 19 -11 28q0 23 26 23q25 0 52 -41l-19 -21q19 -12 19 -35v-4q8 -8 28 -10l11 -6q2 -8 2 -16q0 -27 -31 -35h8q23 0 23 -21q0 -6 -70 -67h-25v67q-29 -76 -88 -69 l-16 2q-10 4 -12 10v-549l-25 -18q-20 8 -20 39zM287 1110v8q0 25 37 25q14 0 14 -27q0 -33 -35 -33q-16 0 -16 27zM377 993v33h10q10 -12 11 -16q0 -13 -21 -17zM393 1122h25q0 -12 -12 -18q-13 6 -13 18zM412 993q0 27 8 68l6 4q19 -8 19 -49q0 -23 -33 -23zM416 829 l10 -10v10h-10z" />
<glyph unicode="&#xcd;" horiz-adv-x="352" d="M-151 825q0 17 28 17v-35q-28 0 -28 18zM-123 360v21h7q16 0 16 -21h-23zM-102 729v23q0 6 10 10l19 -21l-19 -18q-6 2 -10 6zM-63 305v6q14 11 28 11q11 0 21 -11v-6q0 -14 -25 -14q-24 0 -24 14zM-43 250v22h10q15 0 19 -10q-6 -10 -29 -12zM21 676q24 0 24 -17 q0 -8 -10 -16q-14 6 -14 33zM53 596q3 4 11 4t10 -4l-10 -4zM84 885q0 85 2 159q3 111 6 158q-1 13 -1 33q0 19 1 45q9 57 60 57q14 0 36.5 -13t22.5 -26v-1241q0 -13 -23 -26t-36 -13q-52 0 -60 60q-2 15 -2 233q0 96 -3 287t-3 287zM146 1418l143 223h129l-205 -223h-67z M230 195v1124q0 31 20 39l25 -21v-360q43 -4 47 -8q16 -8 16 -41t-14 -41q-4 -4 -45 -8v-68h41q0 78 76 78q-2 3 -18 29q-11 19 -11 28q0 23 26 23q25 0 52 -41l-19 -21q19 -12 19 -35v-4q8 -8 28 -10l11 -6q2 -8 2 -16q0 -27 -31 -35h8q23 0 23 -21q0 -6 -70 -67h-25v67 q-29 -76 -88 -69l-16 2q-10 4 -12 10v-549l-25 -18q-20 8 -20 39zM287 1110v8q0 25 37 25q14 0 14 -27q0 -33 -35 -33q-16 0 -16 27zM377 993v33h10q10 -12 11 -16q0 -13 -21 -17zM393 1122h25q0 -12 -12 -18q-13 6 -13 18zM412 993q0 27 8 68l6 4q19 -8 19 -49 q0 -23 -33 -23zM416 829l10 -10v10h-10z" />
<glyph unicode="&#xce;" horiz-adv-x="352" d="M-151 825q0 17 28 17v-35q-28 0 -28 18zM-123 360v21h7q16 0 16 -21h-23zM-102 729v23q0 6 10 10l19 -21l-19 -18q-6 2 -10 6zM-63 305v6q14 11 28 11q11 0 21 -11v-6q0 -14 -25 -14q-24 0 -24 14zM-43 250v22h10q15 0 19 -10q-6 -10 -29 -12zM-30 1377q0 45 67 133 q45 59 78 106q14 27 39 27q29 0 76 -80q37 -51 112 -158v-28q-8 0 -26 -2q-16 -4 -25 8l-90 127q-25 55 -47 55l-2 -2q-38 -52 -86 -106q-71 -80 -96 -80zM21 676q24 0 24 -17q0 -8 -10 -16q-14 6 -14 33zM53 596q3 4 11 4t10 -4l-10 -4zM84 885q0 85 2 159q3 111 6 158 q-1 13 -1 33q0 19 1 45q9 57 60 57q14 0 36.5 -13t22.5 -26v-1241q0 -13 -23 -26t-36 -13q-52 0 -60 60q-2 15 -2 233q0 96 -3 287t-3 287zM230 195v1124q0 31 20 39l25 -21v-360q43 -4 47 -8q16 -8 16 -41t-14 -41q-4 -4 -45 -8v-68h41q0 78 76 78q-2 3 -18 29 q-11 19 -11 28q0 23 26 23q25 0 52 -41l-19 -21q19 -12 19 -35v-4q8 -8 28 -10l11 -6q2 -8 2 -16q0 -27 -31 -35h8q23 0 23 -21q0 -6 -70 -67h-25v67q-29 -76 -88 -69l-16 2q-10 4 -12 10v-549l-25 -18q-20 8 -20 39zM287 1110v8q0 25 37 25q14 0 14 -27q0 -33 -35 -33 q-16 0 -16 27zM377 993v33h10q10 -12 11 -16q0 -13 -21 -17zM393 1122h25q0 -12 -12 -18q-13 6 -13 18zM412 993q0 27 8 68l6 4q19 -8 19 -49q0 -23 -33 -23zM416 829l10 -10v10h-10z" />
<glyph unicode="&#xcf;" horiz-adv-x="352" d="M-151 825q0 17 28 17v-35q-28 0 -28 18zM-123 360v21h7q16 0 16 -21h-23zM-102 729v23q0 6 10 10l19 -21l-19 -18q-6 2 -10 6zM-63 305v6q14 11 28 11q11 0 21 -11v-6q0 -14 -25 -14q-24 0 -24 14zM-43 250v22h10q15 0 19 -10q-6 -10 -29 -12zM-27 1550q0 28 20.5 48.5 t48.5 20.5q72 0 72 -69q0 -68 -72 -68q-69 0 -69 68zM21 676q24 0 24 -17q0 -8 -10 -16q-14 6 -14 33zM53 596q3 4 11 4t10 -4l-10 -4zM84 885q0 85 2 159q3 111 6 158q-1 13 -1 33q0 19 1 45q9 57 60 57q14 0 36.5 -13t22.5 -26v-1241q0 -13 -23 -26t-36 -13q-52 0 -60 60 q-2 15 -2 233q0 96 -3 287t-3 287zM212 1554q0 71 72 71t72 -71q0 -30 -21 -51t-51 -21q-72 0 -72 72zM230 195v1124q0 31 20 39l25 -21v-360q43 -4 47 -8q16 -8 16 -41t-14 -41q-4 -4 -45 -8v-68h41q0 78 76 78q-2 3 -18 29q-11 19 -11 28q0 23 26 23q25 0 52 -41l-19 -21 q19 -12 19 -35v-4q8 -8 28 -10l11 -6q2 -8 2 -16q0 -27 -31 -35h8q23 0 23 -21q0 -6 -70 -67h-25v67q-29 -76 -88 -69l-16 2q-10 4 -12 10v-549l-25 -18q-20 8 -20 39zM287 1110v8q0 25 37 25q14 0 14 -27q0 -33 -35 -33q-16 0 -16 27zM377 993v33h10q10 -12 11 -16 q0 -13 -21 -17zM393 1122h25q0 -12 -12 -18q-13 6 -13 18zM412 993q0 27 8 68l6 4q19 -8 19 -49q0 -23 -33 -23zM416 829l10 -10v10h-10z" />
<glyph unicode="&#xd0;" horiz-adv-x="825" d="M-109 780q0 50 60 76q80 35 90 45q25 25 74 57v345q0 40 151 47q-10 18 -10 26q0 15 20 15t20 -20q0 -5 -1 -11q55 6 106 6q117 0 148 -39h-68q35 -22 166 -153h4q27 0 81.5 24.5t80.5 24.5l6 -2l4 -7q2 -2 2 -6q0 -24 -45 -36.5t-45 -34.5q0 -61 5 -181.5t5 -181.5v-291 q0 -123 -45 -190v852q-24 -6 -24 -41q0 -19 5 -57.5t5 -57.5v-602q0 -131 -68 -237q-78 -121 -202 -121h-258q-17 0 -43 39v800q-35 0 -111 -44t-113 -44zM236 1620q0 35 30 35h8q21 -10 21 -68q0 -7 -5 -21t-5 -20q0 -14 10 -40t10 -40q0 -34 -20 -57h-11q-10 10 -28 31 q4 6 10 18q-4 6 -10 21q4 6 10 18v4q0 20 -10 59.5t-10 59.5zM242 299q0 -129 2 -133q6 20 6 166v465q0 151 -6 161q-2 -24 -2 -139v-520zM242 1028q0 -30 4 -31q4 19 4 66v55q0 64 -4 66q-4 -4 -4 -29v-127zM248 154q0 -9 8 -9h2q6 0 6 9v4q0 8 -8 8t-8 -8v-4zM305 195 q0 -11 14 -25t25 -14h137q29 0 55 44q23 40 23 72v824h-10q-105 -43 -215 -107l10 -49l10 18l11 -18q0 -30 8 -90t8 -90q-37 0 -49 12q-6 6 -27 49v-626zM311 1194q0 -147 29 -147q24 0 105 41.5t96 60.5v6q-48 52 -84 64q-24 8 -109 8h-37v-33zM383 733q4 6 10 10h4 q25 0 25 -49v-10q-39 21 -39 49zM430 678q12 0 23 -12l-11 -11q-12 4 -12 23z" />
<glyph unicode="&#xd1;" horiz-adv-x="823" d="M86 68v1235q0 12 24 26q21 12 35 12q64 0 78 -59q4 49 29 49l6 -4q22 -57 141 -387l-4 -2q-4 0 -6 2q-24 40 -52 121q-30 88 -47 123h-18v-29l197 -549q21 -59 51 -59q16 0 38.5 9t22.5 22v725q0 11 26 24.5t38 13.5t37.5 -14t25.5 -24v-1010h19v1028l14 10l10 -10 l-10 -1155q-12 12 -33 39v-137q0 -39 -63 -39q-55 0 -80 67l-244 658q-19 53 -63 53v-621l-15 -20l-16 20v607l-18 -11v-714q0 -39 -64 -39q-59 0 -59 39zM205 1512q0 26 24.5 53t49.5 27q31 0 105 -48t105 -48q13 0 37.5 10t36.5 10v-18q-27 -43 -31 -48q-14 -14 -43 -14 q-30 0 -103 47t-103 47q-13 0 -39.5 -9t-38.5 -9z" />
<glyph unicode="&#xd2;" horiz-adv-x="743" d="M6 430v653q0 62 39 129v-911q-39 68 -39 129zM84 311v733q0 177 235 299h-137q47 35 88 35q25 -6 111 -28q151 -40 252 -158q12 -14 49 -14q0 -9 -10 -20t-11 -15v-4q0 -11 5.5 -32t5.5 -32v-792q0 -107 -97 -189q-92 -78 -200 -78q-113 0 -202 91t-89 204zM128 1621h129 l143 -224h-67zM211 244q0 -14 14 -42t25 -32h88l-29 -25l10 -10l47 -2l62 2q35 1 76 33t41 65v773l-21 -9v-88l10 -10v-10l-14 -10v-480q0 -39 -45 -106q0 108 -5 322.5t-5 322.5q-13 -10 -68 -39q-12 -7 -26 -28q-14 -24 -23 -31q-10 4 -10 28q61 78 127 138v206 q-13 11 -56 11h-38q-61 0 -107 -28q-53 -34 -53 -91v-10q18 2 31 10q2 10 8 29h4q-8 0 22 -9q2 -10 4 -30q-4 -7 -10 -11q-10 2 -20 11q2 -7 2 -13q0 -39 -41 -39v-798zM221 897v31h35q0 -31 -35 -31zM242 752h8v-11zM250 541q0 18 30 18v-35q-30 0 -30 17zM250 625 q0 20 20 20q10 0 10 -20v-11q-4 -8 -10 -8q-20 0 -20 19zM258 489q14 0 22 -12l-10 -8q-12 4 -12 20zM260 573v13h20q-6 -13 -20 -13zM285 727l4 6l4 -6l-4 -4zM297 778q0 35 35 35q0 -35 -35 -35zM405 1133q0 14 13 20v-20h-13zM432 1059q0 6 4 6l4 -6l-4 -4zM446 1016v10 h11v-10h-11zM487 1190q0 -8 8 -8h3q6 0 6 8v4q0 8 -9 8q-8 0 -8 -8v-4zM504 1178q20 -62 20 -134h10l11 11v37q0 63 -39 90zM670 1214q0 27 20 27h10v-4q0 -23 -30 -23zM680 1290l10 10h10l11 -10q-5 -6 -11 -10h-10q-6 4 -10 10zM690 977q6 12 21 12v-24q-15 0 -21 12z M694 1335q0 56 17 105q4 35 18 104q2 6 10 10h15q24 0 24 -20t-16.5 -69.5t-16.5 -75.5q0 -54 -51 -54zM729 977l10 10h10l11 -10l-11 -10h-10zM760 1300v19h18v-19h-18z" />
<glyph unicode="&#xd3;" horiz-adv-x="743" d="M6 430v653q0 62 39 129v-911q-39 68 -39 129zM84 311v733q0 177 235 299h-137q47 35 88 35q25 -6 111 -28q151 -40 252 -158q12 -14 49 -14q0 -9 -10 -20t-11 -15v-4q0 -11 5.5 -32t5.5 -32v-792q0 -107 -97 -189q-92 -78 -200 -78q-113 0 -202 91t-89 204zM211 244 q0 -14 14 -42t25 -32h88l-29 -25l10 -10l47 -2l62 2q35 1 76 33t41 65v773l-21 -9v-88l10 -10v-10l-14 -10v-480q0 -39 -45 -106q0 108 -5 322.5t-5 322.5q-13 -10 -68 -39q-12 -7 -26 -28q-14 -24 -23 -31q-10 4 -10 28q61 78 127 138v206q-13 11 -56 11h-38 q-61 0 -107 -28q-53 -34 -53 -91v-10q18 2 31 10q2 10 8 29h4q-8 0 22 -9q2 -10 4 -30q-4 -7 -10 -11q-10 2 -20 11q2 -7 2 -13q0 -39 -41 -39v-798zM221 897v31h35q0 -31 -35 -31zM242 752h8v-11zM250 541q0 18 30 18v-35q-30 0 -30 17zM250 625q0 20 20 20q10 0 10 -20 v-11q-4 -8 -10 -8q-20 0 -20 19zM258 489q14 0 22 -12l-10 -8q-12 4 -12 20zM260 573v13h20q-6 -13 -20 -13zM285 727l4 6l4 -6l-4 -4zM297 778q0 35 35 35q0 -35 -35 -35zM342 1448l143 223h129l-205 -223h-67zM405 1133q0 14 13 20v-20h-13zM432 1059q0 6 4 6l4 -6l-4 -4z M446 1016v10h11v-10h-11zM487 1190q0 -8 8 -8h3q6 0 6 8v4q0 8 -9 8q-8 0 -8 -8v-4zM504 1178q20 -62 20 -134h10l11 11v37q0 63 -39 90zM670 1214q0 27 20 27h10v-4q0 -23 -30 -23zM680 1290l10 10h10l11 -10q-5 -6 -11 -10h-10q-6 4 -10 10zM690 977q6 12 21 12v-24 q-15 0 -21 12zM694 1335q0 56 17 105q4 35 18 104q2 6 10 10h15q24 0 24 -20t-16.5 -69.5t-16.5 -75.5q0 -54 -51 -54zM729 977l10 10h10l11 -10l-11 -10h-10zM760 1300v19h18v-19h-18z" />
<glyph unicode="&#xd4;" horiz-adv-x="743" d="M6 430v653q0 62 39 129v-911q-39 68 -39 129zM84 311v733q0 177 235 299h-137q47 35 88 35q25 -6 111 -28q151 -40 252 -158q12 -14 49 -14q0 -9 -10 -20t-11 -15v-4q0 -11 5.5 -32t5.5 -32v-792q0 -107 -97 -189q-92 -78 -200 -78q-113 0 -202 91t-89 204zM190 1394 q0 45 67 133q45 59 78 106q14 27 39 27q29 0 76 -80q37 -51 112 -158v-28q-8 0 -26 -2q-16 -4 -25 8l-90 127q-25 55 -47 55l-2 -2q-38 -52 -86 -106q-71 -80 -96 -80zM211 244q0 -14 14 -42t25 -32h88l-29 -25l10 -10l47 -2l62 2q35 1 76 33t41 65v773l-21 -9v-88l10 -10 v-10l-14 -10v-480q0 -39 -45 -106q0 108 -5 322.5t-5 322.5q-13 -10 -68 -39q-12 -7 -26 -28q-14 -24 -23 -31q-10 4 -10 28q61 78 127 138v206q-13 11 -56 11h-38q-61 0 -107 -28q-53 -34 -53 -91v-10q18 2 31 10q2 10 8 29h4q-8 0 22 -9q2 -10 4 -30q-4 -7 -10 -11 q-10 2 -20 11q2 -7 2 -13q0 -39 -41 -39v-798zM221 897v31h35q0 -31 -35 -31zM242 752h8v-11zM250 541q0 18 30 18v-35q-30 0 -30 17zM250 625q0 20 20 20q10 0 10 -20v-11q-4 -8 -10 -8q-20 0 -20 19zM258 489q14 0 22 -12l-10 -8q-12 4 -12 20zM260 573v13h20 q-6 -13 -20 -13zM285 727l4 6l4 -6l-4 -4zM297 778q0 35 35 35q0 -35 -35 -35zM405 1133q0 14 13 20v-20h-13zM432 1059q0 6 4 6l4 -6l-4 -4zM446 1016v10h11v-10h-11zM487 1190q0 -8 8 -8h3q6 0 6 8v4q0 8 -9 8q-8 0 -8 -8v-4zM504 1178q20 -62 20 -134h10l11 11v37 q0 63 -39 90zM670 1214q0 27 20 27h10v-4q0 -23 -30 -23zM680 1290l10 10h10l11 -10q-5 -6 -11 -10h-10q-6 4 -10 10zM690 977q6 12 21 12v-24q-15 0 -21 12zM694 1335q0 56 17 105q4 35 18 104q2 6 10 10h15q24 0 24 -20t-16.5 -69.5t-16.5 -75.5q0 -54 -51 -54zM729 977 l10 10h10l11 -10l-11 -10h-10zM760 1300v19h18v-19h-18z" />
<glyph unicode="&#xd5;" horiz-adv-x="743" d="M6 430v653q0 62 39 129v-911q-39 68 -39 129zM84 311v733q0 177 235 299h-137q47 35 88 35q25 -6 111 -28q151 -40 252 -158q12 -14 49 -14q0 -9 -10 -20t-11 -15v-4q0 -11 5.5 -32t5.5 -32v-792q0 -107 -97 -189q-92 -78 -200 -78q-113 0 -202 91t-89 204zM211 244 q0 -14 14 -42t25 -32h88l-29 -25l10 -10l47 -2l62 2q35 1 76 33t41 65v773l-21 -9v-88l10 -10v-10l-14 -10v-480q0 -39 -45 -106q0 108 -5 322.5t-5 322.5q-13 -10 -68 -39q-12 -7 -26 -28q-14 -24 -23 -31q-10 4 -10 28q61 78 127 138v206q-13 11 -56 11h-38 q-61 0 -107 -28q-53 -34 -53 -91v-10q18 2 31 10q2 10 8 29h4q-8 0 22 -9q2 -10 4 -30q-4 -7 -10 -11q-10 2 -20 11q2 -7 2 -13q0 -39 -41 -39v-798zM221 897v31h35q0 -31 -35 -31zM242 752h8v-11zM250 541q0 18 30 18v-35q-30 0 -30 17zM250 625q0 20 20 20q10 0 10 -20 v-11q-4 -8 -10 -8q-20 0 -20 19zM258 489q14 0 22 -12l-10 -8q-12 4 -12 20zM260 573v13h20q-6 -13 -20 -13zM285 727l4 6l4 -6l-4 -4zM297 778q0 35 35 35q0 -35 -35 -35zM405 1133q0 14 13 20v-20h-13zM432 1059q0 6 4 6l4 -6l-4 -4zM446 1016v10h11v-10h-11zM487 1190 q0 -8 8 -8h3q6 0 6 8v4q0 8 -9 8q-8 0 -8 -8v-4zM504 1178q20 -62 20 -134h10l11 11v37q0 63 -39 90zM670 1214q0 27 20 27h10v-4q0 -23 -30 -23zM680 1290l10 10h10l11 -10q-5 -6 -11 -10h-10q-6 4 -10 10zM690 977q6 12 21 12v-24q-15 0 -21 12zM694 1335q0 56 17 105 q4 35 18 104q2 6 10 10h15q24 0 24 -20t-16.5 -69.5t-16.5 -75.5q0 -54 -51 -54zM729 977l10 10h10l11 -10l-11 -10h-10zM760 1300v19h18v-19h-18z" />
<glyph unicode="&#xd6;" horiz-adv-x="743" d="M6 430v653q0 62 39 129v-911q-39 68 -39 129zM84 311v733q0 177 235 299h-137q47 35 88 35q25 -6 111 -28q151 -40 252 -158q12 -14 49 -14q0 -9 -10 -20t-11 -15v-4q0 -11 5.5 -32t5.5 -32v-792q0 -107 -97 -189q-92 -78 -200 -78q-113 0 -202 91t-89 204zM181 1520 q0 28 20.5 48.5t48.5 20.5q72 0 72 -69q0 -68 -72 -68q-69 0 -69 68zM211 244q0 -14 14 -42t25 -32h88l-29 -25l10 -10l47 -2l62 2q35 1 76 33t41 65v773l-21 -9v-88l10 -10v-10l-14 -10v-480q0 -39 -45 -106q0 108 -5 322.5t-5 322.5q-13 -10 -68 -39q-12 -7 -26 -28 q-14 -24 -23 -31q-10 4 -10 28q61 78 127 138v206q-13 11 -56 11h-38q-61 0 -107 -28q-53 -34 -53 -91v-10q18 2 31 10q2 10 8 29h4q-8 0 22 -9q2 -10 4 -30q-4 -7 -10 -11q-10 2 -20 11q2 -7 2 -13q0 -39 -41 -39v-798zM221 897v31h35q0 -31 -35 -31zM242 752h8v-11z M250 541q0 18 30 18v-35q-30 0 -30 17zM250 625q0 20 20 20q10 0 10 -20v-11q-4 -8 -10 -8q-20 0 -20 19zM258 489q14 0 22 -12l-10 -8q-12 4 -12 20zM260 573v13h20q-6 -13 -20 -13zM285 727l4 6l4 -6l-4 -4zM297 778q0 35 35 35q0 -35 -35 -35zM405 1133q0 14 13 20v-20 h-13zM420 1524q0 71 72 71t72 -71q0 -30 -21 -51t-51 -21q-72 0 -72 72zM432 1059q0 6 4 6l4 -6l-4 -4zM446 1016v10h11v-10h-11zM487 1190q0 -8 8 -8h3q6 0 6 8v4q0 8 -9 8q-8 0 -8 -8v-4zM504 1178q20 -62 20 -134h10l11 11v37q0 63 -39 90zM670 1214q0 27 20 27h10v-4 q0 -23 -30 -23zM680 1290l10 10h10l11 -10q-5 -6 -11 -10h-10q-6 4 -10 10zM690 977q6 12 21 12v-24q-15 0 -21 12zM694 1335q0 56 17 105q4 35 18 104q2 6 10 10h15q24 0 24 -20t-16.5 -69.5t-16.5 -75.5q0 -54 -51 -54zM729 977l10 10h10l11 -10l-11 -10h-10zM760 1300v19 h18v-19h-18z" />
<glyph unicode="&#xd7;" horiz-adv-x="774" d="M65 868q-20 21 9 50q12 12 34 11t34 -13l152 -152l17 18q-58 66 -179 194q22 -22 98 -90q61 -54 97 -94l23 29q19 19 46 15l2 -2q-33 -34 -38 -73l2 -4q13 -10 36 -7l229 229l-212 -232l5 -45l215 215q11 11 34 12q22 1 34 -11q29 -29 7 -50l-232 -232l162 -163l-162 142 l-5 -30l230 -229q9 -10 13 -33q6 -45 -43 -45q-8 0 -19 1l-236 236q-15 3 -30 3t-31 -3l-228 -228q-22 -22 -51 7q-11 11 -10 34q0 23 12 34l222 222l-7 49l-159 -159l148 170l-9 11q-4 5 -12 5q-21 0 -62 -41q-11 11 -11 23q0 10 8 21q4 3 38 35zM249 629v7h7l1 -7h-8z M333 735l15 -15l-2 27zM376 692l5 -5l8 4l-6 5z" />
<glyph unicode="&#xd8;" horiz-adv-x="850" d="M86 430v653q0 62 39 129v-911q-39 68 -39 129zM164 311v733q0 177 235 299h-137q47 35 88 35q25 -6 111 -28q45 -12 85 -30q11 19 29 19q24 0 24 -30v-11l-1 -6q64 -40 115 -100q12 -14 49 -14q0 -9 -9.5 -20t-11.5 -15v-4q0 -11 5.5 -32t5.5 -32v-792q0 -107 -96 -189 q-93 -78 -201 -78q-57 0 -107 23h-7q-18 0 -24 17q-33 20 -63 52q-90 91 -90 203zM291 244q0 -13 13 -40t24 -33l131 711q-9 -16 -31 -42q-10 4 -10 28q24 31 49 59l54 294q-13 2 -32 2h-38q-61 0 -106 -28q-54 -34 -54 -91v-10q18 2 31 10q2 10 8 29h4q-8 0 22 -9 q2 -10 4 -30q-4 -7 -10 -11q-10 2 -20 11q2 -7 2 -13q0 -39 -41 -39v-798zM301 897v31h35q0 -31 -35 -31zM322 752h8v-11zM330 541q0 18 30 18v-35q-30 0 -30 17zM330 625q0 20 20 20q10 0 10 -20v-11q-4 -8 -10 -8q-20 0 -20 19zM338 489q14 0 22 -12l-10 -8q-12 4 -12 20z M340 573v13h20q-6 -13 -20 -13zM365 727l4 6l4 -6l-4 -4zM377 778q0 35 35 35q0 -35 -35 -35zM390 144l9 -9l47 -2l62 2q35 1 76 33t41 65v773l-21 -9v-88l10 -10v-10l-14 -10v-480q0 -39 -45 -106q0 108 -5 322.5t-5 322.5q-4 -3 -13 -8l-138 -760h24l-28 -24v-2zM485 1133 q0 14 13 20v-20h-13zM578 1182q6 0 6 8v4q0 4 -3 6zM584 1178q20 -62 20 -134h10l11 11v37q0 63 -39 90zM750 1214q0 27 20 27h10v-4q0 -23 -30 -23zM760 1290l10 10h10l11 -10q-5 -6 -11 -10h-10q-6 4 -10 10zM770 977q6 12 21 12v-24q-15 0 -21 12zM774 1335q0 56 17 105 q4 35 18 104q2 6 10 10h15q24 0 24 -20t-16.5 -69.5t-16.5 -75.5q0 -54 -51 -54zM809 977l10 10h10l11 -10l-11 -10h-10zM840 1300v19h18v-19h-18z" />
<glyph unicode="&#xd9;" horiz-adv-x="765" d="M40 139q4 6 10 19q-10 47 -10 39q0 75 4 153q5 103 6 152l10 686l15 18v176l24 31v4q0 8 -10 12.5t-10 16.5q0 27 14 27q13 0 24 -18t11 -32q0 -20 -10 -30v-166q10 -10 10 -39v-21q-10 -26 -10 -20q0 -10 6 -10q-8 0 18 4v164q0 10 26 24t38 14q30 0 59 -38 q17 -99 39 -295q4 2 10 2q49 0 49 -41q-53 -54 -57 -60q-18 0 -31 11v-314q78 -73 78 -88q0 -51 -78 -51v-236q0 -96 168 -96q43 0 62 10v1041l24 18q21 -8 21 -39v-848q0 -100 -31 -161h6q24 0 47 43q21 38 21 65v1039q0 10 25.5 24t37.5 14q23 0 41.5 -18t18.5 -41v-924 q0 -119 -63 -216q-69 -105 -181 -124q-26 -2 -90 -10q-12 -2 -39.5 -15t-42.5 -13q-59 0 -64 34h138q-105 52 -148 103q-28 -10 -28 -72q0 -27 -17 -27q-24 0 -24 60q0 6 5 17.5t5 17.5q0 9 -5 26.5t-5 26.5q0 8 5 24.5t5 24.5l-2 10l-8 9q-16 -26 -25 -50q-29 -77 -63 -77 q-29 0 -29 30zM105 90q0 12 13 29q12 -4 14 -29h-27zM134 299l4 -4l4 4l-4 6q-4 -1 -4 -6zM134 375q0 -23 4 -21q4 6 4 25v10q0 17 -4 25q-4 -2 -4 -21v-18zM134 510q0 -28 4 -29q4 11 4 31v16q0 23 -4 31q-4 -4 -4 -29v-20zM134 618q0 -8 4 -10l4 10l-4 11q-4 -2 -4 -11z M134 791q0 -14 4 -15q4 10 4 21v6q0 16 -4 22q-4 -2 -4 -18v-16zM134 862q0 -16 4 -18q4 6 4 20v8q0 15 -4 21l-2 -4l-2 -17v-10zM134 936l4 -4l4 4l-4 6q-4 -1 -4 -6zM134 991q0 -8 4 -10l4 10l-4 10q-4 -2 -4 -10zM140 244q0 -8 8 -8q7 4 7 10t-7 10q-8 0 -8 -8v-4z M140 283q0 -7 8 -7q7 3 7 9t-7 10q-8 0 -8 -8v-4zM200 1660h129l143 -224h-67zM282 623q0 6 4 6l4 -6l-4 -5zM296 498q0 -6 8 -6t8 8q0 10 -8 10t-8 -8v-4zM333 903q0 23 24 23q0 -22 -2 -25q-1 -14 -12 -18q-10 4 -10 20z" />
<glyph unicode="&#xda;" horiz-adv-x="765" d="M40 139q4 6 10 19q-10 47 -10 39q0 75 4 153q5 103 6 152l10 686l15 18v176l24 31v4q0 8 -10 12.5t-10 16.5q0 27 14 27q13 0 24 -18t11 -32q0 -20 -10 -30v-166q10 -10 10 -39v-21q-10 -26 -10 -20q0 -10 6 -10q-8 0 18 4v164q0 10 26 24t38 14q30 0 59 -38 q17 -99 39 -295q4 2 10 2q49 0 49 -41q-53 -54 -57 -60q-18 0 -31 11v-314q78 -73 78 -88q0 -51 -78 -51v-236q0 -96 168 -96q43 0 62 10v1041l24 18q21 -8 21 -39v-848q0 -100 -31 -161h6q24 0 47 43q21 38 21 65v1039q0 10 25.5 24t37.5 14q23 0 41.5 -18t18.5 -41v-924 q0 -119 -63 -216q-69 -105 -181 -124q-26 -2 -90 -10q-12 -2 -39.5 -15t-42.5 -13q-59 0 -64 34h138q-105 52 -148 103q-28 -10 -28 -72q0 -27 -17 -27q-24 0 -24 60q0 6 5 17.5t5 17.5q0 9 -5 26.5t-5 26.5q0 8 5 24.5t5 24.5l-2 10l-8 9q-16 -26 -25 -50q-29 -77 -63 -77 q-29 0 -29 30zM105 90q0 12 13 29q12 -4 14 -29h-27zM134 299l4 -4l4 4l-4 6q-4 -1 -4 -6zM134 375q0 -23 4 -21q4 6 4 25v10q0 17 -4 25q-4 -2 -4 -21v-18zM134 510q0 -28 4 -29q4 11 4 31v16q0 23 -4 31q-4 -4 -4 -29v-20zM134 618q0 -8 4 -10l4 10l-4 11q-4 -2 -4 -11z M134 791q0 -14 4 -15q4 10 4 21v6q0 16 -4 22q-4 -2 -4 -18v-16zM134 862q0 -16 4 -18q4 6 4 20v8q0 15 -4 21l-2 -4l-2 -17v-10zM134 936l4 -4l4 4l-4 6q-4 -1 -4 -6zM134 991q0 -8 4 -10l4 10l-4 10q-4 -2 -4 -10zM140 244q0 -8 8 -8q7 4 7 10t-7 10q-8 0 -8 -8v-4z M140 283q0 -7 8 -7q7 3 7 9t-7 10q-8 0 -8 -8v-4zM282 623q0 6 4 6l4 -6l-4 -5zM296 498q0 -6 8 -6t8 8q0 10 -8 10t-8 -8v-4zM333 903q0 23 24 23q0 -22 -2 -25q-1 -14 -12 -18q-10 4 -10 20zM367 1415l143 223h129l-205 -223h-67z" />
<glyph unicode="&#xdb;" horiz-adv-x="765" d="M40 139q4 6 10 19q-10 47 -10 39q0 75 4 153q5 103 6 152l10 686l15 18v176l24 31v4q0 8 -10 12.5t-10 16.5q0 27 14 27q13 0 24 -18t11 -32q0 -20 -10 -30v-166q10 -10 10 -39v-21q-10 -26 -10 -20q0 -10 6 -10q-8 0 18 4v164q0 10 26 24t38 14q30 0 59 -38 q17 -99 39 -295q4 2 10 2q49 0 49 -41q-53 -54 -57 -60q-18 0 -31 11v-314q78 -73 78 -88q0 -51 -78 -51v-236q0 -96 168 -96q43 0 62 10v1041l24 18q21 -8 21 -39v-848q0 -100 -31 -161h6q24 0 47 43q21 38 21 65v1039q0 10 25.5 24t37.5 14q23 0 41.5 -18t18.5 -41v-924 q0 -119 -63 -216q-69 -105 -181 -124q-26 -2 -90 -10q-12 -2 -39.5 -15t-42.5 -13q-59 0 -64 34h138q-105 52 -148 103q-28 -10 -28 -72q0 -27 -17 -27q-24 0 -24 60q0 6 5 17.5t5 17.5q0 9 -5 26.5t-5 26.5q0 8 5 24.5t5 24.5l-2 10l-8 9q-16 -26 -25 -50q-29 -77 -63 -77 q-29 0 -29 30zM105 90q0 12 13 29q12 -4 14 -29h-27zM134 299l4 -4l4 4l-4 6q-4 -1 -4 -6zM134 375q0 -23 4 -21q4 6 4 25v10q0 17 -4 25q-4 -2 -4 -21v-18zM134 510q0 -28 4 -29q4 11 4 31v16q0 23 -4 31q-4 -4 -4 -29v-20zM134 618q0 -8 4 -10l4 10l-4 11q-4 -2 -4 -11z M134 791q0 -14 4 -15q4 10 4 21v6q0 16 -4 22q-4 -2 -4 -18v-16zM134 862q0 -16 4 -18q4 6 4 20v8q0 15 -4 21l-2 -4l-2 -17v-10zM134 936l4 -4l4 4l-4 6q-4 -1 -4 -6zM134 991q0 -8 4 -10l4 10l-4 10q-4 -2 -4 -10zM140 244q0 -8 8 -8q7 4 7 10t-7 10q-8 0 -8 -8v-4z M140 283q0 -7 8 -7q7 3 7 9t-7 10q-8 0 -8 -8v-4zM250 1421q0 45 67 133q45 59 78 106q14 27 39 27q29 0 76 -80q37 -51 112 -158v-28q-8 0 -26 -2q-16 -4 -25 8l-90 127q-25 55 -47 55l-2 -2q-38 -52 -86 -106q-71 -80 -96 -80zM282 623q0 6 4 6l4 -6l-4 -5zM296 498 q0 -6 8 -6t8 8q0 10 -8 10t-8 -8v-4zM333 903q0 23 24 23q0 -22 -2 -25q-1 -14 -12 -18q-10 4 -10 20z" />
<glyph unicode="&#xdc;" horiz-adv-x="810" d="M40 139q4 6 10 19q-10 47 -10 39q0 75 4 153q5 103 6 152l10 686l15 18v176l24 31v4q0 8 -10 12.5t-10 16.5q0 27 14 27q13 0 24 -18t11 -32q0 -20 -10 -30v-166q10 -10 10 -39v-21q-10 -26 -10 -20q0 -10 6 -10q-8 0 18 4v164q0 10 26 24t38 14q30 0 59 -38 q17 -99 39 -295q4 2 10 2q49 0 49 -41q-53 -54 -57 -60q-18 0 -31 11v-314q78 -73 78 -88q0 -51 -78 -51v-236q0 -96 168 -96q43 0 62 10v1041l24 18q21 -8 21 -39v-848q0 -100 -31 -161h6q24 0 47 43q21 38 21 65v1039q0 10 25.5 24t37.5 14q23 0 41.5 -18t18.5 -41v-924 q0 -119 -63 -216q-69 -105 -181 -124q-26 -2 -90 -10q-12 -2 -39.5 -15t-42.5 -13q-59 0 -64 34h138q-105 52 -148 103q-28 -10 -28 -72q0 -27 -17 -27q-24 0 -24 60q0 6 5 17.5t5 17.5q0 9 -5 26.5t-5 26.5q0 8 5 24.5t5 24.5l-2 10l-8 9q-16 -26 -25 -50q-29 -77 -63 -77 q-29 0 -29 30zM105 90q0 12 13 29q12 -4 14 -29h-27zM134 299l4 -4l4 4l-4 6q-4 -1 -4 -6zM134 375q0 -23 4 -21q4 6 4 25v10q0 17 -4 25q-4 -2 -4 -21v-18zM134 510q0 -28 4 -29q4 11 4 31v16q0 23 -4 31q-4 -4 -4 -29v-20zM134 618q0 -8 4 -10l4 10l-4 11q-4 -2 -4 -11z M134 791q0 -14 4 -15q4 10 4 21v6q0 16 -4 22q-4 -2 -4 -18v-16zM134 862q0 -16 4 -18q4 6 4 20v8q0 15 -4 21l-2 -4l-2 -17v-10zM134 936l4 -4l4 4l-4 6q-4 -1 -4 -6zM134 991q0 -8 4 -10l4 10l-4 10q-4 -2 -4 -10zM140 244q0 -8 8 -8q7 4 7 10t-7 10q-8 0 -8 -8v-4z M140 283q0 -7 8 -7q7 3 7 9t-7 10q-8 0 -8 -8v-4zM211 1546q0 28 20.5 48.5t48.5 20.5q72 0 72 -69q0 -68 -72 -68q-69 0 -69 68zM282 623q0 6 4 6l4 -6l-4 -5zM296 498q0 -6 8 -6t8 8q0 10 -8 10t-8 -8v-4zM333 903q0 23 24 23q0 -22 -2 -25q-1 -14 -12 -18q-10 4 -10 20z M450 1550q0 71 72 71t72 -71q0 -30 -21 -51t-51 -21q-72 0 -72 72z" />
<glyph unicode="&#xdd;" horiz-adv-x="698" d="M59 1260q0 36 45 36q44 0 54 -32l137 -451q3 -3 22 -31q12 -18 31 -18q41 0 53 41l129 430q18 59 68 59h29q12 -12 12 -41q0 -12 -2 -18l-145 -432q-35 -78 -74 -215q-8 -29 -4 -90q4 -60 4 -92v-365q0 -21 -21.5 -40t-42.5 -19q-12 0 -38.5 14t-26.5 24v549l-15 -401 q-1 -32 -18 -39l-25 18v549q-36 74 -36 117q0 12 2 21q-138 411 -138 426zM176 1428q0 28 20.5 48.5t48.5 20.5q72 0 72 -69q0 -68 -72 -68q-69 0 -69 68zM415 1432q0 71 72 71t72 -71q0 -30 -21 -51t-51 -21q-72 0 -72 72zM467 1278q0 6 4 6l4 -6l-4 -4z" />
<glyph unicode="&#xde;" horiz-adv-x="756" d="M33 947h24q0 -13 -12 -19q-12 6 -12 19zM84 -12v1623q0 39 59 39q64 0 64 -39v-148l24 21l25 -31v-153q25 -31 25 -40q0 -10 -9.5 -30t-9.5 -31q27 -4 34 -6q48 36 84 53q28 16 50 16q84 0 123 -75l1 -2q23 -44 34 -97l14 -45l2 -4v37q0 109 -12 147q-23 72 -107 86 q15 21 39 21q25 0 47 -23q84 -88 84 -248v-63q0 -37 -1 -59t-1 -10v-14q4 -30 4 -66v-21q-1 -16 -1 -26q0 -11 1 -27v-21q0 -36 -4 -66v-15q0 2 -3 -4q-7 -34 -19 -58q-10 -31 -27 -86v37l-2 -4l-14 -45q-11 -53 -34 -97l-1 -2q-39 -75 -123 -75q-22 0 -50 16q-36 17 -84 53 q-7 -2 -34 -6q0 -11 9.5 -31t9.5 -30q0 -9 -25 -40l-25 -31l-24 21v-301q0 -39 -64 -39q-59 0 -59 39zM260 467l2 -2l11 -6h126q21 8 36 19q25 25 36 55q4 17 4 37v459q0 20 -4 37q-11 30 -36 55q-15 11 -36 19h-2h-124l-11 -6l-2 -2v-60q12 -26 21 -39q-7 -26 -21 -49v-369 q14 -23 21 -49q-9 -13 -21 -39v-60zM285 830q0 20 39 20q16 0 16 -20h-55zM309 879l4 4l6 -4l-6 -4zM338 791l10 10v-10h-10zM350 691v4q0 8 8 8h2q7 0 7 -8v-4q0 -9 -9 -9q-8 0 -8 9zM385 812q0 12 12 28q13 -4 13 -28h-25zM426 713q8 13 20 13v-25q-14 0 -20 12zM524 1471 l4 4l4 -4l-4 -4zM537 388q11 14 16 24l1 2q-8 -14 -17 -26zM537 1211q9 -12 17 -26l-1 2q-5 10 -16 24zM620 320v10h21v-10h-21zM719 623q8 80 37 80q14 0 14 -39q0 -41 -51 -41z" />
<glyph unicode="&#xdf;" horiz-adv-x="791" d="M74 -91v1285q0 15 29.5 29t34.5 18q12 10 16 33q10 53 47 65q10 2 88 2q147 0 227 -28q114 -40 164 -150q29 -64 29 -78v-165q0 -29 -53.5 -102.5t-53.5 -133.5q117 -129 117 -283q0 -175 -80.5 -287.5t-195.5 -109.5q-51 2 -51 76q0 50 62 76q148 2 148 245v127 q0 60 -50 100q-46 38 -108 38q-10 -19 -8 -39q-22 10 -53 10h-76q-10 0 -18 -2l-10 -8l-2 -643q0 -116 -80 -116h-43q-25 0 -38.5 1t-2.5 1q-39 16 -39 39zM123 -52l29 -29v10q0 225 -5.5 414t-5.5 284q-18 -21 -18 -31v-648zM123 705q0 -9 18 -29v508q-18 -21 -18 -29v-450 zM279 811q0 -10 14 -24.5t24 -14.5h168q41 0 79 41.5t38 83.5v190q0 45 -41.5 90.5t-85.5 45.5h-158q35 -11 50 -25h-88v-387zM317 666q17 -4 35 -4h21q18 0 33 4q-1 2 -9 4h-51q-27 0 -29 -4zM532 842v184q21 -29 21 -92q0 -64 -21 -92z" />
<glyph unicode="&#xe0;" d="M60 244q0 229 166 274q41 6 88 19q40 12 137 129q2 59 2 43q0 114 -133 114q-57 0 -120 -45t-77 -45q-35 0 -35 39q0 68 88 121q78 47 152 47q82 0 141 -45q36 -28 72 -88q29 -49 43 -53v116q16 -18 41 -61q12 -37 12 -193h21v-20h-25v-391q-2 -8 -14 -21h-10 q-17 11 -25 21v-137q0 -41 -66 -41q-34 0 -57 42q-20 35 -20 72l2 4q0 7 4 20t4 19v236l-29 29h-137q-10 -39 -31 -39q-18 0 -18 20l-10 -10l-2 -60q-1 -25 11.5 -77.5t12.5 -77.5h-43q0 14 12 18q-19 7 -28 53l-13 66v-137q0 -27 58 -27q0 -37 -27 -33q7 -6 72 -28 q55 -19 55 -33q0 -31 -40 -51q-33 -17 -68 -17q-84 0 -129 75q-37 63 -37 153zM93 1259h129l143 -224h-67zM156 705q6 19 30.5 41t43.5 26q-2 -57 -13 -57q-10 0 -24 8v-41h-10q-19 0 -25 12zM168 526v31h35q0 -31 -35 -31zM232 356l4 4l4 -4l-4 -4zM256 195h9l6 -5l4 -6 h-10q-7 4 -9 11zM285 176l4 4l6 -4l-6 -4zM305 166q2 4 9 4q5 -1 10 -4q-4 -4 -10 -4zM334 969q49 30 78 30t78 -30h-156zM351 762q0 12 12 20v-20h-12zM379 688q0 6 4 6l4 -6l-4 -4zM383 537h11q18 0 38.5 16t20.5 33q0 6 -2 20zM394 645v10h8v-10h-8zM615 846q0 24 22 24 h11q0 -24 -33 -24zM627 920l10 10h11l10 -10l-10 -11h-11zM641 965q0 57 17 106q4 35 18 103q2 6 12 12h13q24 0 24 -21q0 -19 -16 -69t-16 -76q0 -55 -52 -55zM676 606l10 10h11l10 -10l-10 -10h-11zM707 930v18h18v-18h-18z" />
<glyph unicode="&#xe1;" d="M60 244q0 229 166 274q41 6 88 19q40 12 137 129q2 59 2 43q0 114 -133 114q-57 0 -120 -45t-77 -45q-35 0 -35 39q0 68 88 121q78 47 152 47q82 0 141 -45q36 -28 72 -88q29 -49 43 -53v116q16 -18 41 -61q12 -37 12 -193h21v-20h-25v-391q-2 -8 -14 -21h-10 q-17 11 -25 21v-137q0 -41 -66 -41q-34 0 -57 42q-20 35 -20 72l2 4q0 7 4 20t4 19v236l-29 29h-137q-10 -39 -31 -39q-18 0 -18 20l-10 -10l-2 -60q-1 -25 11.5 -77.5t12.5 -77.5h-43q0 14 12 18q-19 7 -28 53l-13 66v-137q0 -27 58 -27q0 -37 -27 -33q7 -6 72 -28 q55 -19 55 -33q0 -31 -40 -51q-33 -17 -68 -17q-84 0 -129 75q-37 63 -37 153zM156 705q6 19 30.5 41t43.5 26q-2 -57 -13 -57q-10 0 -24 8v-41h-10q-19 0 -25 12zM168 526v31h35q0 -31 -35 -31zM232 356l4 4l4 -4l-4 -4zM256 195h9l6 -5l4 -6h-10q-7 4 -9 11zM276 1032 l143 223h129l-205 -223h-67zM285 176l4 4l6 -4l-6 -4zM305 166q2 4 9 4q5 -1 10 -4q-4 -4 -10 -4zM334 969q49 30 78 30t78 -30h-156zM351 762q0 12 12 20v-20h-12zM379 688q0 6 4 6l4 -6l-4 -4zM383 537h11q18 0 38.5 16t20.5 33q0 6 -2 20zM394 645v10h8v-10h-8zM615 846 q0 24 22 24h11q0 -24 -33 -24zM627 920l10 10h11l10 -10l-10 -11h-11zM641 965q0 57 17 106q4 35 18 103q2 6 12 12h13q24 0 24 -21q0 -19 -16 -69t-16 -76q0 -55 -52 -55zM676 606l10 10h11l10 -10l-10 -10h-11zM707 930v18h18v-18h-18z" />
<glyph unicode="&#xe2;" d="M60 244q0 229 166 274q41 6 88 19q40 12 137 129q2 59 2 43q0 114 -133 114q-57 0 -120 -45t-77 -45q-35 0 -35 39q0 68 88 121q78 47 152 47q82 0 141 -45q36 -28 72 -88q29 -49 43 -53v116q16 -18 41 -61q12 -37 12 -193h21v-20h-25v-391q-2 -8 -14 -21h-10 q-17 11 -25 21v-137q0 -41 -66 -41q-34 0 -57 42q-20 35 -20 72l2 4q0 7 4 20t4 19v236l-29 29h-137q-10 -39 -31 -39q-18 0 -18 20l-10 -10l-2 -60q-1 -25 11.5 -77.5t12.5 -77.5h-43q0 14 12 18q-19 7 -28 53l-13 66v-137q0 -27 58 -27q0 -37 -27 -33q7 -6 72 -28 q55 -19 55 -33q0 -31 -40 -51q-33 -17 -68 -17q-84 0 -129 75q-37 63 -37 153zM142 1038q0 45 67 133q45 59 78 106q14 27 39 27q29 0 76 -80q37 -51 112 -158v-28q-8 0 -26 -2q-16 -4 -25 8l-90 127q-25 55 -47 55l-2 -2q-38 -52 -86 -106q-71 -80 -96 -80zM156 705 q6 19 30.5 41t43.5 26q-2 -57 -13 -57q-10 0 -24 8v-41h-10q-19 0 -25 12zM168 526v31h35q0 -31 -35 -31zM232 356l4 4l4 -4l-4 -4zM256 195h9l6 -5l4 -6h-10q-7 4 -9 11zM285 176l4 4l6 -4l-6 -4zM305 166q2 4 9 4q5 -1 10 -4q-4 -4 -10 -4zM334 969q49 30 78 30t78 -30 h-156zM351 762q0 12 12 20v-20h-12zM379 688q0 6 4 6l4 -6l-4 -4zM383 537h11q18 0 38.5 16t20.5 33q0 6 -2 20zM394 645v10h8v-10h-8zM615 846q0 24 22 24h11q0 -24 -33 -24zM627 920l10 10h11l10 -10l-10 -11h-11zM641 965q0 57 17 106q4 35 18 103q2 6 12 12h13 q24 0 24 -21q0 -19 -16 -69t-16 -76q0 -55 -52 -55zM676 606l10 10h11l10 -10l-10 -10h-11zM707 930v18h18v-18h-18z" />
<glyph unicode="&#xe3;" d="M60 244q0 229 166 274q41 6 88 19q40 12 137 129q2 59 2 43q0 114 -133 114q-57 0 -120 -45t-77 -45q-35 0 -35 39q0 68 88 121q78 47 152 47q82 0 141 -45q36 -28 72 -88q29 -49 43 -53v116q16 -18 41 -61q12 -37 12 -193h21v-20h-25v-391q-2 -8 -14 -21h-10 q-17 11 -25 21v-137q0 -41 -66 -41q-34 0 -57 42q-20 35 -20 72l2 4q0 7 4 20t4 19v236l-29 29h-137q-10 -39 -31 -39q-18 0 -18 20l-10 -10l-2 -60q-1 -25 11.5 -77.5t12.5 -77.5h-43q0 14 12 18q-19 7 -28 53l-13 66v-137q0 -27 58 -27q0 -37 -27 -33q7 -6 72 -28 q55 -19 55 -33q0 -31 -40 -51q-33 -17 -68 -17q-84 0 -129 75q-37 63 -37 153zM152 1144q0 26 24.5 53t49.5 27q31 0 105 -48t105 -48q13 0 37.5 10t36.5 10v-18q-27 -43 -31 -48q-14 -14 -43 -14q-30 0 -103 47t-103 47q-13 0 -39.5 -9t-38.5 -9zM156 705q6 19 30.5 41 t43.5 26q-2 -57 -13 -57q-10 0 -24 8v-41h-10q-19 0 -25 12zM168 526v31h35q0 -31 -35 -31zM232 356l4 4l4 -4l-4 -4zM256 195h9l6 -5l4 -6h-10q-7 4 -9 11zM285 176l4 4l6 -4l-6 -4zM305 166q2 4 9 4q5 -1 10 -4q-4 -4 -10 -4zM334 969q49 30 78 30t78 -30h-156zM351 762 q0 12 12 20v-20h-12zM379 688q0 6 4 6l4 -6l-4 -4zM383 537h11q18 0 38.5 16t20.5 33q0 6 -2 20zM394 645v10h8v-10h-8zM615 846q0 24 22 24h11q0 -24 -33 -24zM627 920l10 10h11l10 -10l-10 -11h-11zM641 965q0 57 17 106q4 35 18 103q2 6 12 12h13q24 0 24 -21 q0 -19 -16 -69t-16 -76q0 -55 -52 -55zM676 606l10 10h11l10 -10l-10 -10h-11zM707 930v18h18v-18h-18z" />
<glyph unicode="&#xe4;" d="M60 244q0 229 166 274q41 6 88 19q40 12 137 129q2 59 2 43q0 114 -133 114q-57 0 -120 -45t-77 -45q-35 0 -35 39q0 68 88 121q78 47 152 47q82 0 141 -45q36 -28 72 -88q29 -49 43 -53v116q16 -18 41 -61q12 -37 12 -193h21v-20h-25v-391q-2 -8 -14 -21h-10 q-17 11 -25 21v-137q0 -41 -66 -41q-34 0 -57 42q-20 35 -20 72l2 4q0 7 4 20t4 19v236l-29 29h-137q-10 -39 -31 -39q-18 0 -18 20l-10 -10l-2 -60q-1 -25 11.5 -77.5t12.5 -77.5h-43q0 14 12 18q-19 7 -28 53l-13 66v-137q0 -27 58 -27q0 -37 -27 -33q7 -6 72 -28 q55 -19 55 -33q0 -31 -40 -51q-33 -17 -68 -17q-84 0 -129 75q-37 63 -37 153zM140 1158q0 28 20.5 48.5t48.5 20.5q72 0 72 -69q0 -68 -72 -68q-69 0 -69 68zM156 705q6 19 30.5 41t43.5 26q-2 -57 -13 -57q-10 0 -24 8v-41h-10q-19 0 -25 12zM168 526v31h35q0 -31 -35 -31 zM232 356l4 4l4 -4l-4 -4zM256 195h9l6 -5l4 -6h-10q-7 4 -9 11zM285 176l4 4l6 -4l-6 -4zM305 166q2 4 9 4q5 -1 10 -4q-4 -4 -10 -4zM334 969q49 30 78 30t78 -30h-156zM351 762q0 12 12 20v-20h-12zM379 688q0 6 4 6l4 -6l-4 -4zM379 1162q0 71 72 71t72 -71 q0 -30 -21 -51t-51 -21q-72 0 -72 72zM383 537h11q18 0 38.5 16t20.5 33q0 6 -2 20zM394 645v10h8v-10h-8zM615 846q0 24 22 24h11q0 -24 -33 -24zM627 920l10 10h11l10 -10l-10 -11h-11zM641 965q0 57 17 106q4 35 18 103q2 6 12 12h13q24 0 24 -21q0 -19 -16 -69t-16 -76 q0 -55 -52 -55zM676 606l10 10h11l10 -10l-10 -10h-11zM707 930v18h18v-18h-18z" />
<glyph unicode="&#xe5;" d="M60 244q0 229 166 274q41 6 88 19q40 12 137 129q2 59 2 43q0 114 -133 114q-57 0 -120 -45t-77 -45q-35 0 -35 39q0 68 88 121q78 47 152 47q82 0 141 -45q36 -28 72 -88q29 -49 43 -53v116q16 -18 41 -61q12 -37 12 -193h21v-20h-25v-391q-2 -8 -14 -21h-10 q-17 11 -25 21v-137q0 -41 -66 -41q-34 0 -57 42q-20 35 -20 72l2 4q0 7 4 20t4 19v236l-29 29h-137q-10 -39 -31 -39q-18 0 -18 20l-10 -10l-2 -60q-1 -25 11.5 -77.5t12.5 -77.5h-43q0 14 12 18q-19 7 -28 53l-13 66v-137q0 -27 58 -27q0 -37 -27 -33q7 -6 72 -28 q55 -19 55 -33q0 -31 -40 -51q-33 -17 -68 -17q-84 0 -129 75q-37 63 -37 153zM156 705q6 19 30.5 41t43.5 26q-2 -57 -13 -57q-10 0 -24 8v-41h-10q-19 0 -25 12zM168 526v31h35q0 -31 -35 -31zM221 1189v22q0 31 16 47v-57q18 65 70 93h-34q12 13 34 13q10 -4 16 -4h3 q3 2 7 4l8 -8q1 0 15 -4q78 -21 78 -85v-74q0 -55 -84 -90v-29q-2 -3 -5 -4h-4q-4 1 -6 4v29q-84 11 -96 98l-7 -4v3q0 8 -5.5 23t-5.5 23zM232 356l4 4l4 -4l-4 -4zM256 195h9l6 -5l4 -6h-10q-7 4 -9 11zM285 176l4 4l6 -4l-6 -4zM288 1125q0 -19 11 -19h36v30q3 3 6 4h4 q2 -2 3 -4v-30q-14 -4 -26 -11q23 -1 16 -1q48 0 48 27v53q-3 -16 -17 -34v106q-3 4 -19 4h-5q0 -6 -2 -20q-1 -4 -4.5 -11t-3.5 -10q-5 1 -7 5v37q-40 0 -40 -30v-96zM305 166q2 4 9 4q5 -1 10 -4q-4 -4 -10 -4zM334 969q49 30 78 30t78 -30h-156zM351 762q0 12 12 20v-20 h-12zM379 688q0 6 4 6l4 -6l-4 -4zM383 537h11q18 0 38.5 16t20.5 33q0 6 -2 20zM383 1223q0 -3 3 -3q3 1 3 4q-1 3 -3 4q-3 -1 -3 -3v-2zM394 645v10h8v-10h-8zM615 846q0 24 22 24h11q0 -24 -33 -24zM627 920l10 10h11l10 -10l-10 -11h-11zM641 965q0 57 17 106 q4 35 18 103q2 6 12 12h13q24 0 24 -21q0 -19 -16 -69t-16 -76q0 -55 -52 -55zM676 606l10 10h11l10 -10l-10 -10h-11zM707 930v18h18v-18h-18z" />
<glyph unicode="&#xe6;" horiz-adv-x="1121" d="M74 244q0 229 166 274q41 6 88 19q40 12 137 129v14q-16 10 -16 22q0 6 17 27q-11 94 -132 94q-57 0 -120 -45t-77 -45q-35 0 -35 39q0 68 88 121q78 47 152 47q82 0 141 -45q36 -28 72 -88q5 -9 10 -16q12 24 33 48v31q6 -7 13 -17q34 35 92 79h-77q6 35 77 35 q32 0 154 -47q190 -73 190 -338q0 -138 -41 -138h-313q-39 -26 -39 -45v-186q12 -25 31 -53h88l-31 -25h49q48 0 105.5 45t75.5 45q45 0 45 -37q0 -43 -61 -99q-57 -52 -103 -64q-35 -9 -74 -9q-113 0 -181 89v-37q0 -41 -66 -41q-34 0 -57 42q-20 35 -20 72l2 4q0 7 4 20 t4 19v236l-29 29h-137q-10 -39 -31 -39q-18 0 -18 20l-10 -10l-2 -60q-1 -25 11.5 -77.5t12.5 -77.5h-43q0 14 12 18q-19 7 -28 53l-13 66v-137q0 -27 58 -27q0 -37 -27 -33q7 -6 72 -28q55 -19 55 -33q0 -31 -40 -51q-33 -17 -68 -17q-84 0 -129 75q-37 63 -37 153z M170 705q6 19 30.5 41t43.5 26q-2 -57 -13 -57q-10 0 -24 8v-41h-10q-19 0 -25 12zM182 526v31h35q0 -31 -35 -31zM246 356l4 4l4 -4l-4 -4zM270 195h9l6 -5l4 -6h-10q-7 4 -9 11zM299 176l4 4l6 -4l-6 -4zM319 166q2 4 9 4q5 -1 10 -4q-4 -4 -10 -4zM348 969q49 30 78 30 t78 -30h-156zM365 762q0 12 12 20v-20h-12zM393 688q0 6 4 6l4 -6l-4 -4zM397 537h11q18 0 38.5 16t20.5 33q0 6 -2 20zM408 645v10h8v-10h-8zM641 920l10 10h11l10 -10l-10 -11h-11zM654 586q6 3 16 10l2 2q27 19 85 72q71 64 112 82q1 5 2 12v12q0 45 -57 45h-29 q-131 0 -131 -78v-127h18v-18l-2 -2h-16v-10zM655 965q0 57 17 106q4 35 18 103q2 6 12 12h13q24 0 24 -21q0 -19 -16 -69t-16 -76q0 -55 -52 -55zM671 688l4 4l4 -4l-4 -4zM675 537l18 -11q14 31 31 31q6 -16 8 -31h72q0 13 53 47q16 10 16 89v26h-2l-4 -2l-14 -6 q-14 -6 -70 -41q-67 -42 -108 -102zM685 645v8h8v-8h-8zM830 526h27q63 0 63 60l-2 18q-5 -20 -46.5 -45t-41.5 -33zM914 713l2 -15l2 -6q4 10 4 21q0 10 -4 20l-2 -4zM918 918q4 6 11 10h10l6 -4l2 -6q-2 -7 -8 -11h-10zM996 928v20h21v-20h-21z" />
<glyph unicode="&#xe7;" horiz-adv-x="657" d="M-53 795q0 15 27 40t44 29q0 -20 -6 -55l-6 -4q-12 2 -24 10v-43q-35 4 -35 23zM-43 616v33h35q0 -33 -35 -33zM-25 471h11v-8zM-16 344q0 21 22 21q10 0 10 -21v-10q-4 -8 -10 -8q-22 0 -22 18zM-14 262q0 17 28 17v-35q-28 0 -28 18zM-6 209q14 0 20 -10l-8 -11 q-12 5 -12 21zM-4 293v12h18q-4 -12 -18 -12zM20 446q0 7 5 7l4 -7l-4 -4zM33 498q0 37 35 37q0 -37 -35 -37zM72 432q0 228 14 289q30 132 164 231q42 31 106 31q79 0 149 -62.5t70 -140.5q0 -32 -4 -41q-6 -14 -34 -14q-29 0 -79 54.5t-81 54.5q0 -45 -68 -95 q-85 -62 -98 -82q10 -2 10 -24v-15q-2 -6 -10 -10v-381q0 -20 26 -35q23 -14 44 -14h145q25 0 57.5 36t32.5 62h59q-4 -12 -12 -38q11 -33 12 -31q0 -70 -71 -109q-37 -19 -133 -69q-72 -38 -72 -105q0 -8 43 -8q67 0 116 -30q58 -36 58 -99q0 -75 -74 -120 q-64 -38 -143 -38q-25 0 -82 11q-65 13 -65 28q0 21 10 21h176q61 0 61 90q0 92 -86 92h-39q-23 0 -37.5 -1t-5.5 -1l-10 14q30 23 98 129q-28 16 -106 58q-141 77 -141 362zM215 733q90 41 115 103h-21q-90 0 -94 -103zM217 586q0 37 57 37q0 -15 -22 -27q-18 -10 -35 -10z M307 639h25q0 -12 -13 -21q-12 7 -12 21zM393 692l4 6l4 -6l-4 -4zM418 1012q0 6 14 10l10 -4l4 -6l-4 -6l-6 -5h-10l-4 5zM426 698q6 11 20 11v-23q-14 0 -20 12zM432 1057q0 21 18.5 118t24.5 101h17q24 0 24 -21q-35 -77 -35 -145q0 -53 -49 -53zM467 698q4 9 14 11 q4 -2 15 -11q-7 -10 -15 -12q-6 0 -10 6zM496 1020v20h20v-20h-20z" />
<glyph unicode="&#xe8;" horiz-adv-x="683" d="M32 702q0 5 20.5 31t22.5 33q25 54 31 63v-184q18 113 53 166q31 47 127 121h-77q6 35 77 35q32 0 154 -47q190 -73 190 -338q0 -138 -41 -138h-313q-39 -26 -39 -45v-186q12 -25 31 -53h88l-31 -25h49q48 0 106 45t75 45q45 0 45 -37q0 -43 -61 -99q-57 -52 -103 -64 q-35 -9 -74 -9q-116 0 -184 93q-57 78 -68 202q0 -47 -10 -67q0 -11 -8 -11q-21 0 -21 19q0 5 5.5 15t5.5 16q0 40 -13 116q-13 81 -16 117q-6 4 -10 12l-2 13l2 16q4 6 10 8l8 109q-29 12 -29 28zM71 170q0 18 29 18v-36q-29 0 -29 18zM79 119q15 0 21 -13l-8 -10 q-13 4 -13 23zM82 203v10h18q-4 -10 -18 -10zM134 1265h129l143 -224h-67zM237 586q22 11 103 84q71 64 112 82q1 5 2 12v12q0 45 -57 45h-29q-131 0 -131 -78v-157zM254 688l4 4l4 -4l-4 -4zM258 537l18 -11q14 31 31 31q6 -16 8 -31h72q0 13 53 47q16 10 16 89v26h-2 l-4 -2l-14 -6q-14 -6 -70 -41q-66 -42 -108 -102zM268 645v8h8v-8h-8zM413 526h27q63 0 63 60l-2 18q-4 -20 -46 -45t-42 -33zM497 713l2 -15l2 -6q4 10 4 21q0 10 -4 20l-2 -4zM501 918q4 6 11 10h10l6 -4l2 -6q-2 -7 -8 -11h-10zM516 963q0 57 16 106q5 38 19 102 q2 7 12 13h12q25 0 25 -21q0 -19 -16.5 -69t-16.5 -76q0 -55 -51 -55zM579 928v20h21v-20h-21z" />
<glyph unicode="&#xe9;" horiz-adv-x="683" d="M32 702q0 5 20.5 31t22.5 33q25 54 31 63v-184q18 113 53 166q31 47 127 121h-77q6 35 77 35q32 0 154 -47q190 -73 190 -338q0 -138 -41 -138h-313q-39 -26 -39 -45v-186q12 -25 31 -53h88l-31 -25h49q48 0 106 45t75 45q45 0 45 -37q0 -43 -61 -99q-57 -52 -103 -64 q-35 -9 -74 -9q-116 0 -184 93q-57 78 -68 202q0 -47 -10 -67q0 -11 -8 -11q-21 0 -21 19q0 5 5.5 15t5.5 16q0 40 -13 116q-13 81 -16 117q-6 4 -10 12l-2 13l2 16q4 6 10 8l8 109q-29 12 -29 28zM71 170q0 18 29 18v-36q-29 0 -29 18zM79 119q15 0 21 -13l-8 -10 q-13 4 -13 23zM82 203v10h18q-4 -10 -18 -10zM237 586q22 11 103 84q71 64 112 82q1 5 2 12v12q0 45 -57 45h-29q-131 0 -131 -78v-157zM254 688l4 4l4 -4l-4 -4zM258 537l18 -11q14 31 31 31q6 -16 8 -31h72q0 13 53 47q16 10 16 89v26h-2l-4 -2l-14 -6q-14 -6 -70 -41 q-66 -42 -108 -102zM268 645v8h8v-8h-8zM300 1038l143 223h129l-205 -223h-67zM413 526h27q63 0 63 60l-2 18q-4 -20 -46 -45t-42 -33zM497 713l2 -15l2 -6q4 10 4 21q0 10 -4 20l-2 -4zM501 918q4 6 11 10h10l6 -4l2 -6q-2 -7 -8 -11h-10zM516 963q0 57 16 106q5 38 19 102 q2 7 12 13h12q25 0 25 -21q0 -19 -16.5 -69t-16.5 -76q0 -55 -51 -55zM579 928v20h21v-20h-21z" />
<glyph unicode="&#xea;" horiz-adv-x="683" d="M32 702q0 5 20.5 31t22.5 33q25 54 31 63v-184q18 113 53 166q31 47 127 121h-77q6 35 77 35q32 0 154 -47q190 -73 190 -338q0 -138 -41 -138h-313q-39 -26 -39 -45v-186q12 -25 31 -53h88l-31 -25h49q48 0 106 45t75 45q45 0 45 -37q0 -43 -61 -99q-57 -52 -103 -64 q-35 -9 -74 -9q-116 0 -184 93q-57 78 -68 202q0 -47 -10 -67q0 -11 -8 -11q-21 0 -21 19q0 5 5.5 15t5.5 16q0 40 -13 116q-13 81 -16 117q-6 4 -10 12l-2 13l2 16q4 6 10 8l8 109q-29 12 -29 28zM71 170q0 18 29 18v-36q-29 0 -29 18zM79 119q15 0 21 -13l-8 -10 q-13 4 -13 23zM82 203v10h18q-4 -10 -18 -10zM160 1050q0 45 67 133q45 59 78 106q14 27 39 27q29 0 76 -80q37 -51 112 -158v-28q-8 0 -26 -2q-16 -4 -25 8l-90 127q-25 55 -47 55l-2 -2q-38 -52 -86 -106q-71 -80 -96 -80zM237 586q22 11 103 84q71 64 112 82q1 5 2 12v12 q0 45 -57 45h-29q-131 0 -131 -78v-157zM254 688l4 4l4 -4l-4 -4zM258 537l18 -11q14 31 31 31q6 -16 8 -31h72q0 13 53 47q16 10 16 89v26h-2l-4 -2l-14 -6q-14 -6 -70 -41q-66 -42 -108 -102zM268 645v8h8v-8h-8zM413 526h27q63 0 63 60l-2 18q-4 -20 -46 -45t-42 -33z M497 713l2 -15l2 -6q4 10 4 21q0 10 -4 20l-2 -4zM501 918q4 6 11 10h10l6 -4l2 -6q-2 -7 -8 -11h-10zM516 963q0 57 16 106q5 38 19 102q2 7 12 13h12q25 0 25 -21q0 -19 -16.5 -69t-16.5 -76q0 -55 -51 -55zM579 928v20h21v-20h-21z" />
<glyph unicode="&#xeb;" horiz-adv-x="683" d="M32 702q0 5 20.5 31t22.5 33q25 54 31 63v-184q18 113 53 166q31 47 127 121h-77q6 35 77 35q32 0 154 -47q190 -73 190 -338q0 -138 -41 -138h-313q-39 -26 -39 -45v-186q12 -25 31 -53h88l-31 -25h49q48 0 106 45t75 45q45 0 45 -37q0 -43 -61 -99q-57 -52 -103 -64 q-35 -9 -74 -9q-116 0 -184 93q-57 78 -68 202q0 -47 -10 -67q0 -11 -8 -11q-21 0 -21 19q0 5 5.5 15t5.5 16q0 40 -13 116q-13 81 -16 117q-6 4 -10 12l-2 13l2 16q4 6 10 8l8 109q-29 12 -29 28zM71 170q0 18 29 18v-36q-29 0 -29 18zM79 119q15 0 21 -13l-8 -10 q-13 4 -13 23zM82 203v10h18q-4 -10 -18 -10zM163 1152q0 28 20.5 48.5t48.5 20.5q72 0 72 -69q0 -68 -72 -68q-69 0 -69 68zM237 586q22 11 103 84q71 64 112 82q1 5 2 12v12q0 45 -57 45h-29q-131 0 -131 -78v-157zM254 688l4 4l4 -4l-4 -4zM258 537l18 -11q14 31 31 31 q6 -16 8 -31h72q0 13 53 47q16 10 16 89v26h-2l-4 -2l-14 -6q-14 -6 -70 -41q-66 -42 -108 -102zM268 645v8h8v-8h-8zM402 1156q0 71 72 71t72 -71q0 -30 -21 -51t-51 -21q-72 0 -72 72zM413 526h27q63 0 63 60l-2 18q-4 -20 -46 -45t-42 -33zM497 713l2 -15l2 -6q4 10 4 21 q0 10 -4 20l-2 -4zM501 918q4 6 11 10h10l6 -4l2 -6q-2 -7 -8 -11h-10zM516 963q0 57 16 106q5 38 19 102q2 7 12 13h12q25 0 25 -21q0 -19 -16.5 -69t-16.5 -76q0 -55 -51 -55zM579 928v20h21v-20h-21z" />
<glyph unicode="&#xec;" horiz-adv-x="245" d="M-109 1295h129l143 -224h-67zM67 57v844q0 14 24 27q21 12 36 12t36 -13t21 -26v-844q0 -12 -21.5 -25.5t-35.5 -13.5q-13 0 -36.5 13.5t-23.5 25.5zM204 205v766l21 18l18 -18v-766l-18 -21z" />
<glyph unicode="&#xed;" horiz-adv-x="245" d="M67 57v844q0 14 24 27q21 12 36 12t36 -13t21 -26v-844q0 -12 -21.5 -25.5t-35.5 -13.5q-13 0 -36.5 13.5t-23.5 25.5zM98 1020l143 223h129l-205 -223h-67zM204 205v766l21 18l18 -18v-766l-18 -21z" />
<glyph unicode="&#xee;" horiz-adv-x="245" d="M-66 1062q0 45 67 133q45 59 78 106q14 27 39 27q29 0 76 -80q37 -51 112 -158v-28q-8 0 -26 -2q-16 -4 -25 8l-90 127q-25 55 -47 55l-2 -2q-38 -52 -86 -106q-71 -80 -96 -80zM67 57v844q0 14 24 27q21 12 36 12t36 -13t21 -26v-844q0 -12 -21.5 -25.5t-35.5 -13.5 q-13 0 -36.5 13.5t-23.5 25.5zM204 205v766l21 18l18 -18v-766l-18 -21z" />
<glyph unicode="&#xef;" horiz-adv-x="245" d="M-64 1176q0 28 20.5 48.5t48.5 20.5q72 0 72 -69q0 -68 -72 -68q-69 0 -69 68zM67 57v844q0 14 24 27q21 12 36 12t36 -13t21 -26v-844q0 -12 -21.5 -25.5t-35.5 -13.5q-13 0 -36.5 13.5t-23.5 25.5zM175 1180q0 71 72 71t72 -71q0 -30 -21 -51t-51 -21q-72 0 -72 72z M204 205v766l21 18l18 -18v-766l-18 -21z" />
<glyph unicode="&#xf0;" horiz-adv-x="684" d="M59 305v313q0 97 82 150q69 45 172 45l21 20v78l-46 121l-125 -61q-12 -6 -24 -6q-26 0 -44.5 20t-18.5 46q0 39 31 54l136 67l-67 179q0 25 4 33q8 16 45 16q48 0 70 -59l46 -122l120 59q62 4 124 -31l3 -5q-5 -13 -32 -42.5t-40 -36.5l-130 -63l153 -404 q36 -142 45 -183q22 -98 22 -188q0 -135 -43 -176v137q-32 -83 -98 -137q-72 -60 -156 -60q-92 0 -171 72t-79 164zM176 471q4 43 35 78v-332q0 -31 80 -31h31q41 0 76 19q42 22 42 59v369h-145q8 20 65 22l70 2q-49 49 -57 49h-127q-19 0 -44.5 -28.5t-25.5 -48.5v-158z M211 565l4 4l4 -4l-4 -6q-4 1 -4 6zM217 579q0 9 8 9t8 -7v-4q0 -8 -8 -8t-8 10zM266 629q0 8 8 8q9 0 9 -6v-4q0 -9 -9 -9q-8 0 -8 11zM313 22h148q-47 -30 -74 -30t-74 30z" />
<glyph unicode="&#xf1;" horiz-adv-x="690" d="M-192 188q4 0 13 -6.5t13 -7.5q15 8 25 10l6 -2l4 -6q-12 -10 -31 -20h-8q-22 14 -22 32zM-190 350v21h22q0 -21 -22 -21zM-182 283l2 10q57 4 104 39q33 25 91 69q10 5 30 9q11 6 15 10v528q6 8 24 21h10l29 -39l4 -2h2q19 10 43 10q22 0 63.5 -35t67.5 -35q7 1 25 2 l78 60q-10 14 -68 28q10 21 37 21l2 -2q61 -23 111 -43q59 -23 98 -68q27 -31 39 -102q9 -55 29 -55q0 10 2 20q10 4 24 4q49 0 49 -117q13 -8 21 -20v-10l-21 -19q-2 -4 -14 -98q-10 -80 -25 -80l-10 2q-8 4 -10 10v43q0 18 11 52.5t11 52.5q0 13 -15.5 49.5t-24.5 46.5 q-13 -59 -13 -178q0 -11 1 -59t1 -82v-142q21 -8 21 -39q-6 -2 -21 -8q-15 -67 -16 -70q-15 -40 -49 -40q-66 0 -66 41v137q-24 -31 -31 -31q-12 6 -18 21v391q-37 10 -37 30q0 23 31 19v166q-12 30 -113 30q-33 0 -62.5 -25t-29.5 -58q0 -37 51 -37v16q2 6 17 6 q10 -8 30 -20q5 4 19 20h10q39 0 39 -35q0 -6 -6 -12l-12 -2q-6 0 -16 5t-15 5q-20 0 -73.5 -40.5t-53.5 -57.5v-176h26q0 -33 -30 -29v-323q0 -39 -64 -39q-52 0 -65 57q-4 17 -4 98l-21 -20q0 -6 -8 -8l-10 -11q0 36 -5.5 107.5t-5.5 107.5h-28q-20 -23 -83 -60 q-66 -38 -91 -38q-33 0 -33 21zM-151 401v39h28q2 -4 2 -8q0 -31 -30 -31zM-100 195q14 69 41 88q16 0 16 -21q0 -6 -13 -28.5t-13 -38.5h-31zM-53 532q0 19 29 19v-37q-29 0 -29 18zM-8 602q0 47 47 47q0 -47 -47 -47zM66 164q0 -8 8 -8l8 8v4q0 8 -8 8h-2q-6 0 -6 -8v-4z M122 1186q0 26 24.5 53t49.5 27q31 0 105 -48t105 -48q13 0 37.5 10t36.5 10v-18q-27 -43 -31 -48q-14 -14 -43 -14q-30 0 -103 47t-103 47q-13 0 -39.5 -9t-38.5 -9zM256 590q33 0 33 -19v-4l-4 -6l-6 -4h-4q-19 0 -19 33zM273 625h39q-3 -29 -13 -29q-26 0 -26 29z M277 440q4 19 16 19q14 0 19 -19h-35zM328 459v20h20v-20h-20zM344 625h27q0 -13 -12 -29q-13 4 -15 29zM652 311q0 31 14 31q18 0 18 -25v-28q-32 0 -32 22zM701 166v29h18v-29h-18zM735 145q0 31 19 31q18 0 18 -31h-37zM740 694q6 13 18 13v-25q-12 0 -18 12zM750 733v10 h8v-10h-8z" />
<glyph unicode="&#xf2;" horiz-adv-x="658" d="M54 383v338q0 80 43 123v-148q47 168 182 240h-88q31 35 88 35q27 -10 43 -10h7q6 4 18 10l21 -21q3 -1 38 -10q80 -21 139 -81q66 -65 66 -142v-471q0 -144 -219 -234v-137q-4 -6 -14 -10h-10q-11 4 -15 10v137q-100 13 -168.5 83t-81.5 171l-20 -10v8q0 21 -14.5 59.5 t-14.5 59.5zM106 1303h129l143 -224h-67zM230 217q0 -10 10 -29.5t19 -19.5h94v78q4 6 15 10h10q6 -4 8 -10v-78q-37 -10 -68 -29q60 -2 43 -2q123 0 123 70v137q-6 -30 -12 -51q-10 -33 -31 -37v557q0 10 -49 10h-14q0 -9 -6 -53q-4 -29 -4 -53q0 -8 2 -23.5t2 -23.5 q0 -47 -19 -54q-14 2 -20 13v196q-37 0 -68 -20q-35 -22 -35 -57v-531zM314 1255v15q35 0 35 -47q0 -35 -20 -58q-15 23 -15 90zM316 1331q0 15 13 21q12 -9 12 -21h-25zM318 1059v8h21v-8h-21zM318 1126l11 11q12 -7 12 -23q-16 0 -23 12zM318 1292l11 11q12 -7 12 -23 q-16 0 -23 12zM339 469v119q2 6 8 10h10q6 -4 11 -10v-107q0 -10 -29 -12zM357 295l11 10h10q6 -4 8 -10q-2 -6 -8 -10h-10zM476 752q0 -7 8 -7t8 9q0 10 -8 10t-8 -8v-4z" />
<glyph unicode="&#xf3;" horiz-adv-x="658" d="M54 383v338q0 80 43 123v-148q47 168 182 240h-88q31 35 88 35q27 -10 43 -10h7q6 4 18 10l21 -21q3 -1 38 -10q80 -21 139 -81q66 -65 66 -142v-471q0 -144 -219 -234v-137q-4 -6 -14 -10h-10q-11 4 -15 10v137q-100 13 -168.5 83t-81.5 171l-20 -10v8q0 21 -14.5 59.5 t-14.5 59.5zM230 217q0 -10 10 -29.5t19 -19.5h94v78q4 6 15 10h10q6 -4 8 -10v-78q-37 -10 -68 -29q60 -2 43 -2q123 0 123 70v137q-6 -30 -12 -51q-10 -33 -31 -37v557q0 10 -49 10h-14q0 -9 -6 -53q-4 -29 -4 -53q0 -8 2 -23.5t2 -23.5q0 -47 -19 -54q-14 2 -20 13v196 q-37 0 -68 -20q-35 -22 -35 -57v-531zM276 1035l143 223h129l-205 -223h-67zM314 1255v15q35 0 35 -47q0 -35 -20 -58q-15 23 -15 90zM316 1331q0 15 13 21q12 -9 12 -21h-25zM318 1059v8h21v-8h-21zM318 1126l11 11q12 -7 12 -23q-16 0 -23 12zM318 1292l11 11 q12 -7 12 -23q-16 0 -23 12zM339 469v119q2 6 8 10h10q6 -4 11 -10v-107q0 -10 -29 -12zM357 295l11 10h10q6 -4 8 -10q-2 -6 -8 -10h-10zM476 752q0 -7 8 -7t8 9q0 10 -8 10t-8 -8v-4z" />
<glyph unicode="&#xf4;" horiz-adv-x="658" d="M54 383v338q0 80 43 123v-148q47 168 182 240h-88q31 35 88 35q27 -10 43 -10h7q6 4 18 10l21 -21q3 -1 38 -10q80 -21 139 -81q66 -65 66 -142v-471q0 -144 -219 -234v-137q-4 -6 -14 -10h-10q-11 4 -15 10v137q-100 13 -168.5 83t-81.5 171l-20 -10v8q0 21 -14.5 59.5 t-14.5 59.5zM154 1049q0 45 67 133q45 59 78 106q14 27 39 27q29 0 76 -80q37 -51 112 -158v-28q-8 0 -26 -2q-16 -4 -25 8l-90 127q-25 55 -47 55l-2 -2q-38 -52 -86 -106q-71 -80 -96 -80zM230 217q0 -10 10 -29.5t19 -19.5h94v78q4 6 15 10h10q6 -4 8 -10v-78 q-37 -10 -68 -29q60 -2 43 -2q123 0 123 70v137q-6 -30 -12 -51q-10 -33 -31 -37v557q0 10 -49 10h-14q0 -9 -6 -53q-4 -29 -4 -53q0 -8 2 -23.5t2 -23.5q0 -47 -19 -54q-14 2 -20 13v196q-37 0 -68 -20q-35 -22 -35 -57v-531zM314 1255v15q35 0 35 -47q0 -35 -20 -58 q-15 23 -15 90zM316 1331q0 15 13 21q12 -9 12 -21h-25zM318 1059v8h21v-8h-21zM318 1126l11 11q12 -7 12 -23q-16 0 -23 12zM318 1292l11 11q12 -7 12 -23q-16 0 -23 12zM339 469v119q2 6 8 10h10q6 -4 11 -10v-107q0 -10 -29 -12zM357 295l11 10h10q6 -4 8 -10 q-2 -6 -8 -10h-10zM476 752q0 -7 8 -7t8 9q0 10 -8 10t-8 -8v-4z" />
<glyph unicode="&#xf5;" horiz-adv-x="658" d="M54 383v338q0 80 43 123v-148q47 168 182 240h-88q31 35 88 35q27 -10 43 -10h7q6 4 18 10l21 -21q3 -1 38 -10q80 -21 139 -81q66 -65 66 -142v-471q0 -144 -219 -234v-137q-4 -6 -14 -10h-10q-11 4 -15 10v137q-100 13 -168.5 83t-81.5 171l-20 -10v8q0 21 -14.5 59.5 t-14.5 59.5zM166 1147q0 26 24.5 53t49.5 27q31 0 105 -48t105 -48q13 0 37.5 10t36.5 10v-18q-27 -43 -31 -48q-14 -14 -43 -14q-30 0 -103 47t-103 47q-13 0 -39.5 -9t-38.5 -9zM230 217q0 -10 10 -29.5t19 -19.5h94v78q4 6 15 10h10q6 -4 8 -10v-78q-37 -10 -68 -29 q60 -2 43 -2q123 0 123 70v137q-6 -30 -12 -51q-10 -33 -31 -37v557q0 10 -49 10h-14q0 -9 -6 -53q-4 -29 -4 -53q0 -8 2 -23.5t2 -23.5q0 -47 -19 -54q-14 2 -20 13v196q-37 0 -68 -20q-35 -22 -35 -57v-531zM314 1255v15q35 0 35 -47q0 -35 -20 -58q-15 23 -15 90z M316 1331q0 15 13 21q12 -9 12 -21h-25zM318 1059v8h21v-8h-21zM318 1126l11 11q12 -7 12 -23q-16 0 -23 12zM318 1292l11 11q12 -7 12 -23q-16 0 -23 12zM339 469v119q2 6 8 10h10q6 -4 11 -10v-107q0 -10 -29 -12zM357 295l11 10h10q6 -4 8 -10q-2 -6 -8 -10h-10zM476 752 q0 -7 8 -7t8 9q0 10 -8 10t-8 -8v-4z" />
<glyph unicode="&#xf6;" horiz-adv-x="658" d="M54 383v338q0 80 43 123v-148q47 168 182 240h-88q31 35 88 35q27 -10 43 -10h7q6 4 18 10l21 -21q3 -1 38 -10q80 -21 139 -81q66 -65 66 -142v-471q0 -144 -219 -234v-137q-4 -6 -14 -10h-10q-11 4 -15 10v137q-100 13 -168.5 83t-81.5 171l-20 -10v8q0 21 -14.5 59.5 t-14.5 59.5zM154 1142q0 28 20.5 48.5t48.5 20.5q72 0 72 -69q0 -68 -72 -68q-69 0 -69 68zM230 217q0 -10 10 -29.5t19 -19.5h94v78q4 6 15 10h10q6 -4 8 -10v-78q-37 -10 -68 -29q60 -2 43 -2q123 0 123 70v137q-6 -30 -12 -51q-10 -33 -31 -37v557q0 10 -49 10h-14 q0 -9 -6 -53q-4 -29 -4 -53q0 -8 2 -23.5t2 -23.5q0 -47 -19 -54q-14 2 -20 13v196q-37 0 -68 -20q-35 -22 -35 -57v-531zM314 1255v15q35 0 35 -47q0 -35 -20 -58q-15 23 -15 90zM316 1331q0 15 13 21q12 -9 12 -21h-25zM318 1059v8h21v-8h-21zM318 1126l11 11 q12 -7 12 -23q-16 0 -23 12zM318 1292l11 11q12 -7 12 -23q-16 0 -23 12zM339 469v119q2 6 8 10h10q6 -4 11 -10v-107q0 -10 -29 -12zM357 295l11 10h10q6 -4 8 -10q-2 -6 -8 -10h-10zM393 1146q0 71 72 71t72 -71q0 -30 -21 -51t-51 -21q-72 0 -72 72zM476 752q0 -7 8 -7 t8 9q0 10 -8 10t-8 -8v-4z" />
<glyph unicode="&#xf7;" horiz-adv-x="883" d="M20 516v8l11 -8h-11zM96 1149q0 18 2 29q6 18 43 18q0 -47 -45 -47zM119 555l4 4l6 -4l-6 -4zM156 696q0 64 59 64h393q58 -23 99 -82v-6q-11 -10 -48 -24.5t-51 -14.5h-393q-59 0 -59 63zM164 510l4 6l4 -6l-4 -4zM186 535l7 4l4 -4l-7 -5zM291 504q0 53 71 53v-39 q-12 0 -35.5 -7t-35.5 -7zM348 429l9 51q2 12 24 25.5t35 13.5q59 0 59 -65q0 -37 -10 -49q-18 -15 -39 -31q-8 0 -23.5 3t-23.5 3q-15 0 -24 17t-7 32zM348 919l9 51q2 12 24 25.5t35 13.5q59 0 59 -65q0 -37 -10 -49q-18 -15 -39 -31q-8 0 -23.5 3t-23.5 3q-15 0 -24 17 t-7 32zM682 1098l4 6l4 -6l-4 -4zM766 760v10h8v-10h-8zM862 662h25q0 -44 -15 -58q-10 31 -10 58zM901 727v31q2 8 2 12q12 10 31 10q45 0 45 -73q-78 4 -78 20zM930 631q0 35 35 35q0 -35 -35 -35z" />
<glyph unicode="&#xf8;" horiz-adv-x="737" d="M94 383v338q0 80 43 123v-148q47 168 182 240h-88q31 35 88 35q27 -10 43 -10h7q6 4 18 10l21 -21q3 -1 38 -10q80 -21 139 -81q66 -65 66 -142v-471q0 -144 -219 -234v-137q-4 -6 -14 -10h-10q-11 4 -15 10v137q-101 13 -169 83t-81 171l-20 -10v8q0 21 -14.5 59.5 t-14.5 59.5zM270 217q0 -10 10 -29.5t19 -19.5h28l55 301h-3v119q2 6 8 10h10q4 -3 7 -6l40 220q1 6 3 11h-15h-14q0 -9 -6 -53q-4 -29 -4 -53q0 -8 2 -23.5t2 -23.5q0 -47 -19 -54q-14 2 -20 13v196q-37 0 -68 -20q-35 -22 -35 -57v-531zM354 1255v15q35 0 35 -47 q0 -35 -20 -58q-15 23 -15 90zM356 1331q0 15 13 21q12 -9 12 -21h-25zM358 1059v8h21v-8h-21zM358 1126l11 11q12 -7 12 -23q-16 0 -23 12zM358 1292l11 11q12 -7 12 -23q-16 0 -23 12zM388 138q23 -1 14 -1q122 0 122 70v137q-6 -30 -12 -51q-10 -33 -31 -37v404l-63 -355 q6 -4 8 -10q-2 -6 -8 -10h-4l-5 -29h9q6 -4 8 -10v-78q-18 -5 -34 -12zM516 752q0 -7 8 -7t8 9q0 10 -8 10t-8 -8v-4z" />
<glyph unicode="&#xf9;" horiz-adv-x="632" d="M53 219v680q0 13 24 27q21 12 35 12q13 0 38.5 -14.5t25.5 -24.5v-676q0 -51 59 -76q47 -20 103 -20q40 0 75 33.5t35 72.5v666q0 10 26 24.5t38 14.5q23 0 44 -18t21 -41v-596l19 28v666l24 20q21 -7 21 -39l14 -481l25 21v12q0 116 55 360q67 293 119 293q20 0 20 -18 q0 -53 -37 -144q-41 -104 -51 -141l-59 -244q-35 -145 -39 -245l-19 -21v-78q-32 -22 -32 -71q-33 0 -56 43q0 -217 -67 -217q-25 0 -63 39.5t-60 39.5q-17 0 -77.5 -44t-96.5 -44q-66 0 -117 69q-47 63 -47 132zM63 1312h129l143 -224h-67zM200 379v598l19 20l24 -20v-674 q0 -39 44 -68q36 -24 79 -30q-16 -21 -35 -21q-52 0 -94 72q-37 65 -37 123zM610 145v11q18 22 35 22q0 -18 -35 -33zM688 223v21h20v-21h-20z" />
<glyph unicode="&#xfa;" horiz-adv-x="632" d="M53 219v680q0 13 24 27q21 12 35 12q13 0 38.5 -14.5t25.5 -24.5v-676q0 -51 59 -76q47 -20 103 -20q40 0 75 33.5t35 72.5v666q0 10 26 24.5t38 14.5q23 0 44 -18t21 -41v-596l19 28v666l24 20q21 -7 21 -39l14 -481l25 21v12q0 116 55 360q67 293 119 293q20 0 20 -18 q0 -53 -37 -144q-41 -104 -51 -141l-59 -244q-35 -145 -39 -245l-19 -21v-78q-32 -22 -32 -71q-33 0 -56 43q0 -217 -67 -217q-25 0 -63 39.5t-60 39.5q-17 0 -77.5 -44t-96.5 -44q-66 0 -117 69q-47 63 -47 132zM200 379v598l19 20l24 -20v-674q0 -39 44 -68q36 -24 79 -30 q-16 -21 -35 -21q-52 0 -94 72q-37 65 -37 123zM288 1092l143 223h129l-205 -223h-67zM610 145v11q18 22 35 22q0 -18 -35 -33zM688 223v21h20v-21h-20z" />
<glyph unicode="&#xfb;" horiz-adv-x="632" d="M53 219v680q0 13 24 27q21 12 35 12q13 0 38.5 -14.5t25.5 -24.5v-676q0 -51 59 -76q47 -20 103 -20q40 0 75 33.5t35 72.5v666q0 10 26 24.5t38 14.5q23 0 44 -18t21 -41v-596l19 28v666l24 20q21 -7 21 -39l14 -481l25 21v12q0 116 55 360q67 293 119 293q20 0 20 -18 q0 -53 -37 -144q-41 -104 -51 -141l-59 -244q-35 -145 -39 -245l-19 -21v-78q-32 -22 -32 -71q-33 0 -56 43q0 -217 -67 -217q-25 0 -63 39.5t-60 39.5q-17 0 -77.5 -44t-96.5 -44q-66 0 -117 69q-47 63 -47 132zM142 1062q0 45 67 133q45 59 78 106q14 27 39 27 q29 0 76 -80q37 -51 112 -158v-28q-8 0 -26 -2q-16 -4 -25 8l-90 127q-25 55 -47 55l-2 -2q-38 -52 -86 -106q-71 -80 -96 -80zM200 379v598l19 20l24 -20v-674q0 -39 44 -68q36 -24 79 -30q-16 -21 -35 -21q-52 0 -94 72q-37 65 -37 123zM610 145v11q18 22 35 22 q0 -18 -35 -33zM688 223v21h20v-21h-20z" />
<glyph unicode="&#xfc;" horiz-adv-x="632" d="M53 219v680q0 13 24 27q21 12 35 12q13 0 38.5 -14.5t25.5 -24.5v-676q0 -51 59 -76q47 -20 103 -20q40 0 75 33.5t35 72.5v666q0 10 26 24.5t38 14.5q23 0 44 -18t21 -41v-596l19 28v666l24 20q21 -7 21 -39l14 -481l25 21v12q0 116 55 360q67 293 119 293q20 0 20 -18 q0 -53 -37 -144q-41 -104 -51 -141l-59 -244q-35 -145 -39 -245l-19 -21v-78q-32 -22 -32 -71q-33 0 -56 43q0 -217 -67 -217q-25 0 -63 39.5t-60 39.5q-17 0 -77.5 -44t-96.5 -44q-66 0 -117 69q-47 63 -47 132zM122 1170q0 28 20.5 48.5t48.5 20.5q72 0 72 -69 q0 -68 -72 -68q-69 0 -69 68zM200 379v598l19 20l24 -20v-674q0 -39 44 -68q36 -24 79 -30q-16 -21 -35 -21q-52 0 -94 72q-37 65 -37 123zM361 1174q0 71 72 71t72 -71q0 -30 -21 -51t-51 -21q-72 0 -72 72zM610 145v11q18 22 35 22q0 -18 -35 -33zM688 223v21h20v-21h-20z " />
<glyph unicode="&#xfd;" horiz-adv-x="713" d="M-209 154v6q0 47 24 47q21 0 21 -27q0 -26 -45 -26zM-146 127v68q33 20 167 65t165 45v-41q-55 -24 -166 -69q-43 -9 -123 -41q-16 -13 -35 -37zM49 897q0 51 39 51q16 0 36 -12.5t23 -26.5l117 -508q7 -30 24 -30q33 0 60.5 24t34.5 56l96 440q11 49 63 49q47 0 47 -34 q0 -7 -2 -15q-82 -347 -77 -363q8 7 34 37q23 27 35 27q-2 59 -2 43q0 48 24.5 151t45.5 144v-15q0 -26 -15.5 -76.5t-15.5 -76.5q21 -82 31 -117h4q9 0 21 19.5t14 29.5l18 176h25v-84l6 -2l8 -2l21 21h10q22 0 22 -47q0 -10 -2 -31t-2 -31q-30 -39 -116 -88 q-99 -55 -128 -82q-65 -60 -88 -162l11 -2q26 0 47 31v-10l-78 -313q-4 108 -18 127q-15 -47 -72 -275q-68 -272 -219 -272q-43 0 -43 39q0 37 47 59q64 30 71 39q70 85 70 252q0 34 -2 41zM158 1094q0 28 20.5 48.5t48.5 20.5q72 0 72 -69q0 -68 -72 -68q-69 0 -69 68z M221 913l2 15l2 2q4 -8 4 -17q0 -6 -4 -14l-2 4zM231 881q0 8 4 10l4 -10l-4 -11q-4 2 -4 11zM241 842q0 8 4 10q4 -6 4 -12l-4 -9q-4 3 -4 11zM397 1098q0 71 72 71t72 -71q0 -30 -21 -51t-51 -21q-72 0 -72 72zM702 578q0 14 12 18q13 -4 13 -18h-25zM741 596q0 14 12 20 q13 -6 13 -20h-25z" />
<glyph unicode="&#xfe;" horiz-adv-x="756" d="M33 647h24q0 -13 -12 -19q-12 6 -12 19zM84 -312v1623q0 39 59 39q64 0 64 -39v-148l24 21l25 -31v-153q25 -31 25 -40q0 -10 -9.5 -30t-9.5 -31q27 -4 34 -6q48 36 84 53q28 16 50 16q84 0 123 -75l1 -2q23 -44 34 -97l14 -45l2 -4v37q0 109 -12 147q-23 72 -107 86 q15 21 39 21q25 0 47 -23q84 -88 84 -248v-63q0 -37 -1 -59t-1 -10v-14q4 -30 4 -66v-21q-1 -16 -1 -26q0 -11 1 -27v-21q0 -36 -4 -66v-15q0 2 -3 -4q-7 -34 -19 -58q-10 -31 -27 -86v37l-2 -4l-14 -45q-11 -53 -34 -97l-1 -2q-39 -75 -123 -75q-22 0 -50 16q-36 17 -84 53 q-7 -2 -34 -6q0 -11 9.5 -31t9.5 -30q0 -9 -25 -40l-25 -31l-24 21v-301q0 -39 -64 -39q-59 0 -59 39zM260 167l2 -2l11 -6h126q21 8 36 19q25 25 36 55q4 17 4 37v459q0 20 -4 37q-11 30 -36 55q-15 11 -36 19h-2h-124l-11 -6l-2 -2v-60q12 -26 21 -39q-7 -26 -21 -49v-369 q14 -23 21 -49q-9 -13 -21 -39v-60zM285 530q0 20 39 20q16 0 16 -20h-55zM309 579l4 4l6 -4l-6 -4zM338 491l10 10v-10h-10zM350 391v4q0 8 8 8h2q7 0 7 -8v-4q0 -9 -9 -9q-8 0 -8 9zM385 512q0 12 12 28q13 -4 13 -28h-25zM426 413q8 13 20 13v-25q-14 0 -20 12zM524 1171 l4 4l4 -4l-4 -4zM537 88q11 14 16 24l1 2q-8 -14 -17 -26zM537 911q9 -12 17 -26l-1 2q-5 10 -16 24zM620 20v10h21v-10h-21zM719 323q8 80 37 80q14 0 14 -39q0 -41 -51 -41z" />
<glyph unicode="&#xff;" horiz-adv-x="713" d="M-209 154v6q0 47 24 47q21 0 21 -27q0 -26 -45 -26zM-146 127v68q33 20 167 65t165 45v-41q-55 -24 -166 -69q-43 -9 -123 -41q-16 -13 -35 -37zM49 897q0 51 39 51q16 0 36 -12.5t23 -26.5l117 -508q7 -30 24 -30q33 0 60.5 24t34.5 56l96 440q11 49 63 49q47 0 47 -34 q0 -7 -2 -15q-82 -347 -77 -363q8 7 34 37q23 27 35 27q-2 59 -2 43q0 48 24.5 151t45.5 144v-15q0 -26 -15.5 -76.5t-15.5 -76.5q21 -82 31 -117h4q9 0 21 19.5t14 29.5l18 176h25v-84l6 -2l8 -2l21 21h10q22 0 22 -47q0 -10 -2 -31t-2 -31q-30 -39 -116 -88 q-99 -55 -128 -82q-65 -60 -88 -162l11 -2q26 0 47 31v-10l-78 -313q-4 108 -18 127q-15 -47 -72 -275q-68 -272 -219 -272q-43 0 -43 39q0 37 47 59q64 30 71 39q70 85 70 252q0 34 -2 41zM164 1121q0 28 20.5 48.5t48.5 20.5q72 0 72 -69q0 -68 -72 -68q-69 0 -69 68z M221 913l2 15l2 2q4 -8 4 -17q0 -6 -4 -14l-2 4zM231 881q0 8 4 10l4 -10l-4 -11q-4 2 -4 11zM241 842q0 8 4 10q4 -6 4 -12l-4 -9q-4 3 -4 11zM403 1125q0 71 72 71t72 -71q0 -30 -21 -51t-51 -21q-72 0 -72 72zM702 578q0 14 12 18q13 -4 13 -18h-25zM741 596q0 14 12 20 q13 -6 13 -20h-25z" />
<glyph unicode="&#x152;" horiz-adv-x="1200" d="M86 430v653q0 62 39 129v-911q-39 68 -39 129zM164 311v733q0 177 235 299h-137q47 35 88 35q192 -43 280 -108v30q12 17 78 48q44 20 68 27q4 34 15 65q4 35 18 104q1 3 4.5 6.5t5.5 3.5h15q24 0 24 -20t-16.5 -69.5t-16.5 -75.5q0 -6 -1 -11h265l20 -14h-288 q-4 -14 -15 -21h274q17 0 38.5 -19t21.5 -36q0 -19 -11 -38q-13 -23 -30 -23h-303q-13 -8 -29 -25v-381l29 -35h243l21 -18h-166v-14q197 0 197 -64q0 -17 -12.5 -38t-28.5 -21h-254q-13 -8 -29 -25v-381q0 -30 57 -30q23 0 31 2q4 18 14 20q13 -6 25 -27h195l30 -14 l-10 -14h-215l186 -15q60 -5 60 -57q0 -65 -41 -65h-211v-162q-6 -10 -29 -13v160l-14 15h-176q-39 26 -39 45v5q-82 -59 -175 -59q-113 0 -202 91t-89 204zM291 244q0 -14 14 -42t25 -32h88l-29 -25l10 -10l47 -2l62 2q35 1 76 33t41 65v773l-21 -9v-88l10 -10v-10l-14 -10 v-480q0 -39 -45 -106q0 108 -5 322.5t-5 322.5q-13 -10 -68 -39q-12 -7 -26 -28q-14 -24 -23 -31q-10 4 -10 28q61 78 127 138v206q-13 11 -56 11h-38q-61 0 -106 -28q-54 -34 -54 -91v-10q18 2 31 10q2 10 8 29h4q-8 0 22 -9q2 -10 4 -30q-4 -7 -10 -11q-10 2 -20 11 q2 -7 2 -13q0 -39 -41 -39v-798zM301 897v31h35q0 -31 -35 -31zM322 752h8v-11zM330 541q0 18 30 18v-35q-30 0 -30 17zM330 625q0 20 20 20q10 0 10 -20v-11q-4 -8 -10 -8q-20 0 -20 19zM338 489q14 0 22 -12l-10 -8q-12 4 -12 20zM340 573v13h20q-6 -13 -20 -13zM365 727 l4 6l4 -6l-4 -4zM377 778q0 35 35 35q0 -35 -35 -35zM485 1133q0 14 13 20v-20h-13zM512 1059q0 6 4 6l4 -6l-4 -4zM526 1016v10h11v-10h-11zM567 1190q0 -8 8 -8h3q6 0 6 8v4q0 8 -9 8q-8 0 -8 -8v-4zM584 1178q20 -62 20 -134h10l11 11v37q0 63 -39 90zM770 977 q6 12 21 12v-24q-15 0 -21 12zM786 156q8 -4 28 -4h12q21 0 29 4q-3 4 -24 4h-21q-23 0 -24 -4zM786 754h69v12q-55 0 -69 -12zM809 977l10 10h10l11 -10l-11 -10h-10zM861 301q0 12 13 31l6 -2l4 -6v-9q0 -14 -23 -14zM863 -207q0 8 11 12q12 -4 12 -30q0 -27 -12 -29 q-11 2 -11 12v35zM865 244v20h19v-20h-19zM865 506v33h9q8 -11 10 -21q-4 -10 -19 -12zM902 -14q2 10 21 14l2 -10v-10q-6 -7 -13 -9l-4 4zM923 205v137h20v-137h-20zM923 381v70h20v-82q-20 4 -20 12zM923 500v8q4 6 10 10q6 -4 10 -10v-8q-4 -6 -10 -11q-6 5 -10 11z M923 582v12q0 22 16 22q14 0 14 -28q0 -31 -14 -31q-16 0 -16 25zM982 850l4 4l6 -4l-6 -4z" />
<glyph unicode="&#x153;" horiz-adv-x="1148" d="M94 383v338q0 80 43 123v-148q47 168 182 240h-88q31 35 88 35q27 -10 43 -10h7q6 4 18 10l21 -21q3 -1 38 -10q80 -21 139 -81q14 -14 25 -29q35 42 113 102h-77q6 35 77 35q32 0 154 -47q190 -73 190 -338q0 -138 -41 -138h-313q-39 -26 -39 -45v-186q12 -25 31 -53h88 l-31 -25h49q48 0 105.5 45t75.5 45q45 0 45 -37q0 -43 -61 -99q-57 -52 -103 -64q-35 -9 -74 -9q-125 0 -195 109q-54 -65 -172 -113v-137q-4 -6 -14 -10h-10q-11 4 -15 10v137q-101 13 -169 83t-81 171l-20 -10v8q0 21 -14.5 59.5t-14.5 59.5zM270 217q0 -10 10 -29.5 t19 -19.5h94v78q4 6 15 10h10q6 -4 8 -10v-78q-37 -10 -68 -29q59 -2 44 -2q78 0 106 29v4q0 12 13 16q2 8 3 17h-5v10h5v20q-16 2 -16 19q0 5 5.5 15t5.5 16q0 14 -1 31q-3 -11 -6 -21q-10 -33 -31 -37v427q-12 9 -12 19q0 5 12 21v90q0 10 -49 10h-14q0 -9 -6 -53 q-4 -29 -4 -53q0 -8 2 -23.5t2 -23.5q0 -47 -19 -54q-14 2 -20 13v196q-37 0 -68 -20q-35 -22 -35 -57v-531zM354 1255v15q35 0 35 -47q0 -35 -20 -58q-15 23 -15 90zM356 1331q0 15 13 21q12 -9 12 -21h-25zM358 1059v8h21v-8h-21zM358 1126l11 11q12 -7 12 -23 q-16 0 -23 12zM358 1292l11 11q12 -7 12 -23q-16 0 -23 12zM379 469v119q2 6 8 10h10q6 -4 11 -10v-107q0 -10 -29 -12zM397 295l11 10h10q6 -4 8 -10q-2 -6 -8 -10h-10zM508 166q3 -14 29 -14v36q-10 0 -16 -2q-4 -11 -13 -20zM516 119q0 -19 13 -23l8 10q-6 13 -21 13z M524 203q10 2 13 10h-13v-6v-4zM674 586q22 11 103 84q71 64 112 82q1 5 2 12v12q0 45 -57 45h-29q-131 0 -131 -78v-157zM691 688l4 4l4 -4l-4 -4zM695 537l18 -11q14 31 31 31q6 -16 8 -31h72q0 13 53 47q16 10 16 89v26h-2l-4 -2l-14 -6q-14 -6 -70 -41 q-67 -42 -108 -102zM705 645v8h8v-8h-8zM850 526h27q63 0 63 60l-2 18q-5 -20 -46.5 -45t-41.5 -33zM934 713l2 -15l2 -6q4 10 4 21q0 10 -4 20l-2 -4zM938 918q4 6 11 10h10l6 -4l2 -6q-2 -7 -8 -11h-10zM953 963q0 57 16 106q4 38 19 102q2 7 12 13h12q25 0 25 -21 q0 -19 -16.5 -69t-16.5 -76q0 -55 -51 -55zM1016 928v20h21v-20h-21z" />
<glyph unicode="&#x178;" horiz-adv-x="698" d="M59 1260q0 36 45 36q44 0 54 -32l137 -451q3 -3 22 -31q12 -18 31 -18q41 0 53 41l129 430q18 59 68 59h29q12 -12 12 -41q0 -12 -2 -18l-145 -432q-35 -78 -74 -215q-8 -29 -4 -90q4 -60 4 -92v-365q0 -21 -21.5 -40t-42.5 -19q-12 0 -38.5 14t-26.5 24v549l-15 -401 q-1 -32 -18 -39l-25 18v549q-36 74 -36 117q0 12 2 21q-138 411 -138 426zM169 1422q0 28 20.5 48.5t48.5 20.5q72 0 72 -69q0 -68 -72 -68q-69 0 -69 68zM408 1426q0 71 72 71t72 -71q0 -30 -21 -51t-51 -21q-72 0 -72 72zM467 1278q0 6 4 6l4 -6l-4 -4z" />
<glyph unicode="&#x2c6;" horiz-adv-x="639" d="M154 1139q0 45 67 133q45 59 78 106q14 27 39 27q29 0 76 -80q37 -51 112 -158v-28q-8 0 -26 -2q-16 -4 -25 8l-90 127q-25 55 -47 55l-2 -2q-38 -52 -86 -106q-71 -80 -96 -80z" />
<glyph unicode="&#x2dc;" horiz-adv-x="748" d="M205 1192q0 26 24.5 53t49.5 27q31 0 105 -48t105 -48q13 0 37.5 10t36.5 10v-18q-27 -43 -31 -48q-14 -14 -43 -14q-30 0 -103 47t-103 47q-13 0 -39.5 -9t-38.5 -9z" />
<glyph unicode="&#x2000;" horiz-adv-x="922" />
<glyph unicode="&#x2001;" horiz-adv-x="1845" />
<glyph unicode="&#x2002;" horiz-adv-x="922" />
<glyph unicode="&#x2003;" horiz-adv-x="1845" />
<glyph unicode="&#x2004;" horiz-adv-x="615" />
<glyph unicode="&#x2005;" horiz-adv-x="461" />
<glyph unicode="&#x2006;" horiz-adv-x="307" />
<glyph unicode="&#x2007;" horiz-adv-x="307" />
<glyph unicode="&#x2008;" horiz-adv-x="230" />
<glyph unicode="&#x2009;" horiz-adv-x="369" />
<glyph unicode="&#x200a;" horiz-adv-x="102" />
<glyph unicode="&#x2010;" horiz-adv-x="617" d="M-99 516v8l11 -8h-11zM-23 1149q0 18 2 29q6 18 43 18q0 -47 -45 -47zM0 555l4 4l6 -4l-6 -4zM37 696q0 64 59 64h393q58 -23 99 -82v-6q-11 -10 -48.5 -24.5t-50.5 -14.5h-393q-59 0 -59 63zM45 510l4 6l4 -6l-4 -4zM67 535l7 4l4 -4l-7 -5zM172 504q0 53 71 53v-39 q-13 0 -36 -7t-35 -7zM563 1098l4 6l4 -6l-4 -4zM647 760v10h8v-10h-8zM743 662h25q0 -44 -15 -58q-10 31 -10 58zM782 727v31q1 8 2 12q12 10 31 10q45 0 45 -73q-78 4 -78 20zM811 631q0 35 35 35q0 -35 -35 -35z" />
<glyph unicode="&#x2011;" horiz-adv-x="617" d="M-99 516v8l11 -8h-11zM-23 1149q0 18 2 29q6 18 43 18q0 -47 -45 -47zM0 555l4 4l6 -4l-6 -4zM37 696q0 64 59 64h393q58 -23 99 -82v-6q-11 -10 -48.5 -24.5t-50.5 -14.5h-393q-59 0 -59 63zM45 510l4 6l4 -6l-4 -4zM67 535l7 4l4 -4l-7 -5zM172 504q0 53 71 53v-39 q-13 0 -36 -7t-35 -7zM563 1098l4 6l4 -6l-4 -4zM647 760v10h8v-10h-8zM743 662h25q0 -44 -15 -58q-10 31 -10 58zM782 727v31q1 8 2 12q12 10 31 10q45 0 45 -73q-78 4 -78 20zM811 631q0 35 35 35q0 -35 -35 -35z" />
<glyph unicode="&#x2012;" horiz-adv-x="617" d="M-99 516v8l11 -8h-11zM-23 1149q0 18 2 29q6 18 43 18q0 -47 -45 -47zM0 555l4 4l6 -4l-6 -4zM37 696q0 64 59 64h393q58 -23 99 -82v-6q-11 -10 -48.5 -24.5t-50.5 -14.5h-393q-59 0 -59 63zM45 510l4 6l4 -6l-4 -4zM67 535l7 4l4 -4l-7 -5zM172 504q0 53 71 53v-39 q-13 0 -36 -7t-35 -7zM563 1098l4 6l4 -6l-4 -4zM647 760v10h8v-10h-8zM743 662h25q0 -44 -15 -58q-10 31 -10 58zM782 727v31q1 8 2 12q12 10 31 10q45 0 45 -73q-78 4 -78 20zM811 631q0 35 35 35q0 -35 -35 -35z" />
<glyph unicode="&#x2013;" horiz-adv-x="754" d="M20 516v8l11 -8h-11zM96 1149q0 18 2 29q6 18 43 18q0 -47 -45 -47zM119 555l4 4l6 -4l-6 -4zM164 510l4 6l4 -6l-4 -4zM186 535l7 4l4 -4l-7 -5zM198 677q0 64 59 64h273q58 -23 99 -82v-6q-11 -10 -48 -24.5t-51 -14.5h-273q-59 0 -59 63zM291 504q0 53 71 53v-39 q-12 0 -35.5 -7t-35.5 -7zM562 1098l4 6l4 -6l-4 -4zM612 562h25q0 -44 -15 -58q-10 31 -10 58zM646 760v10h8v-10h-8zM651 627v31q2 8 2 12q12 10 31 10q45 0 45 -73q-78 4 -78 20zM680 531q0 35 35 35q0 -35 -35 -35z" />
<glyph unicode="&#x2014;" horiz-adv-x="980" d="M20 516v8l11 -8h-11zM96 696q0 64 59 64h583q58 -23 99 -82v-6q-11 -10 -48 -24.5t-51 -14.5h-583q-59 0 -59 63zM96 1149q0 18 2 29q6 18 43 18q0 -47 -45 -47zM119 555l4 4l6 -4l-6 -4zM164 510l4 6l4 -6l-4 -4zM186 535l7 4l4 -4l-7 -5zM291 504q0 53 71 53v-39 q-12 0 -35.5 -7t-35.5 -7zM682 1098l4 6l4 -6l-4 -4zM862 662h25q0 -44 -15 -58q-10 31 -10 58zM901 727v31q2 8 2 12q12 10 31 10q45 0 45 -73q-78 4 -78 20zM930 631q0 35 35 35q0 -35 -35 -35z" />
<glyph unicode="&#x2018;" horiz-adv-x="234" d="M48 1278q0 59 25 94q46 65 83 65q31 0 28 -21l-20 -166q-2 -14 -23 -26.5t-36 -12.5q-57 0 -57 67z" />
<glyph unicode="&#x2019;" horiz-adv-x="234" d="M48 1232l20 166q2 14 23 26.5t36 12.5q57 0 57 -67q0 -59 -25 -94q-46 -65 -83 -65q-31 0 -28 21z" />
<glyph unicode="&#x201a;" horiz-adv-x="241" d="M48 -68l20 166q2 14 23 26.5t36 12.5q57 0 57 -67q0 -59 -25 -94q-46 -65 -83 -65q-31 0 -28 21z" />
<glyph unicode="&#x201c;" horiz-adv-x="388" d="M48 1278q0 59 25 94q46 65 83 65q31 0 28 -21l-20 -166q-2 -14 -23 -26.5t-36 -12.5q-57 0 -57 67zM218 1278q0 59 25 94q46 65 83 65q31 0 28 -21l-20 -166q-2 -14 -23 -26.5t-36 -12.5q-57 0 -57 67z" />
<glyph unicode="&#x201d;" horiz-adv-x="388" d="M48 1232l20 166q2 14 23 26.5t36 12.5q57 0 57 -67q0 -59 -25 -94q-46 -65 -83 -65q-31 0 -28 21zM218 1232l20 166q2 14 23 26.5t36 12.5q57 0 57 -67q0 -59 -25 -94q-46 -65 -83 -65q-31 0 -28 21z" />
<glyph unicode="&#x201e;" horiz-adv-x="388" d="M48 -68l20 166q2 14 23 26.5t36 12.5q57 0 57 -67q0 -59 -25 -94q-46 -65 -83 -65q-31 0 -28 21zM218 -68l20 166q2 14 23 26.5t36 12.5q57 0 57 -67q0 -59 -25 -94q-46 -65 -83 -65q-31 0 -28 21z" />
<glyph unicode="&#x2022;" horiz-adv-x="537" d="M52 683v46q0 63 34 97v-117q37 132 143 189h-69q24 28 69 28q21 -8 34 -8h5q5 3 14 8l17 -17q2 0 30 -8q62 -17 109 -63q52 -52 52 -112v-150q0 -114 -172 -185v-36q-3 -5 -11 -8h-8q-9 3 -12 8v36q-79 11 -132.5 66t-64.5 134l-15 -8v7q0 16 -11.5 46.5t-11.5 46.5z" />
<glyph unicode="&#x2026;" horiz-adv-x="713" d="M59 47l9 51q2 12 24 25.5t35 13.5q59 0 59 -65q0 -37 -10 -49q-18 -15 -39 -31q-8 0 -23.5 3t-23.5 3q-15 0 -24.5 17t-6.5 32zM289 47l9 51q2 12 24 25.5t35 13.5q59 0 59 -65q0 -37 -10 -49q-18 -15 -39 -31q-8 0 -23.5 3t-23.5 3q-15 0 -24.5 17t-6.5 32zM519 47l9 51 q2 12 24 25.5t35 13.5q59 0 59 -65q0 -37 -10 -49q-18 -15 -39 -31q-8 0 -23.5 3t-23.5 3q-15 0 -24.5 17t-6.5 32z" />
<glyph unicode="&#x202f;" horiz-adv-x="369" />
<glyph unicode="&#x2039;" horiz-adv-x="371" d="M63 462q0 29 80 76q51 37 158 112h28q0 -8 2 -26q4 -16 -8 -25l-127 -90q-55 -25 -55 -47l2 -2q52 -38 106 -86q80 -71 80 -96q-44 0 -133 67q-59 45 -106 78q-27 14 -27 39z" />
<glyph unicode="&#x203a;" horiz-adv-x="371" d="M63 624q2 18 2 26h28q107 -75 158 -112q80 -47 80 -76q0 -25 -27 -39q-47 -33 -106 -78q-88 -67 -133 -67q0 25 80 96q54 48 106 86l2 2q0 22 -55 47l-127 90q-12 9 -8 25z" />
<glyph unicode="&#x205f;" horiz-adv-x="461" />
<glyph unicode="&#x2122;" horiz-adv-x="1168" d="M76 1334q5 11 24 11h229q19 0 24 -11l-13 -8h-88q-11 -9 -17 -21q0 -5 2 -8h198q10 0 22.5 -12.5t12.5 -22.5q0 -37 -24 -37h-88l-20 -20v-669q0 -36 -38 -36q-7 0 -22.5 8.5t-15.5 14.5v676q0 11 -30 24v-588q-1 0 -11 -21l-4 -2l-14 11v600q-80 0 -80 39q0 37 76 37 q-11 27 -23 27h-88zM340 658v3q0 28 14 28q13 0 13 -16q0 -15 -27 -15zM377 641v41q52 22 155 59v528q0 7 15.5 15t23.5 8q33 0 67 -93v100l15 12q9 -6 15 -16q12 -19 42.5 -111.5t30.5 -109.5q-18 0 -41 65q-17 47 -29 84v-15q0 -84 14 -142q7 -30 44 -138q10 -29 25 -58 q22 11 57 53q3 53 10 86q2 3 8 3q14 0 18 -30l94 270q14 40 47 40q44 0 40 -57q31 76 42 76l12 -12v-693q0 -5 -12 -17q-8 8 -14 17v428q-15 33 -15 100l-15 -23v-581q0 -24 -38 -24t-38 24v428l-9 18q-23 -7 -47 -30.5t-24 -46.5q0 -4 1 -15h26l-37 -108l-13 36h-6 q-47 -141 -62 -141q-22 0 -38 55q-22 72 -23 74q-5 -20 -23 -25q-24 -7 -28 -11v-146q0 -25 -17 -25q-6 0 -12 13v135q-10 -7 -30 -17v-182q0 -37 -36 -37q-40 0 -40 25v167q-105 0 -150 -62zM612 822q0 -32 17 -40l6 6v207l-6 -1q-6 -6 -17 -18v-154zM671 803l3 2 q11 7 32 24v12l-35 105v-143zM777 859h5q24 0 35 40zM886 912q0 8 7 11q8 -3 8 -11h-15zM910 923q0 7 7 12q7 -4 7 -12h-14z" />
<glyph unicode="&#xe000;" horiz-adv-x="930" d="M0 0v930h930v-930h-930z" />
</font>
</defs>
</svg>
